<svg width="32" height="32" viewBox="0 0 32 32" fill="none" xmlns="http://www.w3.org/2000/svg">
<path d="M31.5 16C31.5 24.5604 24.5604 31.5 16 31.5C7.43959 31.5 0.5 24.5604 0.5 16C0.5 7.43959 7.43959 0.5 16 0.5C24.5604 0.5 31.5 7.43959 31.5 16Z" stroke="white"/>
<path d="M23.4559 12.921C23.4475 12.2899 23.3293 11.665 23.1067 11.0744C22.9137 10.5762 22.6188 10.1237 22.241 9.7459C21.8632 9.36809 21.4108 9.07325 20.9126 8.88021C20.3295 8.66134 19.7135 8.54298 19.0909 8.5302C18.2892 8.49437 18.0351 8.48438 16.0001 8.48438C13.9651 8.48438 13.7042 8.48437 12.9084 8.5302C12.286 8.54308 11.6703 8.66143 11.0876 8.88021C10.5893 9.07312 10.1367 9.36791 9.75892 9.74574C9.3811 10.1236 9.0863 10.5761 8.89339 11.0744C8.67408 11.657 8.55599 12.2728 8.54423 12.8952C8.50839 13.6977 8.49756 13.9519 8.49756 15.9869C8.49756 18.0219 8.49756 18.2819 8.54423 19.0785C8.55673 19.7019 8.67423 20.3169 8.89339 20.901C9.08662 21.3992 9.38164 21.8515 9.75959 22.2292C10.1375 22.6068 10.5901 22.9015 11.0884 23.0944C11.6696 23.322 12.2854 23.4489 12.9092 23.4694C13.7117 23.5052 13.9659 23.516 16.0009 23.516C18.0359 23.516 18.2967 23.516 19.0926 23.4694C19.7152 23.4571 20.3312 23.339 20.9142 23.1202C21.4123 22.9269 21.8646 22.632 22.2424 22.2542C22.6202 21.8765 22.9151 21.4241 23.1084 20.926C23.3276 20.3427 23.4451 19.7277 23.4576 19.1035C23.4934 18.3019 23.5042 18.0477 23.5042 16.0119C23.5026 13.9769 23.5026 13.7185 23.4559 12.921ZM15.9951 19.8352C13.8667 19.8352 12.1426 18.111 12.1426 15.9827C12.1426 13.8544 13.8667 12.1302 15.9951 12.1302C17.0168 12.1302 17.9967 12.5361 18.7192 13.2586C19.4417 13.9811 19.8476 14.961 19.8476 15.9827C19.8476 17.0045 19.4417 17.9844 18.7192 18.7068C17.9967 19.4293 17.0168 19.8352 15.9951 19.8352ZM20.0009 12.886C19.5034 12.886 19.1026 12.4844 19.1026 11.9877C19.1026 11.8698 19.1258 11.753 19.1709 11.6441C19.216 11.5352 19.2822 11.4362 19.3656 11.3528C19.4489 11.2694 19.5479 11.2033 19.6569 11.1581C19.7658 11.113 19.8826 11.0898 20.0005 11.0898C20.1184 11.0898 20.2352 11.113 20.3441 11.1581C20.453 11.2033 20.552 11.2694 20.6354 11.3528C20.7188 11.4362 20.7849 11.5352 20.83 11.6441C20.8752 11.753 20.8984 11.8698 20.8984 11.9877C20.8984 12.4844 20.4967 12.886 20.0009 12.886Z" fill="white"/>
<path d="M15.9949 18.485C17.377 18.485 18.4974 17.3646 18.4974 15.9825C18.4974 14.6004 17.377 13.48 15.9949 13.48C14.6128 13.48 13.4924 14.6004 13.4924 15.9825C13.4924 17.3646 14.6128 18.485 15.9949 18.485Z" fill="white"/>
</svg>
