<svg width="32" height="32" viewBox="0 0 32 32" fill="none" xmlns="http://www.w3.org/2000/svg">
<path d="M31.5 16C31.5 24.5604 24.5604 31.5 16 31.5C7.43956 31.5 0.499969 24.5604 0.499969 16C0.499969 7.4396 7.43957 0.5 16 0.5C24.5604 0.5 31.5 7.43959 31.5 16Z" stroke="white"/>
<path d="M12.125 9.52174C12.125 10.3739 11.4375 11.0435 10.5625 11.0435C9.6875 11.0435 9 10.3739 9 9.52174C9 8.66957 9.6875 8 10.5625 8C11.4375 8 12.125 8.66957 12.125 9.52174ZM12.125 12.2609H9V22H12.125V12.2609ZM17.125 12.2609H14V22H17.125V16.887C17.125 14.0261 20.875 13.7826 20.875 16.887V22H24V15.8522C24 11.0435 18.4375 11.2261 17.125 13.6V12.2609Z" fill="white"/>
</svg>
