<svg width="32" height="32" viewBox="0 0 32 32" fill="none" xmlns="http://www.w3.org/2000/svg">
<path d="M0.5 16C0.5 7.42943 7.42942 0.5 16 0.5C24.5706 0.5 31.5 7.42943 31.5 16C31.5 24.5706 24.5706 31.5 16 31.5C7.42942 31.5 0.5 24.5706 0.5 16Z" stroke="white"/>
<path d="M24.2462 10.8409C23.6317 11.1113 22.968 11.3079 22.2798 11.3817C22.9926 10.9638 23.5334 10.3001 23.7792 9.48897C23.1155 9.88225 22.3781 10.1526 21.6161 10.3247C21.0016 9.66103 20.1167 9.24316 19.1335 9.24316C17.2408 9.24316 15.7168 10.7671 15.7168 12.6598C15.7168 12.9302 15.7414 13.176 15.8151 13.4464C12.9884 13.2989 10.4566 11.947 8.78516 9.88226C8.49019 10.3984 8.31813 10.9638 8.31813 11.6029C8.31813 12.7827 8.93264 13.8397 9.84212 14.4542C9.27677 14.4296 8.76058 14.2821 8.29355 14.0363C8.29355 14.0609 8.29355 14.0609 8.29355 14.0855C8.29355 15.7324 9.47341 17.1089 11.022 17.4284C10.727 17.5022 10.432 17.5513 10.1125 17.5513C9.89127 17.5513 9.67005 17.5268 9.47341 17.5022C9.91586 18.8541 11.1695 19.8373 12.6689 19.8619C11.489 20.7714 10.0388 21.3121 8.44103 21.3121C8.17065 21.3121 7.90027 21.2876 7.62988 21.263C9.12929 22.2216 10.9237 22.787 12.8655 22.787C19.1335 22.787 22.5747 17.5759 22.5747 13.0777C22.5747 12.9302 22.5747 12.7827 22.5747 12.6353C23.2138 12.1436 23.8038 11.5291 24.2462 10.8409Z" fill="white"/>
</svg>
