<svg width="32" height="32" viewBox="0 0 32 32" fill="none" xmlns="http://www.w3.org/2000/svg">
<path d="M16 0.5C24.5604 0.5 31.5 7.43959 31.5 16C31.5 24.5604 24.5604 31.5 16 31.5C7.43959 31.5 0.500001 24.5604 0.5 16C0.5 7.43959 7.43959 0.5 16 0.5Z" stroke="white"/>
<path fill-rule="evenodd" clip-rule="evenodd" d="M23.8847 12.373C23.8847 11.0654 22.8193 10 21.5117 10H10.373C9.06544 10 8 11.0654 8 12.373V18.7414C8 20.049 9.06544 21.1145 10.373 21.1145H21.5117C22.8193 21.1145 23.8847 20.049 23.8847 18.7414V12.373ZM14.3442 18.2329V12.252L18.8723 15.2303L14.3442 18.2329Z" fill="white"/>
</svg>
