<?xml version="1.0" standalone="no"?>
<!DOCTYPE svg PUBLIC "-//W3C//DTD SVG 1.1//EN" "http://www.w3.org/Graphics/SVG/1.1/DTD/svg11.dtd" >
<svg xmlns="http://www.w3.org/2000/svg" xmlns:xlink="http://www.w3.org/1999/xlink" version="1.1">
<metadata>
Created by FontForge 20170731 at Tue Jan 22 17:15:53 2019
 By Aleksey,,,
(c)2018, Kotak Kuning Studio Co.
</metadata>
<defs>
<font id="AnthoniSignatureRegular" horiz-adv-x="0" >
  <font-face 
    font-family="Anthoni Signature"
    font-weight="400"
    font-stretch="normal"
    units-per-em="1000"
    panose-1="0 0 0 0 0 0 0 0 0 0"
    ascent="800"
    descent="-200"
    x-height="46"
    cap-height="1165"
    bbox="-456 -1340 3326.22 1413.8"
    underline-thickness="50"
    underline-position="-200"
    unicode-range="U+000A-FB06"
  />
<missing-glyph horiz-adv-x="527" 
d="M50 700h427v-700h-427v700zM78 680l185 -309l186 309h-371zM251 350l-180 300v-601zM264 329l-185 -308h370zM276 350l181 -303v605z" />
    <glyph glyph-name="ll.liga" unicode="ll" horiz-adv-x="599" 
d="M889 762q5 -17 0 -45q-4 -15 -11 -35q-20 -50 -66 -126q-32 -53 -76 -117q-75 -110 -166 -223q-47 -59 -89 -107q-59 -67 -92 -96q-48 -132 -71 -257q5 9 14 5q10 -4 6 -14q-12 -30 -20 -55q-5 -14 -9 -28q-5 -17 -7 -27q-2 -12 -14 -10q-11 2 -10 13q10 156 61 324
q-97 -88 -183 -130q-32 -15 -67 -24q-21 -6 -39 -5q-24 1 -42 13t-28 34q-9 19 -11 41q-3 32 5 75q13 57 46 134q26 57 63 124q66 118 146 235q44 63 82 111q27 34 45 54q31 32 52 49q9 7 17 12q5 3 11 5q10 4 17 3q20 -3 28.5 -17t7.5 -28q0 -17 -9 -40q-2 -5 -16 -32
q-32 -63 -70 -120q-60 -89 -166 -219q-33 -41 -89 -105q-58 -65 -96 -99q-16 -43 -23 -77q-9 -36 -7 -61q2 -30 20 -45q9 -7 22 -11t30 -4q25 0 63 16q60 27 115 70q47 36 89 82q28 86 66 174q122 279 287 479q56 68 98 103q19 15 33 21q6 3 12 5q4 1 9 0h5q4 -1 5 -2
q17 -6 22 -23zM448 653v1l2 -1h-1h-1zM62 83l-0.5 -1t-0.5 -2q24 23 65 66q35 38 89 103q91 111 162 220q20 31 36 58q21 38 29 61q6 13 9 31t1 28q0 3 -1 5q-1 -1 -4 -2q-5 -3 -11 -9q-19 -16 -46 -46q-26 -30 -43 -51q-41 -52 -81 -109q-84 -117 -144 -230
q-35 -66 -60 -122zM853 725q4 17 1 24v1q-1 -1 -2 -1q-10 -5 -25 -18q-38 -33 -91 -99q-68 -86 -155 -226q-73 -119 -130 -242q-23 -50 -43 -102q21 22 55 63q41 48 87 107q87 115 161 225q42 63 73 116q42 74 60 122q7 17 9 30z" />
    <glyph glyph-name="lt.liga" unicode="lt" horiz-adv-x="552" 
d="M1301 563q6 -1 9 -6t2 -11q-1 -3 -3.5 -6t-6 -4.5t-7.5 -0.5q-204 39 -564 22l-5 -7.5t-5 -8.5t-4.5 -8t-4.5 -8q-93 -165 -171 -322q-89 -180 -149 -333q-35 -90 -59 -172q-10 -37 -18 -70l3 7q6 13 19 7t8 -19l-48 -106q-6 -14 -20 -8q-9 5 -9 15q6 78 35 183
q23 83 58 175q59 155 147 337q62 130 138 269q-142 -210 -226 -326q-66 -91 -121 -159q-78 -96 -137 -149q-49 -44 -85 -60q-34 -14 -60 -6q-16 4 -28 17q-9 10 -16 25t-9 28q-3 13 -3 27q0 24 6 53q8 43 29 99q31 81 87 182q49 90 106 172q47 68 93 128q-240 -29 -293 -49
q-7 -2 -11 -2q-6 0 -10 4q-7 6 -4 15q3 11 61 34.5t76 26.5q6 1 10.5 -2.5t5.5 -9.5q1 -5 -2 -10q85 13 193 26h1q36 45 66 77q22 22 39 35q14 11 24 16q15 5 25 3q1 0 3 -1l2 -1q4 -2 5 -3q4 -3 9 -7q10 -14 10 -36q-1 -12 -5 -28q-4 -17 -14 -39q106 10 209 15l59 86
q26 38 49 69q16 25 27 44l26 39q19 27 29 39q6 7 15 7.5t15.5 -5.5t7.5 -15t-5 -15v-1h-1q-9 -10 -26 -35q-13 -19 -25 -37q-18 -28 -48 -77q-26 -41 -57 -96q355 15 553 -23zM402 603q-17 -18 -39 -45q34 3 72 7q0 1 1 3t2 3q11 26 16 45q3 12 3 20q0 10 -2 12h-1h-1
q-6 -3 -17 -12q-14 -12 -34 -33zM224 367q-45 -70 -72.5 -114t-62.5 -108.5t-58 -120.5q25 23 63 65q31 34 65 75q63 76 122 157q66 91 111 164q15 26 27 49q-40 -4 -82 -8q-56 -72 -113 -159zM398 179q85 115 229 326l34 49q-99 -6 -202 -16q-16 -31 -40 -69
q-46 -74 -115 -165q-61 -81 -126 -156q-35 -42 -67 -75q-44 -47 -72 -71q-8 -7 -15 1l-1 1q-15 -40 -23 -73q-12 -58 2 -87q10 -21 24 -26q15 -4 38 5q32 14 78 54q57 51 134 144q55 67 122 158z" />
    <glyph glyph-name="of.liga" unicode="of" horiz-adv-x="679" 
d="M691 7q7 -8 -1 -15q-81 -70 -213 -105q-56 -14 -117 -22q-15 -2 -29 -3q-3 -5 -9.5 -15t-10.5 -15q-1 -2 -2.5 -4t-2.5 -4l-2 -4t-2 -3q9 -23 12 -50q7 -60 -21 -126q-50 -120 -132 -212q-46 -51 -95 -84q-14 -10 -28 -17l-2 -1l-3 -2q-2 -1 -5 -2h-11q-8 1 -13 7
q-4 5 -6 11q-1 5 -1 10q1 8 4 21q7 22 25 59q40 83 117 217q60 102 116 192q-10 12 -22 18q-10 5 -5 15q3 6 10 6q19 0 43 1q28 42 58 86q-37 -10 -71 -16q-58 -9 -110 -10q-6 -9 -12 -19q-28 -40 -58 -65q-19 -16 -37 -26q-24 -14 -47 -16q-14 -1 -28 4q-16 6 -26 20
q-8 12 -11 29q-2 14 0 27q2 24 13 47q8 20 23 41q1 0 8 10q-4 5 -5 12q-4 11 -1 26q3 11 7 22q17 41 62 65q43 23 86 23q28 -1 46 -13q10 -8 16 -19q7 -13 8 -23q4 -19 0 -46q-4 -18 -14 -42q-7 -16 -17 -35q45 2 93 10q47 8 95 23q31 46 46 66q45 60 78 97q29 32 48 46
q11 7 19 10q11 3 20 0q10 -3 18 -12q7 -10 8 -25q1 -10 -1 -20q-2 -16 -11 -34q-8 -15 -18 -28q-20 -25 -46 -46q-40 -33 -106 -57q-37 -53 -72 -107q65 8 125 23q128 34 205 100q8 7 15 -1zM1 10q0 -1 1 -1q22 23 46 37q8 4 16.5 1.5t12.5 -10.5q5 -7 3 -15t-9 -13l-1 -1
q-15 -10 -32 -28q25 -10 64 -15q24 -2 50 -3q13 22 23 43q9 21 12 38q4 23 1 39q-1 7 -6 17q-5 7 -11 12q-14 10 -35 10q-38 -1 -76 -22q-18 -10 -32 -24t-21 -31q-9 -24 -6 -34zM134 -67q0 1 5 8q-21 1 -39 3q-47 5 -76 19l-6 -8q-26 -37 -30 -67q-3 -18 2 -26q4 -8 19 -11
q18 -3 36 2q17 6 34 19q28 23 55 61zM16 -636h1h-1zM263 -346q26 57 23 111q-1 10 -3 22q-60 -94 -100 -163q-78 -131 -118 -212q-8 -16 -12 -25q41 28 78.5 68.5t73.5 93.5q35 53 58 105zM557 176zM447 33q-2 -1 -3.5 -3.5l-3 -5t-3.5 -4.5q41 16 73 45q10 10 19 21.5
t15 24.5t9.5 26t4.5 25v4q-15 -11 -38 -37q-31 -36 -73 -96z" />
    <glyph glyph-name="oo.liga" unicode="oo" horiz-adv-x="893" 
d="M907 5q5 -10 -5 -15q-91 -46 -201 -67q-66 -13 -126 -14q-10 -20 -20 -35q-33 -51 -69 -82q-23 -20 -46 -33q-30 -17 -58 -16q-18 1 -34 10q-18 11 -25 29q-11 26 -7 64q7 51 43 105q1 2 2.5 4t2.5 3q-35 -13 -71 -21q-73 -16 -145 -11q-26 -39 -54 -64q-16 -15 -36 -28
q-25 -15 -46 -19q-18 -2 -28 0q-17 4 -29 16q-11 11 -16 29q-3 12 -2 28q2 25 12 50q8 19 24 42q4 5 9 12q-3 5 -5 9q-4 12 -1 27q8 47 51 77q37 27 85 33q26 4 47 -3q27 -7 37 -33q8 -18 6 -47q-1 -16 -3 -23q-3 -11 -7 -22q-12 -31 -31 -63q105 -5 201 33q-4 11 -4 23
q3 29 16 54q24 48 78 77q25 13 52 19q30 7 55 4q34 -4 51 -28q16 -21 18 -55q1 -28 -6 -55q-5 -22 -17 -50q-8 -18 -18 -38q53 2 110 13q106 21 195 66q10 5 15 -5zM-4 24q-2 -7 1 -15q21 22 46 37q8 4 16.5 1.5t12.5 -10.5q5 -7 3 -15t-9 -13l-1 -1q-17 -11 -35 -32
q5 -2 9 -4q33 -15 81 -22q8 -1 19 -2q23 36 35 69q9 23 10 40q1 24 -5 38q-8 17 -26 22q-16 6 -39 2q-42 -6 -75 -30q-36 -26 -43 -65zM80 -122q23 20 45 50h-4t-4 1q-51 7 -87 23q-6 4 -13 8q-1 -1 -2 -2.5t-2 -2.5l-2 -2q-25 -38 -28 -68q-3 -17 3 -25t24 -10t36 6
q15 6 34 22zM379 2q0 -6 2 -14q7 4 12 6l1 1q24 25 45 37q8 5 17 3t13 -10q4 -7 2.5 -15.5t-8.5 -13.5h-1q-21 -16 -43 -43q10 -5 22 -8q22 -7 50 -11q35 -4 74 -4q12 23 22 46q11 24 17 48t5 49q-1 28 -14 44q-13 18 -38 21q-43 5 -95 -22q-49 -26 -70 -68q-11 -22 -13 -46
zM471 -192q35 30 67 77q7 11 15 24q-35 0 -65 4q-29 4 -53 11q-16 5 -29 12q-4 -5 -7 -11q-31 -47 -37 -86q-5 -25 1 -40q3 -7 8 -11q5 -5 15 -8q19 -5 42.5 3t42.5 25z" />
    <glyph glyph-name="or.liga" unicode="or" horiz-adv-x="693" 
d="M706.5 10q9.5 -5 4.5 -14v-1q-30 -52 -78 -98q-52 -49 -99 -74q-31 -16 -59 -26q-39 -13 -69 -6q-21 4 -36 21q-13 14 -19 35q-5 18 -4 37q1 7 2 11q0 2 1 5l1 3q2 8 5 17q11 29 33 58q5 6 13 16t13.5 17t7.5 13q1 0 1.5 2t1.5 2v1q0 1 -2 4q-2 6 -16 20q-1 0 -1 1
q-50 -40 -136 -67q-51 -15 -107 -22q-12 -22 -25 -43q-28 -40 -58 -66q-20 -16 -37 -26q-24 -14 -47 -16q-14 -1 -28 4q-16 5 -26 19q-9 12 -12 29q-2 15 0 27q2 24 13 48q8 19 23 40q3 4 10 12q-3 3 -5 6q-3 7 -4 14q-1 6 1 14q2 12 6 22q16 41 61 66q43 24 86 25
q28 0 46 -12q21 -14 26 -41q4 -19 0 -46q-3 -18 -14 -42q0 -1 -4 -10q46 6 89 19q80 24 127 61q-17 20 -25 39q-7 18 -3 39q3 21 16 36q15 17 37 20q12 2 23 -2q10 -3 19 -12q13 -15 16 -36t-5 -37q-9 -21 -31 -38q14 -13 20 -24q8 -12 8 -25q0 -7 -3 -14q-3 -8 -4 -9
q-7 -14 -21.5 -33t-15.5 -20q-18 -24 -26 -48q-3 -7 -4 -13q-1 -1 -1 -2q-1 -3 -1 -4t-1 -5q0 -12 3 -23q4 -12 9 -18q6 -7 15 -11q21 -9 52 -6q26 4 55 18q25 12 51 31q25 18 46 38q47 45 71 95q5 10 14.5 5zM-11 23q-1 -8 2 -13q21 22 45 36q8 4 16.5 1.5t12.5 -10.5
q5 -7 3 -15t-9 -13l-1 -1q-11 -7 -24 -20q27 -6 66 -6q23 1 54 4q5 11 9 20q10 23 12 38q4 23 1 39q-4 20 -19 29q-13 9 -35 9q-38 -1 -76 -23q-39 -22 -52 -56q-3 -9 -5 -19zM122 -66q9 13 19 29q-22 -2 -41 -2q-48 0 -82 9q-7 -8 -13 -16q-25 -36 -29 -66q-1 -6 -1 -16
q1 -6 3 -10q4 -8 20 -11q18 -3 35.5 2.5t33.5 19.5q29 23 55 61zM407 161q-6 -7 -7.5 -19t2.5 -21q4 -11 20 -27q17 16 22 32q10 25 -8 41q-3 2 -6 3q-4 1 -8 0q-10 -1 -15 -9z" />
    <glyph glyph-name="ou.liga" unicode="ou" horiz-adv-x="813" 
d="M822 2q9 -6 3 -15l-1 -1q-16 -19 -66 -65q-25 -22 -72 -58q-41 -32 -76 -52q-49 -29 -86 -40q-30 -8 -53 -2l-7 2q-3 1 -9 5t-9 8q-4 7 -5 9q-5 14 -3 32q2 20 12 49q6 16 20 43q0 2 11 22q-37 -37 -71 -60q-17 -11 -31 -16q-11 -4 -21 -4h-7q-3 1 -7 3q-7 3 -12 9
q-9 9 -10 25q0 9 2 20q3 14 11 32q13 32 39 73q-51 -29 -110 -47q-48 -15 -94 -22q-12 -21 -25 -40q-28 -40 -58 -65q-20 -17 -38 -26q-24 -13 -47 -15q-14 0 -28 5q-16 7 -25 21q-13 22 -10 55q3 24 13 47q9 20 24 41l7 9q-6 9 -7 19q-1 6 0 13q2 7 3 12q3 12 8 21
q18 39 64 62q45 22 86 21q27 -2 44 -16q18 -15 22 -43q3 -20 -2 -45q-4 -17 -15 -41q0 -1 -5 -11q38 7 76 18q84 27 148 73q3 2 8 2q8 1 14 -4q8 -4 10 -13t-3 -16q0 -1 -1 -1q-47 -68 -64 -102q-7 -15 -9 -25q-3 -8 -2 -14v-1h1q4 0 9 2q10 3 24 12q40 24 94 75
q22 21 42 43q26 28 38 46v1q5 7 14 3q3 0 5 -2q6 -5 3 -13q-14 -29 -41.5 -83t-38.5 -79q-24 -51 -29 -78q-2 -9 -1 -14q0 -1 -1 -1h1l3 -2q15 -6 37 -3q36 5 82 30q34 18 75 48q30 21 70 57q16 14 33 31q21 22 29 33q6 9 15 3zM-3 6q0 -2 1 -5q22 23 46 37q8 4 16.5 2
t12.5 -10q5 -8 3 -16t-9 -13l-1 -1q-14 -9 -28 -24q23 -6 57 -7q31 -1 64 4q6 11 10 21q10 22 14 38q4 22 1 39q-3 21 -15 31t-33 11q-36 1 -76 -19q-40 -21 -55 -53q-4 -8 -6 -18q-1 -4 -2 -10q-1 -4 0 -7zM128 -77q8 12 17 26q-26 -2 -51 -2q-44 2 -72 11q-6 -7 -8 -11
q-25 -36 -30 -66q-3 -17 2 -26q2 -4 6 -7q4 -2 12 -5q17 -3 35 2q17 5 34 19q28 22 55 59z" />
    <glyph glyph-name="rr.liga" unicode="rr" horiz-adv-x="625" 
d="M633 10q10 -4 6 -14v0q-33 -69 -81 -139q-55 -80 -101 -125q-31 -31 -63 -52q-23 -15 -38 -21q-25 -9 -47 -6q-28 3 -46 24q-15 16 -23 43q-5 22 -5 45q0 14 2 24q0 1 2 9l3 12q12 43 34 78q6 10 21 32.5t20 32.5q4 8 6 15q1 4 0 9q-2 9 -17 27q-1 2 -4 6
q-21 -23 -72 -82t-81 -90q-21 -21 -47 -44q-36 -29 -55 -39q-20 -9 -37 -11q-23 -1 -42 10q-17 10 -28 33q-7 17 -9 38q0 12 1 21l1 5l1 5l3 8q7 22 16 34q10 16 25 28q4 4 12.5 10.5t11.5 8.5q3 3 6 8l1 3l0.5 0.5l0.5 0.5q2 2 -10 15l-13 13t-17.5 19t-13.5 20
q-10 19 -9 40q0 22 11 39q12 20 34 26q26 8 45 -8q17 -14 21 -35.5t-3 -39.5q-9 -23 -32 -40q5 -6 6 -7q8 -8 13 -15q8 -13 8 -25q1 -7 -1 -15q-2 -5 -5 -11q-6 -10 -13 -17q-6 -6 -14.5 -12.5t-11.5 -9.5q-10 -9 -16 -19q-6 -8 -11 -24l-2 -6l-1 -4v-2q-1 -4 -1 -11
q3 -27 18 -39.5t43 -4.5q26 7 53 28q18 13 47 41q15 15 30.5 31t33.5 37t28 32.5t32.5 38.5t28.5 34q-20 26 -29 48q-9 23 -7 47q2 26 12 45q14 27 38 35q15 5 29 1q15 -3 24 -15q17 -19 19 -45q2 -22 -7 -45q-10 -29 -38 -58l8 -10q20 -24 25 -41q4 -15 1 -30
q-3 -11 -9 -22q-8 -16 -23 -38.5t-19 -30.5q-19 -31 -29 -68q-1 -4 -2.5 -10.5t-1.5 -7.5q-1 -7 -1 -16q0 -16 4 -33t13 -28q8 -11 21 -15q26 -8 65 12q28 14 62 46q56 53 100 120q48 70 76 137q4 10 14 6zM-17 63q0 -11 6 -21q5 -8 17 -20q18 16 23 33q3 12 0 24t-11 17
q-6 5 -16 1.5t-14 -12.5q-5 -9 -5 -22zM295 151q-6 -13 -7 -32q0 -16 6 -31q6 -14 20 -31q7 9 12 16q11 17 16 33q12 38 -10 59q-4 4 -9 5q-4 2 -10 0q-11 -5 -18 -19z" />
    <glyph glyph-name="rs.liga" unicode="rs" horiz-adv-x="598" 
d="M609.5 8.5q8.5 -6.5 1.5 -14.5v-1q-47 -54 -140 -92q-41 -16 -142 -46q5 -24 3 -46q-3 -51 -30 -89q-15 -21 -36.5 -34t-47.5 -17q-5 -1 -12 -1h-13q-14 1 -27 7q-27 12 -40 37q-6 14 -7 27q0 17 4 27q7 23 28 40q14 11 38 23q16 8 39 16q20 7 50 16q-3 12 -6 22
q-3 8 -8 23q-33 -28 -72 -56q-54 -38 -113 -65q-39 -16 -69 -17q-11 0 -20 2t-19 8q-11 6 -19 15q-7 9 -11 22q-5 20 4 44q4 13 15 32q4 8 10 18t12 19.5t10 17.5q9 15 12 24q-1 3 -6 7q-4 3 -14.5 10.5t-19.5 16t-17 17.5q-14 19 -13 42q1 22 11 39q12 20 34 27q25 8 45 -7
q17 -14 21.5 -36t-3.5 -39q-7 -19 -24 -35q4 -3 6 -5q11 -8 15 -17q10 -15 4 -31q-4 -13 -14 -33q-6 -11 -17 -30t-15 -26q-8 -15 -12 -26t-2 -18t9 -12l10 -6q3 -1 11 -3q22 -3 57 6q44 12 111 55q41 26 77 58q-8 23 -12 40q-12 47 -4 90q9 57 50 84q26 16 52 13
q15 -2 28 -9q12 -7 21 -21q13 -22 8 -52q-6 -24 -21 -42q-2 -2 -4 -3q-32 -43 -74 -83q2 -6 7 -20.5t8 -22.5q4 -11 8 -25q88 23 139 44q87 35 130 90q7 8 15.5 1.5zM-30 62q1 -9 7 -18q6 -7 20 -17l1 -1q14 15 18 29q4 12 0 24q-3 12 -11 17q-7 4 -16 1t-14 -13
q-5 -8 -5 -22zM286 47q-4 -33 6 -72q1 -6 4 -15q38 38 63 77q0 1 1 3q9 18 9 34q0 17 -8 27q-7 9 -20 9t-25 -8q-25 -17 -30 -55zM211 -286q32 4 51.5 32.5t22.5 65.5q0 13 -3 30q-28 -9 -47 -16q-22 -8 -36 -16q-20 -10 -30 -22q-12 -13 -13 -29.5t7 -26.5q8 -11 21 -17
q6 -2 12 -3l7 1q5 0 8 1z" />
    <glyph glyph-name="th.liga" unicode="th" horiz-adv-x="733" 
d="M1106 602q6 -1 10 -5.5t3 -10.5t-5.5 -9.5t-10.5 -3.5q-104 12 -286 10q-5 -11 -11 -25q-40 -78 -123 -192q-68 -94 -138 -179q-99 -119 -153 -169l-4 -2q-21 -39 -40 -74q41 56 74 86q14 13 27 19q10 4 20 5q5 0 11 -1q7 -1 10 -2q11 -4 20 -12q10 -9 11 -24
q2 -17 -6 -39q-10 -22 -31 -53q-4 -6 -10 -15.5t-11.5 -17t-9.5 -14.5q-8 -14 -11 -22q-5 -10 -4 -15v-2q1 -1 5 -3q8 -5 20 -5q23 -1 51 9q20 8 49 26q45 28 91 68q28 24 42 38q11 11 20 21q12 13 16 20v1q6 9 15.5 4t3.5 -15v-1q-4 -5 -21 -23q-10 -10 -21 -20
q-29 -27 -43 -39q-51 -43 -92 -71q-23 -15 -50 -30q-36 -19 -58 -23q-21 -4 -38 2q-11 3 -19 11q-10 9 -13 22q-4 18 3 41q6 14 14 30q12 19 33 49q1 2 6 9t7 9.5t5.5 8t5.5 10t4 8.5q6 11 6 16v1v1t-4 3q-1 1 -3 2h-1q-2 1 -3 1q-3 1 -8 0q-10 -3 -22 -10q-34 -21 -78 -79
q-39 -54 -59 -96l-1 -1q-1 -4 -5 -5q-9 -16 -25 -11q-9 3 -13 10.5t-2 16.5q5 20 21 56q5 14 14 31q-33 -36 -62 -64q-93 -86 -171 -125q-28 -14 -51 -21q-32 -10 -59 -4q-19 4 -30 19q-10 12 -14 32q-6 28 2 59l7 27q1 4 2.5 8.5t3.5 9.5t3 8l9 25l10 25q10 24 44 96
q92 190 201 370q50 82 104 163q-301 -26 -364 -49q-7 -3 -11 -3q-5 0 -9 4q-7 6 -4 15q3 11 60.5 35t76.5 26q5 1 10 -2.5t6 -9.5q1 -8 -5 -13q108 14 261 27l19 28q6 8 18.5 24.5t13.5 17.5q35 47 71 82q7 6 16 6t15 -6.5t6 -15t-6 -14.5l-1 -2q-31 -31 -65 -77
q-2 -3 -12 -17t-16 -21q174 13 334 18q1 2 6 8t7 10q23 28 39 44q15 14 26 21q6 3 11 5q2 1 7 1q4 1 5 1q3 -1 6 -1q3 -1 8 -4q3 -2 5 -4q5 -4 8 -10q5 -10 4 -21q0 -3 -0.5 -6t-0.5 -6.5v-4.5q-2 -13 -7 -30q176 2 278 -10zM787 640q-10 -11 -25 -29q24 0 44 1v2q1 3 2 4
q4 15 5 25q1 6 -2 11t-6 5q-2 0 -3 -1h-1q0 -1 1 -1q2 -1 4 -1h1l-2 -1q-7 -4 -18 -15zM352 51q45 83 112 197q61 102 121 193q57 87 96 139q-161 -6 -331 -19l-12 -17q-74 -114 -111 -176q-117 -196 -202 -365q-34 -71 -43 -94l-10 -23l-9 -24q-6 -13 -16 -47
q-18 -62 10 -72q21 -6 44 -1q19 4 48 16q82 40 167 119q61 58 111 126q12 23 25 48zM787 567q3 7 7 16q-28 -1 -55 -1q-48 -64 -114 -167q-56 -88 -119 -192q-37 -63 -86 -150q16 16 38 40q44 47 74 84q78 95 138 179q79 114 117 191z" />
    <glyph glyph-name="tl.liga" unicode="tl" horiz-adv-x="550" 
d="M1095 573q6 -1 10 -5.5t3 -10.5t-5.5 -9.5t-10.5 -3.5q-111 13 -308 10l-4 -7t-6 -10q-32 -54 -76 -117q-76 -110 -166 -224q-47 -58 -89 -107q-53 -60 -84 -88q1 -4 -1 -7h-1q-2 -3 -6 -8.5t-6 -7.5q-44 -124 -65 -242q4 9 13 5q10 -4 6 -14q-11 -30 -20 -55
q-5 -14 -9 -28q-5 -17 -7 -27q-2 -12 -14 -10q-10 2 -10 13q10 141 52 292q-36 -41 -73 -77q-93 -86 -171 -125q-28 -14 -51 -21q-32 -10 -59 -4q-19 4 -30 19q-10 13 -14 32q-6 28 2 59l7 27q1 4 2.5 8.5t3.5 9.5t3 8l9 25l10 25q10 24 44 96q92 191 201 370q49 82 104 163
q-136 -12 -235 -25t-129 -24q-7 -3 -11 -3q-5 0 -9 4q-7 7 -4 15q2 8 32.5 22.5t62.5 26t41 13.5q4 0 8 -1.5t6 -4.5t3 -7q1 -8 -5 -13q108 14 261 27l19 28q6 8 18 24.5t14 18.5q35 46 71 81q7 7 16 6.5t15 -7t6 -15t-6 -14.5l-1 -2q-31 -31 -65 -77q-2 -3 -12 -17t-16 -21
q132 10 260 15q24 34 47 61q57 68 98 103q19 15 33 22q6 3 12 4q4 1 9 1q3 -1 6 -1q3 -1 5 -2q16 -6 21.5 -23t-0.5 -44q-3 -16 -11 -36q-14 -35 -38 -79q187 2 294 -10zM697 612q-4 -6 -25 -32q47 1 89 2q30 53 45 93q6 18 9 30q4 18 1 24l-1 1q-1 -1 -2 -1q-10 -5 -24 -18
q-39 -33 -92 -99zM205 -152q54 52 99 110q31 98 75 201q96 218 218 389q-127 -6 -258 -16l-12 -17q-74 -114 -111 -176q-117 -196 -202 -365q-34 -71 -43 -94l-10 -23l-9 -24q-6 -13 -16 -47q-18 -62 10 -72q21 -6 44 -1q19 4 48 16q82 40 167 119zM672 437q42 63 73 116
q-46 -1 -94 -3q-49 -68 -109 -164q-73 -118 -129 -242q-23 -50 -44 -102q21 22 56 63q40 48 86 108q88 114 161 224z" />
    <glyph glyph-name="tt.liga" unicode="tt" horiz-adv-x="482" 
d="M1091 573q6 -1 10 -5.5t3 -10.5q0 -4 -2.5 -7t-6 -4.5t-7.5 -1.5q-148 17 -438 6q-22 -38 -42 -71q-93 -165 -171 -322q-89 -180 -149 -333q-35 -91 -58 -172q-11 -38 -18 -70l3 6q6 14 19 8t7 -20l-48 -105q-6 -14 -19 -8q-10 4 -9 15q5 78 34 183q23 82 58 175
q59 155 147 337q61 125 133 258q-67 -100 -112 -165q-105 -154 -183 -261q-53 -72 -96 -128q-60 -76 -103 -123q-37 -39 -61 -55q-10 -8 -20 -12q-7 -3 -13 -3q-6 -2 -15 0q-15 2 -26 12q-10 9 -15 23q-8 21 -6 47q0 11 2 22q4 17 5 21q7 28 27 78q48 113 141 288
q72 132 162 275q22 35 51 77q-137 -12 -235.5 -25t-128.5 -24q-7 -3 -11 -3q-5 0 -9 4q-7 7 -4 15q1 4 10.5 10t23 12.5t29.5 13.5t31 12t26.5 9t15.5 5q4 0 8 -1.5t6 -4.5t3 -7q1 -8 -5 -13q108 14 261 27l8 12t10 14q26 36 49 65q31 39 55 61q7 6 16 6t15 -6.5t5.5 -15.5
t-6.5 -15v-1q-22 -20 -50 -57q-19 -25 -43 -58q131 10 257 15q19 28 55 83q29 49 47 76q11 18 25 39q20 27 30 39q5 6 14 7t16 -5t7.5 -15t-5.5 -16v-1q-9 -10 -26 -34q-14 -20 -25 -37q-18 -28 -49 -77q-10 -16 -34 -56q280 10 424 -7zM410 276q74 108 178 264l5 8
q-128 -6 -258 -16q-32 -47 -70 -107q-72 -115 -161 -273q-94 -171 -142 -282q-17 -40 -27 -72q-7 -24 -8 -35q-3 -21 0 -32q4 -13 14 -17q6 -3 25 9q25 16 59 49q73 74 200 245q83 111 185 259z" />
    <glyph glyph-name="ut.liga" unicode="ut" horiz-adv-x="561" 
d="M973 482q6 -1 9.5 -6t2.5 -10.5t-6 -9t-11 -2.5q-110 21 -270 26q0 -1 -1 -1q-93 -165 -171 -322q-89 -180 -149 -333q-35 -91 -58 -172q-11 -38 -18 -70l3 6q6 14 19 8t7 -19l-48 -106q-6 -14 -19 -8q-10 4 -9 15q5 78 34 183q23 83 58 175q54 143 135 312
q-45 -70 -79 -119q-76 -107 -132 -168q-49 -51 -85 -72q-16 -8 -29 -11q-19 -5 -35 0q-9 3 -17 9l-0.5 0.5l-1.5 1.5l-3 3q-3 3 -5 7q-2 5 -3 12q-1 12 4 33q7 24 39 100q13 31 16 45q-2 -1 -3 -1q-16 -7 -42 -25q-22 -16 -42 -31l-42 -33q-16 -11 -23 -15q-9 -6 -13 -7
q-5 -2 -8 -3q-9 -1 -14 1l-1 1l-1 -1q-9 1 -14.5 6.5t-5.5 13.5q1 20 11 47q7 21 17 40t21 38q11 20 22 36q5 8 14 9.5t16.5 -3.5t9 -13.5t-3.5 -16.5v-1q-11 -15 -22 -33q-11 -17 -20 -35q-10 -17 -17 -35q-4 -11 -7 -20q13 9 20 15l40 35q28 23 42 34q29 21 47 30
q9 4 16 6q6 2 10 2q8 1 14 -2q11 -3 16 -13q3 -6 3 -14q1 -9 -1 -19q-4 -17 -19 -53q-2 -5 -18 -41t-22 -54q-4 -13 -3 -20q2 -2 5 -2q13 -6 37 7q32 18 78 64q57 59 132 162q97 133 204 307q34 64 70 129q-277 4 -601.5 -31.5t-390.5 -60.5q-7 -2 -11 -2q-5 0 -9 4
q-7 6 -4 15q3 11 60.5 34.5t76.5 26.5q5 1 10 -2.5t6 -9.5q1 -5 -2 -10q175 28 421.5 48t458.5 16q46 81 86 148q31 51 49 79q11 18 25 39q20 27 30 39q5 6 14 7t16 -5t7.5 -15t-5.5 -16v-1q-9 -10 -26 -34q-14 -20 -25 -37q-18 -28 -49 -77q-34 -56 -76 -128
q155 -6 259 -26zM160 -8zM125 -185z" />
    <glyph glyph-name="uu.liga" unicode="uu" horiz-adv-x="857" 
d="M864.5 9.5q8.5 -6.5 2.5 -14.5v-1q-10 -12 -34 -32q-14 -11 -35 -27q-27 -20 -73 -48q-41 -26 -79 -41q-53 -23 -88 -26q-14 -1 -25 1q-8 1 -13 3q-10 2 -17 9q-11 12 -13 33q0 11 3 27q7 33 33 85q1 3 4 8t4 7q-38 -37 -72 -60q-17 -11 -30 -16q-11 -4 -21 -4q-5 0 -7 1
q-4 1 -7 2q-8 3 -13 9q-8 10 -9 25q-1 10 2 20q1 7 4 16q-22 -24 -42 -44q-84 -87 -155 -135q-28 -19 -48 -26q-17 -6 -30 -6q-9 0 -17 1l-9 3q-6 3 -10 7q-9 7 -12 20q-3 8 -3 18q0 13 4 30q7 24 19 50q9 20 21 42q-38 -37 -71 -59q-18 -11 -31 -16q-11 -4 -21 -4h-7
q-4 1 -7 2q-7 4 -12 9q-9 10 -10 25q0 10 2 20q3 15 11 33q16 37 62 110v1q5 7 14 9t16.5 -3t9.5 -13.5t-3 -16.5l-1 -1q-47 -67 -64 -101q-7 -15 -9 -26q-3 -8 -2 -14v0h1q4 0 9 2q10 3 24 11q40 25 94 75q22 22 42 44q26 28 38 46q5 8 13 4q3 0 5 -2q7 -5 4 -13
q-14 -30 -44.5 -90t-44.5 -91q-12 -30 -17 -45q-4 -12 -4 -20q-1 -2 -1 -5t0.5 -3.5t-0.5 -0.5v-1h1l2 -1q3 -1 8 -2q9 0 21 2q20 5 44 18q35 19 81 58q35 29 74 68q45 46 82 88q13 24 42 70q5 8 14 10t16.5 -3t9.5 -14t-3 -16q0 -1 -1 -1q-47 -68 -64 -102q-7 -14 -10 -25
q-2 -8 -1 -14v0h1q4 -1 9 1q10 3 24 12q40 24 94 75q22 21 42 43q25 28 37 47h1q5 8 13 4q3 -1 5 -2q7 -6 4 -13q-14 -30 -40.5 -82t-36.5 -74q-22 -46 -31 -76q-2 -8 -3 -16v-6v-2l10 -4q8 -3 18 -4q34 -2 80 15q36 14 77 37q32 18 72 47q18 13 34 27q21 19 28 29v1
q7 9 15.5 2.5z" />
    <glyph glyph-name="aa.liga" unicode="aa" horiz-adv-x="870" 
d="M879.5 9q8.5 -7 1.5 -16h-1q-55 -57 -107 -91q-31 -21 -63 -34q-40 -16 -71 -17q-23 -1 -41 7q-24 10 -34 32q-5 11 -6 24q0 11 2 22q3 15 12 37l4 8q-28 -21 -64 -40q-19 -11 -34 -17q-26 -10 -43 -9q-18 2 -29 14t-12 30q1 23 9 44q7 15 17 31q-22 -19 -54 -50l-70 -69
q-54 -53 -72 -69q-24 -21 -44 -31q-15 -8 -29 -10q-19 -2 -35 8q-7 5 -14 12q-7 8 -9 21q-2 15 2 33q6 22 21 50q10 19 24 41q-25 -17 -47 -29q-20 -11 -35 -17q-25 -10 -43 -9q-18 2 -29 14t-11 30q0 23 9 44q14 34 44 66q27 29 60 50q20 12 36 17q23 9 44 7q13 -2 23 -10
q11 -8 15 -22q5 -19 -5 -43q-4 -10 -14 -6q-9 3 -7 12v1q5 18 0 27q-3 9 -16 10q-15 -2 -27 -8q-11 -5 -28 -17q-63 -46 -85 -100q-4 -9 -6 -27v-3v-1l3 -2q10 -3 29 0q15 2 33 9q30 11 62 33q19 13 32 26q31 40 60 68q10 10 20 0q9 -9 2 -19l-1 -1q-19 -27 -54 -80
q-32 -49 -50 -82q-13 -25 -18 -41q-3 -11 -3 -15v-2q2 -4 4 -5q5 -4 12 -4t18 4q17 7 39 23q24 16 47.5 37t54 50.5t44.5 42.5q32 30 51 46.5t49 39t58 37.5q1 0 3 1q17 10 30 14q23 9 44 7q13 -2 24 -10t14 -22q6 -19 -5 -43q-4 -10 -14 -6q-9 3 -6 12v1q4 18 0 27t-17 10
q-15 -2 -26 -8q-11 -5 -29 -17q-62 -46 -84 -100q-4 -9 -7 -27q0 -2 1 -3l-1 -1l3 -2q11 -3 29 0q16 2 33 9q31 11 63 33q25 18 40 34q0 1 1 2l3 4q23 32 47 54q11 10 20 -1q8 -8 2 -18l-1 -1q-14 -22 -35 -56q-19 -33 -30 -58q-16 -37 -12 -51q3 -10 13 -17q11 -6 27 -8
q26 -4 63 8q30 11 60 30q55 34 101 89q7 9 15.5 2z" />
    <glyph glyph-name="an.liga" unicode="an" horiz-adv-x="860" 
d="M875.5 18.5q6.5 -8.5 -2.5 -15.5q-86 -58 -158 -96q-53 -27 -86 -37q-28 -8 -50 -8q-16 1 -28 6q-2 1 -7 4q-6 3 -10 9q-6 9 -5 23q2 11 9 27q4 9 12 22q3 6 10.5 17.5t11.5 17.5l-3 -1q-8 -4 -18 -11q-19 -12 -73 -52q-26 -20 -37 -28q-13 -10 -20 -13q-6 -4 -11 -6
q-5 -1 -8 -2q-7 -1 -12 1q-3 -1 -5 0q-8 1 -12.5 6.5t-4.5 13.5q1 17 8 36q3 9 12 29q9 21 28 54q5 9 20 35q-30 -29 -59 -55q-63 -58 -127 -103q-21 -15 -36 -23q-26 -13 -45 -14q-20 -2 -33 12q-11 12 -13 30q-1 13 3 27q3 12 7 22q1 1 6 11q-24 -16 -46 -28
q-20 -11 -35 -17q-25 -9 -43 -8t-29 13t-11 30q0 23 9 44q14 34 44 67q27 29 60 49q20 12 36 18q23 9 44 7q13 -3 23 -11q11 -8 15 -22q5 -18 -5 -43q-4 -10 -14 -6q-9 4 -7 13q5 18 0 28q-3 9 -16 9q-15 -1 -27 -8q-11 -5 -28 -16q-63 -47 -85 -101q-4 -9 -6 -27v-3v-1
l3 -2q10 -3 29 0q15 3 33 9q31 12 62 34q10 6 19 14q8 11 15 19q26 33 58 60q11 10 20 -1q8 -9 1 -18q-28 -38 -46 -65q-29 -42 -39 -65q-8 -18 -9 -30q0 -2 1 -5v-1l4 -2q11 -1 32 7q17 6 35 16q51 28 129 95q63 56 113 114q4 5 10 4q10 5 20 -2q8 -5 9.5 -13.5t-2.5 -16.5
h-1q-34 -51 -63 -100q-18 -32 -27 -51q-8 -18 -11 -26q-2 -3 -3 -9q9 7 13 11q10 8 35 29q47 41 72 58q12 8 21 13q15 8 27 10q5 1 9 1q6 0 11 -2q10 -2 15 -10q5 -7 5 -17q0 -8 -4 -18l-6 -12q-7 -12 -25 -40q-7 -10 -11 -18q-5 -9 -7 -14h1q5 -3 15 -5q18 -1 41 4
q38 8 83 29q84 39 155 93q9 6 15.5 -2.5z" />
    <glyph glyph-name="at.liga" unicode="at" horiz-adv-x="562" 
d="M1212 483q6 -1 9.5 -6t2.5 -11q-1 -3 -3.5 -6t-6 -4.5t-7.5 -0.5q-182 35 -492 25q-94 -165 -172 -323q-89 -180 -148 -332q-36 -91 -59 -172q-11 -38 -18 -70l3 6q6 13 19 7t7 -19l-47 -106q-7 -13 -20 -7q-10 4 -9 15q6 78 34 182q24 83 58 175q59 155 147 338
q30 62 69 137q-79 -120 -135 -202q-56 -81 -108 -151q-33 -42 -59 -73q-39 -44 -68 -67q-27 -19 -48 -25q-18 -4 -34 1q-8 3 -15 10q-1 1 -7 6q-4 4 -6 9q-6 14 -4 34q1 12 6 27q6 17 20 45q11 19 23 39q-27 -19 -55 -35q-20 -10 -35 -17q-26 -9 -43 -8q-18 1 -29 13t-11 30
q0 23 9 44q14 34 44 67q27 29 60 49q20 12 35 18q24 9 44 7q13 -3 24 -10q11 -9 15 -22q5 -19 -6 -44q-4 -10 -14 -6q-8 4 -6 13q4 18 0 28q-4 9 -17 9q-14 -1 -26 -8q-11 -5 -28 -16q-63 -47 -85 -101q-4 -9 -6 -27v-3h-1l3 -3q11 -3 29 0q16 3 34 9q30 12 62 34
q36 25 51 47q0 1 1 1v1l7 8q23 28 32 36q10 11 21 0q8 -8 1 -18l-1 -1q-15 -24 -24 -37l-24 -39q-37 -61 -46 -78q-9 -18 -17 -40q-4 -9 -6 -18q-1 -7 0 -11l-1 -1q1 0 1.5 -0.5t0.5 -1.5q3 -2 4 -2q5 -2 12 -1q14 3 34 17q28 20 66 60q27 28 61 69q44 53 112 146
q87 122 207 306l33 50q-242 -10 -479 -40t-287 -48q-7 -2 -11 -2q-5 0 -9 4q-7 6 -4 15q3 11 60.5 34.5t76.5 26.5q5 1 10 -2.5t6 -9.5t-2 -10q306 48 657 61q46 83 88 151q30 50 48 79q12 18 26 38q19 28 29 39q6 7 14.5 8t15.5 -5t7.5 -15t-4.5 -16h-1v-1q-9 -10 -26 -34
q-14 -20 -25 -37q-18 -28 -49 -77q-34 -56 -75 -128q304 8 480 -26z" />
    <glyph glyph-name="mm.liga" unicode="mm" horiz-adv-x="1209" 
d="M1220.5 5.5q6.5 -8.5 -2.5 -15.5v0q-78 -52 -153 -89q-51 -25 -84 -34q-27 -7 -47 -6q-15 0 -27 5q-4 2 -7 3l-3 2q-3 2 -5 3q-10 9 -10 22q-1 11 6 29q3 8 10 22q14 28 17 36q1 3 1 7q-1 1 -3 1q-7 3 -29 -6q-38 -15 -70 -45q-36 -31 -60 -62q-3 -3 -7 -4q-8 -6 -16 -1
q-10 6 -6 17q6 15 26.5 59t27.5 67q5 17 4 26q0 3 -2 4q0 1 -2 2h-1q-6 2 -22 -7q-10 -6 -27 -18q-49 -37 -100 -92q-20 -22 -44 -54q-28 -37 -38 -56v-1q-1 -2 -4 -4q-8 -14 -23 -9q-8 2 -11.5 9t-1.5 15q10 31 32 78q16 37 36 75q22 43 53 100q-8 -7 -23 -20.5t-21 -19.5
q-44 -38 -75 -65q-42 -35 -78 -62q-24 -17 -43 -28q-28 -17 -49 -22q-17 -5 -31 -3q-10 2 -18 6q-12 7 -15 21q-3 13 2 34q2 10 9 25q2 5 5.5 13.5t6 15t3.5 12.5q-1 -1 -3 -1q-19 -5 -41 -17t-41 -27q-45 -36 -69 -68q-3 -3 -8 -4q-7 -6 -15 -1q-11 6 -6 17q7 19 27.5 61
t27.5 64q6 17 5 25l-2 4q-1 1 -2 1h-1q-7 2 -23 -7q-10 -6 -27 -17q-50 -37 -101 -92q-20 -22 -45 -52q-28 -37 -37 -56v-1q-1 -2 -5 -4q-7 -14 -22 -9q-8 2 -11.5 9.5t-1.5 14.5q13 45 44 101q12 23 27 47q16 25 30 45q5 7 14 8.5t16.5 -3.5t9 -14t-3.5 -16l-1 -1
q-14 -19 -29 -42q-13 -20 -25 -41q10 13 23 29q61 74 97 104q14 13 30 23q9 5 18 9q13 5 25 4q9 0 15.5 -3.5t12.5 -8.5q11 -10 13 -26q2 -17 -6 -44q-8 -20 -29 -59q17 17 21 20q31 28 38 34q26 22 46 29q10 3 16 4q12 1 21 -2t14 -10q5 -6 6 -15t-2 -20q-3 -12 -20 -48
q-6 -13 -8 -21q-4 -10 -3 -14q1 -1 4 -1q6 -2 17 0q32 8 84 40q34 21 80 57q34 27 75 63l37 33q32 29 38 34q3 3 8 2q4 8 12.5 10.5t16.5 -2t10.5 -13t-2.5 -16.5v-1q-42 -72 -79 -141q-14 -26 -29 -58q13 17 30 38q61 75 95 106q15 13 31 23q9 5 18 9q14 5 26 4q8 0 15 -5
q7 -4 12 -8q11 -11 13 -27q2 -17 -6 -43q-7 -22 -27 -59q1 1 3 3.5t4 4t4 3.5l19 19t26 24t23 17t23 12q7 2 14 3h9q5 -1 8 -1q10 -3 17 -7q10 -6 15 -17q3 -10 2 -20q-1 -7 -3 -15q-4 -12 -21 -42q-7 -12 -10 -18q-3 -7 -4 -12q1 0 2 -1q7 -3 16 -4q17 -2 39 3q37 7 80 25
q83 36 150 85v1q9 6 15.5 -2.5zM916 -100v1v-1z" />
    <glyph glyph-name="nn.liga" unicode="nn" horiz-adv-x="835" 
d="M852 6.5q7 -8.5 -2 -14.5v-1q-112 -79 -163 -111q-54 -33 -88 -47q-29 -12 -51 -15q-17 -2 -30 0q-9 2 -16 6q-6 3 -10 8q-5 6 -6 13q-2 9 1 21q1 6 5 14q4 10 12 24q4 7 12 19.5t11 17.5q-11 -5 -26 -15q-24 -16 -78 -58l-39 -30l-20 -15q-8 -5 -11 -7q-5 -2 -8 -3
q-7 -2 -12 -1q-3 -1 -6 0q-7 1 -12 7t-4 13q1 18 9 37q4 10 14 29q10 20 31 55q15 23 33 49q-69 -53 -105 -78q-51 -34 -84 -52q-26 -13 -47 -20q-14 -4 -27 -6q-18 -1 -32 4q-3 1 -8 4q-6 4 -10 10q-6 10 -5 24q2 11 10 28q7 14 26 43q6 10 7 12q-7 -3 -13 -6
q-24 -13 -78 -53l-39 -29q-12 -9 -21 -14q-7 -5 -12 -7q-3 -2 -7 -3q-7 -2 -12 0q-2 -1 -3 -1q-8 1 -13.5 7t-5.5 14q1 21 15 51q9 20 23 41q12 19 26 39q15 19 29 36q5 7 14 8t16 -4.5t8 -14.5t-5 -16v-1h-1q-13 -15 -27 -34q-14 -17 -26 -35q-12 -19 -21 -37
q-8 -13 -11 -25h1q7 5 18 14q15 12 37 32q52 46 77 62q13 9 24 13q9 4 16 5q6 1 11 0q8 -1 14 -5q10 -6 11 -18q1 -6 0 -13q-2 -7 -6 -16q-5 -11 -13 -23q-2 -4 -11.5 -18t-13.5 -21q-6 -11 -8 -17q12 -5 37 1q19 5 43 15q38 17 84 45q71 45 156 115q2 1 5 2q13 8 25 -1
q7 -6 8.5 -14.5t-4.5 -16.5v0q-39 -50 -70 -98q-21 -32 -31 -50l-13 -26l-4 -12q8 5 18 14l36 32q52 48 75 66q29 21 47 28q10 3 20 2q9 -1 15 -5q9 -6 10 -18q1 -9 -3 -22q-2 -6 -6 -13t-27 -43q-7 -11 -11 -19q-3 -4 -5 -10q3 -2 5 -2q7 -2 18 -1q19 1 44 9q40 14 87 40
q81 45 162 109q8 6 15 -2.5zM137 -25zM542 -54h1h-1zM519 -145z" />
    <glyph glyph-name="ot.liga" unicode="ot" horiz-adv-x="536" 
d="M973 510q6 -1 9.5 -6t2.5 -11t-6 -9.5t-11 -2.5q-110 21 -270 26q0 -1 -1 -1q-93 -165 -171 -322q-89 -180 -149 -333q-35 -90 -58 -172q-11 -37 -18 -70l3 7q6 13 19 7t7 -19l-48 -106q-6 -14 -19 -8q-10 5 -9 15q5 78 34 183q23 83 58 175q59 155 147 337q44 92 98 194
q-20 -27 -35 -46q-96 -119 -180 -198q-54 -51 -103 -87q-48 -33 -89 -51q-17 -32 -39 -60q-24 -30 -48 -50q-37 -28 -65 -35q-24 -6 -43 1q-12 5 -21 14.5t-13 22.5q-6 18 -3 43q3 19 10 37q11 27 33 55q0 1 -0.5 2.5t-1.5 1.5q-4 10 -4 20q0 5 1 10l0.5 3.5t0.5 5.5
q8 36 37 62q25 22 60 35q40 13 70 9q22 -3 36 -14q15 -12 20 -33q4 -15 3 -36q-1 -18 -7 -35q-5 -12 -11 -28q29 15 61 38q49 35 102 84q82 78 177 197q53 67 110 146q-277 4 -599.5 -31.5t-388.5 -59.5q-7 -3 -11 -3q-5 0 -9 4q-7 6 -4 15q3 11 60.5 35t76.5 26
q5 1 10 -2.5t6 -9.5q1 -5 -2 -10q175 28 421 48t459 16l0.5 1t1.5 1q45 80 84 147q31 50 49 78q11 18 25 39q20 27 30 39q5 7 14 7.5t16 -5.5t7.5 -15t-5.5 -16v0q-9 -11 -26 -35q-14 -20 -25 -37q-18 -27 -49 -77q-34 -55 -76 -128q155 -5 259 -25zM10 71v-6v-6
q23 24 47 37q8 4 16.5 1.5t13.5 -10.5q4 -7 2 -15t-9 -13l-1 -1q-18 -12 -39 -36q19 -11 44 -12q29 -1 62 10q12 4 26 10q12 24 20 47q5 15 6 30q1 18 -2 30q-7 30 -40 33q-27 4 -61 -9q-32 -11 -54 -31q-23 -22 -30 -52q0 -1 -1 -4v-3zM129 -36q13 18 25 37l-0.5 -0.5
l-0.5 -0.5q-37 -12 -69 -11q-33 1 -57 16q-13 -19 -21 -38q-14 -30 -9 -49q3 -8 9 -12q8 -5 22 -6q29 -2 55 19q23 18 46 45z" />
    <glyph glyph-name="ss.liga" unicode="ss" horiz-adv-x="729" 
d="M740 9q9 -6 2 -15v-1q-32 -39 -77 -69q-40 -26 -92 -47q-49 -20 -167 -53q3 -18 4 -33q1 -27 -5 -56t-18 -53q-14 -28 -35 -48q-22 -21 -51 -31q-14 -4 -30 -6q-8 -1 -14 -1q-10 0 -18 2q-33 7 -54 33t-19 60q1 31 21 56q15 19 42 35q20 12 47 23q31 12 80 25
q-4 17 -10.5 38t-13.5 44.5t-12 41.5q-1 -1 -3.5 -2t-3.5 -1q-41 -18 -170 -62q-68 -23 -74 -25q1 -1 1 -2l1 -3q5 -28 4 -52q-3 -26 -12 -50q-20 -57 -70 -78q-25 -11 -54 -11q-31 2 -55 24q-25 24 -23 55q1 16 7 29q6 11 17 22q14 14 40 28q19 11 41 20.5t53 20.5
q-3 9 -6.5 20t-8 24t-7.5 22q-17 55 -16 96q2 62 37 97q23 23 53 26q15 1 30 -4q16 -5 27 -17q20 -23 15 -56q-5 -28 -22 -47q-7 -8 -15 -1q-6 6 -3 13q10 20 9 37q-1 19 -11 28q-10 8 -25 5q-14 -2 -27 -15q-22 -23 -22 -67q0 -32 16 -81q2 -7 10 -29t12 -35q14 4 41.5 13
t30.5 10q100 31 169 61l10 4q0 1 -1 4.5t-1 5.5q-12 59 -2 109q6 31 20 55q16 29 42 44q15 8 30 11q16 4 34 -1q36 -7 51 -39q15 -28 6 -61q-7 -28 -28 -49q-37 -42 -103 -76q5 -20 24 -78q10 -33 15 -54q106 27 164 51q107 43 158 114q6 8 15 2zM27 -189q1 16 -3 36
q-29 -10 -49 -20q-51 -23 -68 -48q-6 -8 -8 -16q-2 -6 0 -15q3 -14 15 -24q12 -11 26 -11q19 0 34 7q31 15 45 54q6 17 8 37zM357 82q-8 -40 3 -89q14 8 25 15q42 26 65 56q14 21 15 41q3 22 -7 37t-29 18q-17 3 -33 -8q-31 -20 -39 -70zM344 -298q20 40 18 87q-1 10 -2 22
q-47 -13 -76 -25q-26 -11 -43 -22q-23 -14 -32 -32q-11 -19 -7 -40q2 -19 16 -33q13 -15 30 -18q4 -1 8 0h11q10 2 19 5q38 13 58 56z" />
    <glyph glyph-name="wh.liga" unicode="wh" horiz-adv-x="922" 
d="M1001 672q8 -11 8 -23q1 -7 -1 -19l-10 -30q-7 -19 -25 -53q-44 -84 -122 -193q-64 -89 -139 -179q-33 -40 -74 -86q-49 -54 -80 -81v-0.5v-0.5q-2 0 -4 -2q-1 -1 -2 -1q-27 -50 -45 -85q1 1 3 3.5t3 3.5q47 57 87 86q18 12 34 14q9 2 21 -1q4 -1 10 -4q5 -2 11 -7
q3 -2 9 -11q4 -10 4 -14q1 -7 1 -12q-1 -4 -2 -11q-3 -13 -13 -32q-6 -11 -33 -52q-22 -32 -29 -47q-7 -12 -8 -19v-2v-1v-0.5t0.5 -1l0.5 -0.5l1 -1q6 -5 16 -5q11 0 23 3q42 11 101 50q42 28 91 72q16 14 42 41q9 9 20 21q12 15 16 22h1q5 10 14.5 4.5t4.5 -15.5h-1
q-5 -7 -21 -24l-20 -22q-8 -7 -43 -41q-42 -40 -89 -79q-64 -50 -104 -65q-15 -6 -34 -8q-24 -1 -41 10q-6 4 -10 9q-4 3 -7 11q-2 3 -4 13q-1 9 -1 12q2 16 11 36q11 23 34.5 57.5t28.5 43.5q8 13 10 21q1 3 1 4v2l1 1v0q0 2 -4.5 4.5t-7.5 2.5q-8 2 -22 -3q-20 -8 -46 -31
q-19 -18 -40 -42q-15 -19 -35 -46q-6 -8 -16 -24q-5 -7 -8 -13q-3 -7 -4 -13q-3 -9 -11 -13.5t-16.5 -2t-13 10.5t-1.5 16q5 20 21 57q10 22 24 52q2 3 3.5 6.5t4 8t3.5 7.5q-28 -13 -55 -20q-21 -5 -38 -5q-11 0 -20 2q-10 2 -19 6q-18 6 -29 18v-1q-47 -69 -90 -118
q-29 -33 -54 -53q-21 -15 -36 -19q-7 -2 -13 -2q-5 0 -12 1q-14 4 -23 14q-14 16 -13 45q0 18 6 40q7 29 25 72q7 15 15 32l-15 -16q-66 -71 -97 -96q-8 -6 -15 -10q-11 -6 -20 -8t-16 1q-2 1 -5 3l-2 2l-5 5q-7 10 -8 23q-1 16 6 39q4 15 13 33q6 15 30 61q23 46 27 58h1
q3 9 11 12.5t16.5 0.5t12.5 -11t1 -16q0 -1 -1 -2q-5 -11 -17 -32l-18 -29q-21 -33 -33 -56q-9 -17 -14 -29q-6 -17 -6 -27q0 -5 2 -9h1q8 1 24 12q39 29 97 89q41 42 84 94q1 1 2.5 3t1.5 4q5 7 14 8.5t17 -3.5q7 -5 8.5 -13t-2.5 -16q-52 -86 -72 -124q-18 -34 -29 -65
q-6 -18 -8 -32q-2 -17 4 -24q2 -3 8 -6q4 -1 5 -1q2 0 6 1q11 2 28 13q22 16 52 48q43 47 89 114q1 2 3 5t3 4q-4 14 -3 28q4 33 31 70q13 18 26 29q4 4 8 6q9 5 14 5t8 -4q2 -2 3 -6t0 -8t-3 -10q-9 -24 -34 -67q-12 -21 -29 -46q8 -11 25 -18q8 -3 17 -5q7 -1 16 -1
q16 0 34 4q30 8 66 28q1 0 4 2t4 3q13 24 26 49q45 84 112 197q62 105 120 193q79 119 132 186q23 29 39 44q15 15 26 21q6 4 11 5q2 2 7 2q4 1 5 1q3 0 6 -1t8 -3t6 -3q6 -4 10 -10zM321 7v-4q10 16 19 31q23 39 32 61h-1q-11 -10 -23 -26q-24 -34 -27 -62zM968 646h-1h1z
M970 609q3 13 2 25q-1 5 -3 9q-6 -4 -16 -14q-14 -14 -35 -41q-52 -65 -128 -183q-58 -91 -118 -192q-39 -64 -87 -150q15 15 38 40q31 34 74 85q74 90 137 179q83 118 117 191q13 27 19 51z" />
    <glyph glyph-name="zz.liga" unicode="zz" horiz-adv-x="1093" 
d="M1101.5 8q8.5 -7 1.5 -15q-74 -82 -183 -166q-56 -44 -138 -101q-15 -32 -33 -67q-28 -56 -60 -109q-32 -54 -70 -104q-44 -58 -86 -94q-32 -26 -59 -35q-20 -7 -39 -5q-24 4 -38 22q-13 16 -12 38q0 14 6 34q9 29 29 58q29 41 88 90q19 15 38.5 29.5t42.5 31t37.5 26.5
t43 29.5t39.5 26.5l7.5 5t6.5 4q25 48 40 83q17 39 19 53q5 30 -1 53q-8 27 -28 36q-14 7 -51 -1q-46 -11 -113 -42q-4 -2 -7 1q-1 0 -2 -1t-2 -1q-13 -6 -19 7t7 19q33 17 67 52q29 30 54 67q23 36 43 76q11 21 18 40q-16 -15 -41 -33q-39 -27 -76 -46q-53 -26 -87 -30
l-13 -1q-2 0 -13 2q-8 0 -16 6l-4 4q-42 -77 -110 -156q-43 -51 -104 -111q-1 -12 -3 -21q-6 -21 -21 -57q-19 -45 -51 -106q-63 -120 -129 -198q-22 -26 -42 -44q-30 -26 -53 -37q-19 -8 -36 -8q-22 -1 -39 14q-16 14 -17 36q-1 13 5 34q15 46 63 102q30 35 82 84
q28 26 85.5 78t85.5 79q6 5 25 23q2 7 4 11q3 8 4 24q2 14 0 25q-4 27 -20 38q-8 6 -18 6q-10 1 -26 -2q-42 -9 -106 -38h-1q-2 -1 -6 0l-1 -0.5t-2 -0.5q-13 -6 -19 7q-5 12 7 19q29 15 59 45q26 27 47 60q21 32 39 68q7 13 13 28q-11 -10 -31 -24q-34 -24 -68 -41
q-47 -24 -78 -27l-11 -1q-2 0 -13 2q-6 0 -14 5q-7 6 -10 15q-4 12 1 28q3 10 9 21q8 12 20.5 4.5t4.5 -19.5v-1q-5 -7 -7 -14q-3 -7 -2 -10l1 -1q3 -2 4 -2t3 -0.5t4 -0.5l8 1q26 2 69 22q32 16 66 38q39 27 58 48q1 1 3 2q7 17 25 13q9 -2 13.5 -10t2.5 -17l-1 -1
q-4 -15 -16 -40q-8 -17 -19 -37q-20 -36 -44 -69q-23 -32 -51 -60q20 9 37 14q18 5 31 6q21 2 37 -9q30 -19 38 -59q2 -9 2 -20q52 52 90 97q76 93 114 174q1 6 3 13q4 11 11 23t19.5 4.5t5.5 -19.5h-1q-5 -9 -8 -17t-1 -13q1 -2 6 -3q1 0 3.5 -0.5t4.5 -0.5h9q30 3 78 26
q37 17 74 43q44 30 66 53v1q2 2 5 3q8 15 25 11q9 -2 13.5 -10t2.5 -16q0 -1 -1 -1q-5 -17 -18 -45q-9 -20 -21 -41q-22 -42 -49 -78q-28 -39 -61 -70q0 -1 -2 -2q-1 -1 -1 -2q24 11 43 17q18 6 32 8q23 3 38 -3q35 -13 49 -54q11 -31 6 -69l-1 -9q-1 -4 -2 -9q-2 -7 -5 -16
q-4 -12 -11 -30q-1 -3 -7 -17q67 47 115 84q111 88 178 167q6 8 14.5 1zM169 -380q27 49 52 102l1 1q-10 -9 -72 -66.5t-94 -88.5q-50 -48 -79 -83q-22 -26 -34 -45q-18 -29 -22 -50q-2 -14 0 -24q3 -9 10.5 -13t15.5 -2q7 1 20 8q34 18 77 71q30 37 66 93q24 36 59 97z
M581 -525q61 82 125 200q-129 -90 -185 -136q-56 -48 -83 -87q-20 -28 -24 -52q-4 -15 -2 -26q2 -12 10 -18q13 -10 37 0q22 9 45 30q33 29 77 89z" />
    <glyph glyph-name="and.liga" unicode="and" horiz-adv-x="1361" 
d="M1450 597q15 -9 16 -28q0 -1 -1 -24q-2 -16 -10 -38q-9 -21 -32 -65q-31 -56 -76 -121q-80 -116 -180 -220q-48 -50 -103 -99q-2 -2 -22.5 -20t-31.5 -27q-5 -3 -17.5 -13t-20.5 -18t-14 -18q-1 -2 -4 -5q-14 -32 -21 -58q-10 -31 -9 -60q1 -13 4 -19.5t8 -9t15 -2.5
q57 8 127 42t126.5 75.5t98.5 79t54 56.5q6 10 15 7q10 -4 6 -15q-1 -2 -5 -6q-59 -69 -157 -137.5t-187 -104t-122 -14.5q-20 12 -25 42q-4 30 8 79q1 1 6 18q-8 -9 -16 -16q-36 -30 -73 -37q-15 -2 -29 4q-18 7 -23 25q-4 12 -3 28l4 20q8 35 31 69q-48 -32 -74 -48
q-58 -35 -94 -46q-14 -4 -28 -4q-19 0 -33 7q-6 3 -10 7q-5 6 -7 14q-2 9 1 21q3 11 11 27q2 3 27 44l0.5 1l0.5 1q-7 -4 -16 -10q-16 -12 -38 -31q-19 -15 -75 -66q-3 -2 -16.5 -14.5t-20.5 -19.5q-12 -10 -20 -16q-7 -5 -11 -8q-5 -3 -7 -4q-9 -2 -11 -1q-5 -2 -9 -1
q-5 1 -8.5 4t-5.5 7.5t-2 9.5q2 15 4 21q3 9 6 17q4 9 14 30q4 8 13 22q-49 -53 -70 -71q-28 -24 -66 -49q-18 -12 -37 -22q-24 -12 -42 -16q-13 -3 -26 -2q-18 2 -29 15q-6 7 -9 14q-4 8 -4 17q-1 13 3 27q8 30 33 74q-18 -12 -34 -20q-20 -9 -37 -15q-26 -8 -44 -6
q-19 2 -30 14.5t-11 31.5q0 25 8 44q29 69 104 119q20 13 36 19q24 10 46 8q16 -3 26 -11q13 -10 17 -25q4 -23 -10 -45q-6 -10 -16 -4q-5 4 -5 10v1q1 20 -4 26q-2 2 -5 4q-6 1 -8 1q-14 -1 -24 -7q-11 -4 -28 -16q-28 -19 -50 -44q-25 -27 -36 -53q-5 -10 -6 -26v-3
q1 -1 2 -1q9 -2 27 3q15 3 32 10q36 16 62 32q21 14 35 26q1 0 1.5 1l0.5 1q11 15 25 33q18 22 28 33q6 6 15 6.5t16 -6.5q6 -5 6.5 -13.5t-4.5 -15.5l-1 -1q-11 -13 -24 -31l-23 -32q-19 -25 -45 -66q-26 -43 -33 -68q-3 -7 -3 -13v-4l1 -3q2 -3 6 -4q6 -2 14 -2
q31 3 72 25q27 15 66 45q38 29 163 176q2 2 6 8l6 9q6 7 14.5 8.5t16 -4t8.5 -14.5t-4 -16v-1q-40 -51 -73 -100q-22 -33 -32 -52t-14 -27q-2 -4 -4 -10q9 8 16 14q20 19 36 35q53 55 71 72q21 21 38 35q11 9 22 16q7 4 13 7q11 5 19 5t13 -2q11 -4 16 -14q3 -7 2 -17
q0 -5 -2 -10q-4 -10 -13 -26q-5 -8 -14 -21.5t-13 -20.5q-7 -11 -9 -18q-1 -1 -1 -2q12 -6 35 -2q35 7 89 36q34 18 85 51l43 28q1 1 16 10q14 12 28 19q11 6 19 9q13 4 24 5q17 0 29 -9q10 -9 14 -25q0 -3 1 -9q35 69 91 157q73 115 166 232q51 65 93 109q29 31 53 51
q17 15 31 23q11 6 22 10q18 6 34 -4zM20 -79zM598 -1zM575 -93zM937 -10q5 18 -4 28q-4 4 -8 2q-4 -1 -6 -1q-6 -2 -10 -4q-6 -3 -13 -7q-19 -11 -27 -18q-29 -23 -45 -46q-19 -26 -25 -56l-3 -15v-8q2 -1 6 -1q25 3 54 24q25 19 47 47q8 10 20 28q11 16 14 27zM1434 548
q1 7 -3 11q-3 2 -3 1t-1 -1q-5 -2 -10 -6q-11 -6 -26 -19q-21 -18 -48 -47q-41 -44 -90 -107q-75 -96 -161 -229q-40 -63 -72 -120q-14 -25 -28 -52q10 9 30 25.5t23 19.5q53 47 101 96q10 10 28 29.5t21 21.5q6 8 14 17t17 19.5t15 16.5q54 68 83 112q44 64 73 120
q22 42 30 62q7 18 7 30z" />
    <glyph glyph-name="ant.liga" unicode="ant" horiz-adv-x="946" 
d="M1398 483q4 0 7 -2.5t4 -6.5t0 -8q-1 -5 -6 -8.5t-10 -2.5q-111 21 -270 26q-1 0 -1 -1q-93 -165 -171 -323q-90 -180 -149 -332q-35 -91 -59 -172q-10 -38 -18 -70l3 6q6 14 19 8t8 -20l-48 -105q-6 -14 -20 -8q-9 4 -9 15q6 78 35 182q23 83 58 176q54 143 135 312
q-45 -70 -80 -119q-75 -107 -132 -168q-48 -51 -84 -72q-16 -8 -29 -11q-19 -5 -35 0q-10 3 -17 9l-1 0.5t-2 1.5l-3 3q-2 3 -4 7q-3 5 -3 12q-1 12 4 32q7 25 39 101q13 31 16 45q-2 -1 -3 -1q-16 -7 -42 -26q-22 -15 -42 -31l-43 -32q-15 -11 -22 -15q-10 -6 -13 -7l-9 -3
q-8 -1 -13 1q-3 -1 -5 0q-8 1 -12.5 7t-4.5 13q1 17 8 36q3 9 12 29q9 21 28 55q5 9 20 34q-30 -29 -59 -55q-63 -58 -127 -103q-21 -15 -36 -23q-26 -13 -45 -14q-20 -2 -33 12q-11 12 -13 30q-1 13 3 27q3 12 7 22l6 12q-24 -17 -46 -29q-20 -10 -35 -17q-25 -9 -43 -8
t-29 13t-11 30q0 23 9 44q14 34 44 67q27 29 60 49q20 12 36 18q23 9 44 7q13 -3 23 -10q11 -9 15 -22q5 -19 -5 -44q-4 -10 -14 -6q-9 4 -7 13q5 18 0 28q-3 9 -16 9q-15 -1 -27 -8q-11 -5 -28 -16q-63 -47 -85 -101q-4 -9 -6 -27v-3l3 -3q10 -3 29 0q15 3 33 9
q30 12 62 34q9 6 19 14q8 11 15 20q26 32 58 59q11 10 20 -1q8 -9 1 -18q-28 -38 -46 -65q-29 -42 -39 -65q-8 -18 -9 -30v-5l1 -1l4 -2q11 -1 32 7q17 6 35 16q51 28 129 95q63 56 113 115q4 4 10 3q10 5 20 -2q8 -5 9.5 -13.5t-2.5 -16.5h-1q-34 -51 -63 -100
q-18 -32 -27 -51q-8 -18 -11 -26q-2 -4 -3 -9q12 10 19 15l40 34q27 24 41 35q29 21 48 30q8 4 15 6q6 2 10 2q9 0 15 -2q11 -3 15 -13q3 -6 4 -14q0 -9 -2 -19q-4 -17 -18 -53q-2 -5 -18 -41t-22 -55q-4 -12 -4 -19q3 -2 5 -3q14 -5 38 8q32 17 77 64q58 59 133 162
q97 133 204 307q33 63 69 129q-190 2 -421 -16t-382 -40t-188 -36q-7 -2 -11 -2q-6 0 -10 4q-6 6 -4 15q4 11 61.5 34.5t75.5 26.5q6 1 11 -2.5t6 -9.5q0 -6 -3 -10q176 28 422 48t459 16q46 81 86 148q30 50 48 79q12 18 26 38q19 28 29 39q6 7 15 8t15.5 -5t7.5 -15
t-5 -16l-1 -1q-9 -10 -26 -34q-14 -20 -25 -37q-18 -28 -48 -77q-34 -56 -76 -129q154 -5 259 -25zM584 -7zM550 -184z" />
    <glyph glyph-name="ght.liga" unicode="ght" horiz-adv-x="1010" 
d="M1455 483q6 -1 9.5 -6t2.5 -10.5t-6 -9t-11 -2.5q-118 22 -293 26q-80 -142 -145 -275q-89 -180 -149 -333q-35 -90 -58 -172q-11 -37 -19 -70l4 7q6 13 19 7t7 -19l-48 -106q-6 -14 -20 -7q-9 4 -8 14q5 78 34 183q23 83 58 175q59 155 147 337q25 51 58 117
q-106 -156 -193 -270q-81 -104 -143 -166q-49 -49 -88 -71q-15 -8 -29 -12q-20 -6 -37 -3q-9 2 -19 7q-11 6 -17 15q-8 11 -8 25q-1 10 2 20q4 13 13 30q9 15 15 24q9 14 13 22q7 12 9 18q0 1 1 3v1v1q-1 1 -5 4q-3 1 -8 4t-17 -1q-11 -3 -23 -10q-16 -10 -40 -33
q-19 -19 -36 -39q-17 -21 -32 -43t-21 -33q-3 -7 -5 -13q-2 -9 -10 -13t-16.5 -1.5t-13 10t-1.5 16.5q5 19 20 56q9 21 24 52q2 2 4 6.5t3 6.5q-21 -19 -46 -39q-46 -36 -102 -74q-48 -32 -139 -91q-27 -51 -54 -97q-74 -128 -138 -212q-50 -63 -88 -96q-13 -11 -29 -20
q-19 -11 -37 -13q-2 -1 -11 -1q-7 1 -12 2q-12 3 -20 8q-21 11 -28 35q-18 63 35 134q33 42 92 89q60 47 208 142q2 2 5.5 4t5.5 3.5t5.5 3.5t5.5 4q34 59 88 157l44 81q-1 -2 -4.5 -5.5l-5.5 -5.5q-36 -34 -72 -53q-26 -14 -47 -17q-19 -1 -33 6q-9 6 -15 15q-4 6 -7 15
q-7 25 -1 52q4 23 16 46q21 40 59 72q17 15 39 27q11 6 22 10q8 3 14 4q8 2 16 0q16 -1 29.5 -11t18.5 -24q11 -27 -4 -53q-5 -10 -15 -4q-6 3 -5 10v1q1 19 -7 30q-8 9 -20 9q-9 0 -27 -11q-13 -8 -31 -23q-31 -28 -49 -58q-20 -37 -13 -66l1 -4q1 -2 8 -2q13 1 33 11
q30 14 67 44q30 25 59 58q28 31 50 66q4 6 11 5q3 -1 5 -2q8 -4 4 -13v-1q-62 -153 -149 -317q66 42 109 71q63 43 101 74q57 47 87 85q2 2 4 3l5.5 11l6.5 13q46 86 113 198q59 100 120 192q7 11 22 34q-186 -16 -343 -38.5t-193 -35.5q-7 -2 -11 -2q-5 0 -10 4q-6 6 -3 15
q3 11 60.5 34.5t75.5 26.5q6 1 11 -2.5t6 -9.5t-2 -10q188 30 430 48q49 72 89 122q23 29 39 44t26 21q6 4 10 5q3 2 8 2q3 1 5 1q3 -1 6 -1q2 -1 8 -3l5 -3q6 -5 10 -10q8 -10 9 -22q1 -8 0 -19q-1 -13 -8 -32q-8 -23 -25 -53q-10 -17 -26 -42q147 8 272 6q2 3 9 17t11 21
q48 85 92 159q31 50 49 78q11 18 25 39q19 27 29 39q6 7 15 7.5t16 -5.5t7.5 -14.5t-5.5 -15.5l-1 -1q-8 -10 -25 -34q-14 -20 -25 -38q-19 -28 -49 -77q-45 -73 -93 -157q-2 -3 -5.5 -9.5t-4.5 -9.5q169 -4 282 -26zM-2 -326q1 3 3 6.5t4.5 7.5t3.5 6q-56 -37 -91 -62
q-62 -45 -97 -77q-54 -47 -83 -88q-19 -30 -24 -51q-8 -31 -1 -49q4 -8 11 -12q2 -1 8 -3h4h2.5h1.5q18 3 44 25q34 30 79 90q31 41 70 102q32 50 65 105zM873 646zM823 589q-31 -40 -65 -91q32 3 69 5q17 30 27 56q13 30 18 51q3 13 4 24q0 5 -1 9q-8 -5 -16 -14
q-14 -14 -36 -40zM578 213q-40 -66 -87 -151q14 14 39 41q29 31 73 85q72 85 137 179q48 69 71 106q-37 -2 -73 -5q-22 -32 -42 -63q-54 -85 -118 -192zM820 88q62 73 133 170q52 70 125 177q4 7 9.5 15t12 17.5t9.5 14.5q-125 1 -271 -7q-41 -64 -82 -120
q-61 -83 -139 -179q-29 -35 -74 -86q-47 -53 -79 -82q-2 -2 -5 -2q-26 -48 -45 -85q38 47 75 79q15 12 24 17q19 11 35 10q1 0 6 -1h4l8 -2q11 -4 19 -10q10 -9 13 -22q3 -11 1 -23q-2 -9 -5.5 -18t-6 -13.5t-8.5 -14t-7 -10.5q-21 -34 -24 -42q-1 -3 -1 -6v-1l1 -1
t3.5 -2.5t4.5 -1.5q13 -4 38 9q32 17 81 62q62 58 145 158z" />
    <glyph glyph-name="ott.liga" unicode="ott" horiz-adv-x="841" 
d="M1469 616q6 0 9.5 -5t3 -11t-5.5 -9.5t-11 -2.5q-147 17 -438 6q-22 -39 -41 -72q-94 -165 -172 -322q-89 -180 -148 -333q-35 -90 -59 -172q-11 -37 -18 -70l3 7q6 13 19 7t7 -19l-47 -106q-6 -14 -20 -8q-10 5 -9 15q6 78 35 183q23 83 58 175q58 155 146 337
q61 125 133 258q-67 -100 -112 -165q-105 -154 -183 -261q-52 -72 -96 -127q-60 -77 -103 -123q-37 -40 -60 -56q-11 -8 -20 -11q-7 -3 -13 -4q-7 -2 -15 0q-16 3 -26 13q-10 9 -16 23q-7 21 -6 47q1 10 2 22q4 17 5 21q8 28 28 77q41 99 111 232q-1 -2 -5 -6l-6 -6
q-95 -101 -183 -145q-33 -16 -65 -24q-27 -42 -59 -71q-27 -23 -51 -35q-16 -8 -32 -10q-20 -3 -38 5q-10 5 -18 13q-8 10 -11 20q-6 16 -5 37q3 32 20 64q11 20 24 37q-3 6 -4 11q-3 9 -2 18q0 7 3 16q7 30 31 54q20 20 50 34q29 13 58 16q39 3 62 -15q13 -10 19 -28
q5 -12 5 -31q0 -16 -3 -31q-3 -12 -10 -28q-9 -24 -23 -49q20 7 40 17q84 42 176 140q39 41 78 91q65 118 141 237q22 35 50 77q-301 -26 -363 -49q-7 -2 -11 -2q-6 0 -10 4q-7 6 -4 14q2 8 33 22.5t62.5 26t41.5 13.5q6 1 10.5 -2.5t5.5 -9.5q2 -9 -5 -14q108 15 261 27
q2 3 8.5 12.5t9.5 13.5q26 37 49 65q32 39 56 62q6 6 15 5.5t15 -7t6 -15.5t-7 -15q-21 -21 -50 -58q-19 -24 -42 -58q131 10 257 16q23 35 54 82q29 48 47 76q11 18 26 39q19 27 29 39q6 7 15 7.5t15.5 -5.5t7.5 -15t-5 -15v-1h-1q-9 -10 -26 -35q-14 -19 -25 -37
q-18 -27 -49 -77q-10 -16 -33 -56q280 10 424 -7zM-4 68q-1 -4 0 -9q21 22 47 37q8 5 16.5 2.5t13.5 -10.5q4 -7 2 -15.5t-9 -12.5l-1 -2q-20 -13 -37 -34q-1 -1 -2 -2.5t-2 -2.5q32 -24 77 -23q19 0 39 5q7 11 8 12q16 27 25 51q6 14 8 26q3 12 3 26q1 31 -17 44
q-16 14 -48 10q-59 -6 -96 -44q-19 -20 -25 -45q-2 -7 -2 -13zM78 -73q23 20 45 49q-12 -1 -22 -1q-52 -1 -90 28q-7 -11 -13 -21q-13 -24 -15 -46q-2 -12 0 -19q2 -6 7 -10q7 -5 18 -6q12 -2 24 1q23 4 46 25zM787 319q75 109 178 264l5 8q-127 -6 -258 -16
q-32 -47 -70 -107q-72 -114 -161 -273q-94 -171 -142 -282q-17 -40 -27 -72q-6 -24 -8 -35q-2 -21 1 -32q3 -13 13 -17q7 -3 26 9q25 16 58 49q73 74 201 245q82 111 184 259z" />
    <glyph glyph-name="out.liga" unicode="out" horiz-adv-x="943" 
d="M1418 524q6 -2 9.5 -6.5t2 -10.5t-6 -9.5t-10.5 -2.5q-126 24 -317 27q-92 -164 -169 -319q-89 -180 -149 -333q-35 -90 -59 -172q-10 -37 -18 -70l3 7q6 13 19.5 7t7.5 -19l-48 -106q-6 -14 -20 -8q-9 5 -9 15q6 78 35 183q23 83 58 175q59 155 147 337q25 51 58 117
q-89 -134 -151 -222q-66 -93 -117 -159q-83 -106 -130 -150q-25 -22 -44 -31t-34 -7q-11 1 -20 9.5t-12 18.5q-5 14 -3 32q1 15 5 28q6 23 18 48q6 14 18 36q-37 -37 -71 -60q-17 -11 -31 -16q-11 -4 -21 -4h-7q-3 1 -7 3q-7 3 -12 9q-9 9 -10 25q0 9 2 20q3 14 11 32
q13 32 39 73q-51 -29 -110 -47q-48 -15 -95 -22q-11 -21 -24 -40q-28 -40 -58 -65q-21 -17 -38 -26q-24 -13 -47 -15q-14 0 -28 5q-16 7 -25 21q-13 22 -10 55q3 24 13 47q9 20 24 41l7 9q-6 9 -7 19q-1 6 0 13q2 7 3 12q3 12 8 21q18 39 64 62q45 23 86 21q27 -2 44 -16
q18 -15 22 -43q3 -20 -2 -45q-4 -16 -15 -41q0 -1 -5 -11q38 7 76 18q84 27 148 73q3 2 8 2q8 1 14 -4q8 -4 10 -13t-3 -16q0 -1 -1 -1q-47 -68 -64 -102q-7 -15 -9 -25q-3 -8 -2 -14v-1h1q4 0 9 2q10 3 24 12q40 24 94 75q22 21 42 43q26 28 38 46v1q5 7 13 3q4 0 6 -2
q6 -5 3 -13q-13 -28 -42.5 -86t-43.5 -88q-11 -28 -16 -43q-9 -25 -7 -37q1 -3 2 -3q4 -2 14 3q14 6 36 24q55 46 133 141q55 67 119 155q116 163 221 324q17 25 40 61q1 2 3 5.5t3 5.5q-186 0 -405.5 -18t-362 -39t-177.5 -34q-7 -3 -11 -3q-6 0 -10 4q-6 6 -4 15
q2 6 21 16t43 19.5t45 17t28 8.5q4 1 7.5 -0.5t6 -4.5t3.5 -7q0 -5 -2 -10q164 26 395.5 45.5t438.5 18.5q46 83 88 154q30 50 49 78q11 18 25 39q19 27 29 39q6 7 15 7.5t16 -5.5t7.5 -15t-5.5 -15v-1h-1q-9 -10 -26 -35q-13 -20 -25 -37q-18 -27 -48 -77q-36 -58 -78 -132
q185 -4 305 -26zM-2 6q0 -1 1 -5q22 23 46 37q8 4 16.5 2t12.5 -10q5 -8 3 -16t-9 -13l-1 -1q-14 -9 -28 -24q23 -6 57 -7q31 -1 64 4q6 12 10 21q10 22 14 38q4 22 1 39q-3 21 -15 31t-33 11q-36 1 -76 -19q-40 -21 -55 -53q-4 -8 -6 -18q-1 -4 -2 -10q-1 -4 0 -7zM129 -77
q8 12 17 26q-26 -2 -51 -2q-44 2 -72 11q-6 -7 -8 -11q-12 -17 -19.5 -33.5t-10.5 -32.5q-3 -17 2 -26q2 -4 6 -7q4 -2 12 -5q17 -3 35 2q16 5 34 19q28 22 55 59z" />
    <glyph glyph-name="Aa.liga" unicode="Aa" horiz-adv-x="2495" 
d="M2511.5 0q8.5 -7 1.5 -15l-1 -1q-64 -65 -120 -112q-29 -25 -67 -50q-18 -12 -37 -22q-23 -12 -41 -16q-14 -3 -27 -2q-18 2 -29 15q-6 7 -9 14q-4 8 -4 17q-1 13 3 27q8 30 33 74q-18 -11 -34 -19q-19 -10 -36 -16q-26 -7 -45 -6q-18 3 -29 15t-12 31q1 25 9 44
q12 31 35 58q-15 -7 -32 -14q-49 -23 -141 -60q-125 -49 -286 -103q-29 -9 -102 -33q-121 -266 -219 -509q-66 -168 -114 -312q-48 -141 -72 -248q8 1 13 -6q6 -7 1 -16l-36 -61q-5 -10 -16.5 -13t-20.5 3q-18 10 -14 30l1 5q18 81 44 163q4 16 14 46t11 34l27 80
q52 143 122 311q96 231 211 478q-195 -63 -432 -130q-174 -49 -363 -97q-3 -4 -24.5 -27.5t-32.5 -36.5q-132 -150 -237 -284q-135 -173 -211 -302q-7 -13 -20 -5q-10 6 -6 17q27 79 58 157q37 93 70 154q6 10 17 13.5t22 -2t14.5 -17t-2.5 -21.5q-1 -2 -1 -3
q-23 -35 -49 -82q37 51 82 111q104 135 236 288q4 4 11 12t10 11q-88 -22 -163 -40q-354 -84 -596 -125q-12 -2 -22 5t-12 19q-1 7 2 14.5t8.5 12.5t13.5 6h1q241 36 595 115q99 22 224 52q194 220 430 465q254 264 526 525q144 138 270 254q80 73 139 125q41 36 70 61
q24 19 37 30q25 20 41 29q4 3 9 4q11 23 36 19q7 -1 13 -4.5t9.5 -9t5.5 -12t1 -13.5q-3 -21 -24 -27v-1q-19 -5 -36 -22q-5 -5 -9 -10.5t-9 -12t-8 -10.5q-16 -22 -47 -67q-48 -73 -89 -140q-76 -127 -164 -289q-164 -304 -299 -594q-6 -12 -16.5 -35t-13.5 -29
q70 22 76 23q162 52 287 98q92 35 141 57q48 21 83 39q13 10 25 18q20 13 36 19q24 10 46 8q16 -3 26 -11q13 -10 17 -25q5 -23 -10 -45q-6 -10 -16 -3q-5 3 -5 9v1q1 20 -4 26q-2 2 -5 4q-5 1 -8 1q-14 -1 -24 -6q-11 -5 -28 -16q-28 -20 -50 -45q-24 -27 -35 -53
q-6 -10 -7 -26v-3q1 -1 2 -1q10 -2 27 3q15 3 32 11q36 15 62 32q21 13 35 25q1 0 1.5 1l0.5 1q11 16 25 33q18 22 28 33q6 6 15 6.5t16 -5.5q6 -6 6.5 -14.5t-4.5 -14.5l-1 -2q-10 -13 -24 -31l-23 -32q-18 -25 -45 -66q-26 -42 -33 -68q-3 -7 -3 -13v-3t1 -4q2 -3 6 -4
q7 -2 14 -1q32 2 72 24q27 15 67 45q61 47 116 112q7 8 15.5 1zM1051 -282q250 66 460 129q36 76 45 94q168 347 303 594q89 163 167 289q41 68 90 141q7 11 19 28q-33 -28 -48 -40q-59 -51 -138 -123q-127 -114 -272 -251q-273 -258 -530 -518q-219 -223 -397 -420
q152 37 301 77zM2103 -68z" />
    <glyph glyph-name="Ab.liga" unicode="Ab" horiz-adv-x="2621" 
d="M2774 683q2 -11 0 -22q-4 -22 -19 -37q-3 -4 -9 -5q-1 -2 -10 -12l-17 -18l-33 -36q-14 -14 -41 -40t-31 -29q-34 -31 -68 -60q-35 -52 -54 -82q-70 -107 -135 -216q-12 -21 -41.5 -71.5t-45.5 -77.5q21 18 40 29q18 9 33 13q10 2 20 1q13 0 23 -6q10 -7 16 -21
q4 -10 4 -22q0 -15 -8 -38q-1 -2 -4 -9q29 7 32 7q75 20 123 37q32 12 59 25q34 16 52 34h1q8 7 15 -1t0 -15l-1 -1q-37 -29 -120 -58q-50 -17 -125 -37q-12 -3 -47 -12q-27 -47 -75 -80q-33 -22 -68 -28q-10 -1 -20 -1q-6 0 -10 1q-5 1 -13 3q-13 6 -21 16q-11 14 -6 30
q1 2 2 6q2 5 5 7q3 4 10 8q6 4 17 8q21 7 32 10q23 8 63 17q20 5 30 8q17 21 27 42q5 11 8 24q3 16 2 18q0 4 -6 5.5t-13 0.5q-13 -2 -28 -9q-25 -12 -51 -36q-25 -23 -42 -48q-5 -9 -14 -4q-8 5 -5 13l1 3q30 89 110 232q51 88 110 182q-137 -101 -296 -192
q-152 -87 -353 -177q-94 -42 -193 -81q-131 -283 -234 -541q-66 -168 -114 -311q-48 -142 -72 -248q8 0 13 -6q6 -8 1 -16l-36 -61q-5 -10 -16 -13t-21 3q-18 10 -14 29l2 5q17 81 43 164q4 16 14 46t11 34l27 79q52 144 122 311q100 243 225 506q-70 -27 -124 -46
q-327 -117 -678 -201q-62 -70 -64 -72q-132 -150 -237 -284q-135 -172 -211 -302q-7 -12 -20 -5q-10 6 -6 17q27 80 58 157q38 94 70 154q6 11 17 14.5t22 -2t14.5 -17t-2.5 -22.5q-1 -1 -1 -2q-23 -35 -49 -82q37 50 82 110q104 135 236 288q5 6 15 17.5t14 15.5
q-3 0 -9 -1.5l-10 -2.5q-198 -45 -387 -76q-85 -15 -196 -28q-121 -14 -200 -16q-12 0 -20.5 8.5t-8.5 20.5t8.5 20.5t19.5 8.5h1q76 1 193 13q111 13 194 26q188 28 386 71q38 9 85 20q188 212 417 451q254 263 526 524q144 139 270 255q79 72 139 124q40 36 70 61
q23 19 37 30q25 20 41 30q4 2 9 4q11 22 36 19q14 -3 22.5 -14t6.5 -25q-3 -22 -24 -28q-19 -6 -36 -23q-5 -4 -9 -9.5t-9 -12.5t-8 -10q-16 -23 -47 -68q-48 -72 -89 -140q-76 -127 -164 -289q-164 -303 -299 -594q-2 -2 -4.5 -8t-3.5 -8q83 33 154 63q200 87 352 173
q200 111 357 233q68 102 125 177q50 66 83 100q13 14 26 24q11 8 19 11q19 7 35 -7q10 -9 13 -24zM1399 -145q76 26 163 59q3 6 11 23.5t13 27.5q168 347 303 593q89 163 167 290q41 68 90 140q7 12 19 28q-34 -28 -48 -40q-58 -51 -138 -122q-127 -115 -272 -251
q-273 -258 -530 -519q-214 -218 -385 -405q314 75 607 176zM2282 -138q12 9 24 20h-1.5h-0.5q-39 -11 -61 -19q-20 -6 -29 -12q-8 -4 -11 -8q-3 -3 -2 -3v0q0 -1 1 -1q0 -1 1 -1h1q5 -1 6 -1q2 -1 4 0h6q8 1 12 2q23 4 50 23zM2736 677l-1 1zM2611 518q63 57 117 117
q0 5 3 9v1q7 8 7 20q1 5 -1 9l-4 -4q-8 -7 -21 -20q-30 -34 -77 -98q-5 -7 -13 -18.5t-11 -15.5z" />
    <glyph glyph-name="Al.liga" unicode="Al" horiz-adv-x="2445" 
d="M2538 698q19 -4 28 -18t8 -28q-1 -16 -9 -39q-3 -6 -16 -33q-32 -62 -71 -119q-59 -89 -165 -220q-33 -41 -90 -104q-57 -65 -96 -100q-15 -42 -23 -76q-8 -36 -6 -62q2 -29 20 -44q9 -8 21.5 -12t29.5 -3q26 0 63 16q61 26 115 69q54 42 99 93q7 8 15.5 1t1.5 -15l-1 -1
q-122 -118 -221 -166q-32 -15 -68 -25q-21 -5 -39 -4q-23 0 -41 12.5t-29 34.5q-8 18 -11 40q-3 32 6 75q0 2 1.5 6t1.5 6q-87 -66 -208 -125q-118 -57 -270 -107q-55 -18 -120 -37q-88 -196 -158 -373q-66 -168 -115 -311q-47 -142 -71 -248q8 0 13 -6q6 -8 1 -16l-36 -61
q-6 -10 -17 -13t-21 3q-17 10 -13 29l1 5q17 81 43 164q5 16 14.5 46t11.5 34l27 79q52 144 122 311q67 163 149 344q-171 -47 -394 -90q-180 -34 -393 -63q0 -1 -1.5 -2t-1.5 -2q-132 -150 -237 -284q-135 -172 -211 -302q-8 -12 -20 -5q-10 6 -6 17q27 79 58 157
q37 93 70 154q5 11 16.5 14.5t22 -2t14 -17t-1.5 -22.5l-2 -2q-23 -35 -48 -82q36 50 82 110q94 122 212 261q-69 -9 -125 -16q-205 -25 -575 -56h-1q-7 -1 -14 2.5t-11.5 9.5t-5.5 14q-1 12 7 21t19 10h1q369 27 574 49q81 9 179 21q209 241 478 520q254 263 525 524
q144 139 271 255q79 72 138 124q41 36 71 61q23 19 36 30q26 20 41 30q4 2 10 4q11 22 36 19q14 -2 22.5 -13.5t5.5 -25.5q-3 -22 -23 -28h-1q-19 -6 -36 -23q-4 -4 -8 -9.5t-9 -12.5t-8 -10q-17 -23 -47 -68q-49 -73 -89 -140q-77 -126 -165 -289q-163 -303 -299 -593
q-39 -84 -87 -192q50 14 89 26q150 48 267 102q142 67 236 144q12 35 29 74q26 58 62 124q67 119 146 235q44 64 83 112q26 33 45 53q30 33 52 50q9 7 16 12q5 3 11 5q10 3 18 3zM1014 -347q241 43 422 92q56 121 103 220q169 347 304 593q89 163 166 290q41 67 90 140
q8 12 19 28q-34 -29 -47 -40q-59 -51 -139 -122q-126 -114 -272 -252q-273 -258 -529 -518q-251 -255 -453 -482q182 24 336 51zM2533 656h1h-1zM2535.5 622q3.5 18 1.5 28l-2 4q-1 0 -3 -2q-5 -3 -12 -8q-19 -16 -45 -46t-43 -52q-41 -51 -82 -108q-83 -118 -144 -231
q-35 -65 -59 -121q0 -1 -0.5 -2l-0.5 -1q23 22 64 66q35 37 90 103q91 110 162 220q20 31 35 58q22 38 30 60q5 14 8.5 32z" />
    <glyph glyph-name="Am.liga" unicode="Am" horiz-adv-x="2780" 
d="M2786.5 25.5q6.5 -8.5 -2.5 -14.5v-1q-77 -51 -152 -88q-50 -25 -82 -34q-28 -7 -47 -7q-15 0 -27 4q-7 2 -13 6q-11 6 -14 18q-4 12 0 32q2 9 7 23l17 39q1 3 2 8q-10 -2 -24 -8q-39 -17 -71 -44q-37 -31 -60 -60v-1q-2 -3 -7 -4q-8 -6 -16 -1q-10 6 -6 17q8 19 28 61
t28 64q6 17 4 25q0 2 -1 4q-1 1 -3 1h-1q-6 2 -22 -7q-10 -5 -27 -17q-50 -37 -101 -92q-21 -21 -45 -52q-28 -37 -37 -56l-1 -1q-1 -2 -4 -4q-8 -14 -23 -9q-7 2 -11 9.5t-2 14.5q8 27 28 69q15 31 34 64q25 46 60 101l-121 -8q-131 -10 -153 -13l-153 -16l-38 -4l-38 -6
l-67 -10q-35 -74 -37 -79q-148 -314 -266 -609q-66 -168 -114 -311q-47 -142 -72 -248q9 0 13 -6q6 -8 1 -16l-35 -61q-6 -10 -17 -13t-21 3q-18 10 -13 29l1 5q17 81 43 164q4 16 14 46t11 34l28 79q51 144 121 311q123 296 274 609q5 10 14.5 30t13.5 27q-56 -8 -271 -48
q-222 -51 -298 -73q-25 -7 -62 -18q-174 -183 -312 -340q-132 -150 -237 -284q-134 -172 -211 -302q-7 -12 -20 -5q-10 6 -6 17q27 80 58 157q38 93 70 154q6 11 17.5 14.5t22 -2t14 -17t-2.5 -22.5q0 -1 -1 -2q-23 -35 -49 -82q37 50 83 110q104 135 235 288
q120 139 262 293q-227 -70 -439 -163q-108 -46 -277 -131q-30 -15 -86 -44t-102 -52.5t-89 -42.5q-11 -5 -22.5 -0.5t-16 15.5t-0.5 22t15 16l1 1q41 17 86.5 39.5t102 51t87.5 43.5q171 83 281 129q250 105 519 180q97 104 180 191q255 263 526 524q144 139 271 255
q78 72 138 124q41 36 71 61q23 20 36 30q25 20 41 30q4 2 9 4q11 22 36 19q14 -2 22.5 -13.5t6.5 -25.5q-3 -22 -24 -28q-19 -6 -36 -23q-4 -4 -8.5 -9.5t-9.5 -12.5t-8 -10q-16 -23 -47 -68q-48 -73 -89 -140q-76 -126 -164 -289q-129 -238 -243 -476l44 6l38 5l38 4
l154 15q23 2 154 11l147 8q10 5 20 -1q8 -5 9.5 -14t-2.5 -16l-1 -1q-41 -62 -74 -120l-18 -32q12 15 26 32q21 26 31 38t29 32t36 35q15 13 30 22q9 5 19 9q13 5 24 4q9 0 16 -3q7 -4 12 -9q12 -10 14 -26q2 -17 -7 -43q-7 -21 -29 -60q2 1 3.5 3t3 3t3 2.5t2.5 3.5
q6 5 20.5 18.5t25.5 22.5t23 17q10 7 22 12q15 6 28 6q6 -1 11 -2q7 -3 13 -8q8 -10 8 -25q-1 -10 -7 -27q-3 -9 -10 -23.5t-8 -16.5q-5 -11 -7 -18q-1 -2 -1.5 -5t-0.5 -4.5v-1.5q3 -2 5 -2q6 -3 16 -4q17 -1 39 3q37 7 80 26q82 36 148 85q9 6 15.5 -2.5zM1306 13
q234 41 297 48q140 285 256 497q89 163 167 290q41 68 90 140q8 12 19 28q-34 -28 -47 -40q-60 -51 -139 -122q-127 -114 -272 -252q-273 -257 -530 -518q-68 -69 -135 -139q77 21 294 68zM2483 11z" />
    <glyph glyph-name="Ar.liga" unicode="Ar" horiz-adv-x="2471" 
d="M2474 24q10 -5 5 -14v-1q-29 -50 -75 -107q-49 -60 -88 -95q-24 -22 -51 -41q-37 -25 -62 -32q-21 -6 -40 -1q-24 5 -38 24q-12 16 -16.5 37.5t-1.5 39.5q0 3 2 10l3 9q5 15 6 16q6 15 16 32q6 9 13 18t15 19l12 15q5 7 7 11t3 7q1 0 0 2t-3 5t-5 6q-4 4 -11 12
q-12 -11 -46 -29q-27 -14 -68 -29q-57 -22 -141 -48q-119 -36 -286 -76q-74 -17 -158 -36q-102 -227 -187 -438q-66 -168 -114 -311q-48 -142 -72 -248q8 0 13 -6q6 -8 1 -16l-36 -61q-5 -10 -16.5 -13t-21.5 3q-17 10 -13 29l1 5q18 81 43 164q5 16 15 46t11 34l27 79
q52 144 122 311q81 197 181 412q-180 -39 -375 -77q-183 -35 -375 -68q-60 -66 -72 -80q-132 -150 -237 -284q-135 -172 -211 -302q-7 -12 -20 -5q-10 6 -6 17q27 80 58 157q37 93 70 154q5 11 16.5 14.5t22.5 -2t14.5 -17t-2.5 -22.5q-1 -1 -1 -2h-1q-22 -35 -48 -82
q36 50 82 110q104 135 236 288q7 9 21 25t20 21q-77 -12 -150 -24q-164 -25 -293 -42q-81 -11 -148 -17q-97 -10 -150 -11q-7 0 -14 4t-11 10.5t-4 14.5q0 12 8.5 20.5t19.5 8.5h1q51 0 145 8q66 5 147 14q128 15 292 38q89 12 203 29q187 212 415 449q254 263 526 524
q144 139 270 255q80 73 138 124q41 36 71 61q23 19 37 30q25 20 40 30l10 4q11 22 36 19q7 -1 12.5 -5t9.5 -9t6 -11.5t1 -13.5q-3 -22 -24 -28q-19 -6 -37 -23q-4 -4 -8 -9.5t-9 -12.5t-8 -10q-17 -23 -47 -68q-49 -73 -89 -140q-76 -126 -164 -289q-164 -303 -300 -593
q-29 -63 -63 -138q73 15 137 29q166 37 286 71q83 23 140 44q40 15 67 28q28 14 42 25q-13 14 -21 27q-11 20 -11 40q1 22 10 39q13 21 34 28q25 8 45 -7q18 -14 22.5 -35.5t-3.5 -39.5q-8 -23 -32 -41l9 -9q8 -9 12 -16q8 -14 7 -27q0 -7 -3 -13q-3 -7 -4 -10
q-4 -7 -10 -16q-5 -7 -13 -17t-14 -18t-11 -15q-8 -15 -12 -26l-2 -4t-2 -5t-1 -4l-2 -7q-2 -5 -2 -6q-2 -11 1 -24q3 -11 9 -20q11 -17 38 -15q26 1 55 18q22 12 51 36q49 42 87 92q44 55 69 105q5 10 15 5zM1038 -272q212 37 398 75q39 85 76 162q169 347 304 593
q89 163 166 290q42 68 90 140q9 13 19 28q-35 -30 -47 -40q-59 -51 -138 -122q-127 -114 -272 -251q-274 -258 -530 -519q-215 -219 -388 -409q165 26 322 53zM2162 98q-5 -9 -4 -22q0 -10 7 -21q4 -8 15 -19q19 17 23 34q4 12 0 23q-3 12 -11 17t-16 1q-9 -3 -14 -13z" />
    <glyph glyph-name="As.liga" unicode="As" horiz-adv-x="2507" 
d="M2511.5 20.5q8.5 -6.5 1.5 -15.5q-47 -54 -140 -92q-40 -17 -142 -46q5 -25 4 -46q-4 -52 -31 -89q-15 -22 -36 -35t-47 -16q-5 -1 -13 -1q-11 -1 -13 0q-13 1 -27 7q-27 12 -40 37q-6 13 -7 27q0 16 4 27q7 23 29 40q14 11 38 23q15 8 39 16q20 7 49 15q-3 12 -6 23
q-3 7 -7 19l-7.5 22.5t-5.5 20.5l-4 -2t-3 -1q-60 -26 -147 -53q-122 -39 -301 -83q-82 -20 -192 -44q-101 -225 -184 -434q-67 -168 -115 -311q-47 -142 -72 -248q9 0 14 -6q5 -8 0 -16l-35 -61q-6 -10 -17 -13t-21 3q-17 10 -13 29l1 5q17 81 43 164q5 16 14.5 46t10.5 34
l28 79q51 144 121 311q81 194 179 408q-162 -35 -370 -77l-389 -76q-60 -67 -60 -68q-132 -150 -238 -284q-134 -172 -211 -302q-7 -12 -19 -5q-10 6 -7 17q27 80 58 157q38 93 70 154q6 11 17.5 14.5t22 -2t14 -17t-2.5 -22.5q0 -1 -1 -2q-23 -35 -49 -82q37 50 83 110
q104 135 235 288q5 6 15 17t14 16l-162 -32q-188 -37 -304 -62q-88 -19 -150 -35q-100 -26 -144 -44h-1q-6 -2 -11.5 -2t-10.5 2t-9.5 6t-6.5 10q-4 11 0.5 22t15.5 15v1q48 18 154 44q63 15 153 33q117 23 305 57l218 39q192 217 426 461q255 263 526 524q144 139 271 255
q79 73 138 124q40 36 71 61q22 19 36 30q25 20 41 30q4 2 10 4q11 22 35 19q14 -2 22.5 -13.5t6.5 -25.5q-3 -22 -24 -28q-19 -6 -36 -23q-3 -3 -6.5 -7.5t-6.5 -8t-6.5 -8.5t-5.5 -8q-17 -23 -48 -68q-48 -73 -89 -140q-76 -126 -164 -289q-164 -303 -299 -593
q-31 -65 -65 -141q96 20 170 36q179 41 300 77q87 26 146 50q1 1 3 1.5t3.5 1.5t2.5 1q-11 47 -4 90q9 57 50 84q26 16 53 13q14 -2 27 -9q12 -7 21 -21q13 -23 7 -52q-5 -24 -21 -42q-2 -2 -5 -3q-19 -24 -59 -47q-3 -2 -20 -11q1 -4 22 -68q4 -11 8 -25q89 23 139 44
q87 35 130 90q7 8 15.5 1.5zM1084 -276q224 41 394 75q40 88 78 166q168 347 303 593q89 163 167 290q41 67 90 140q9 14 19 28q-34 -28 -47 -40q-59 -51 -139 -122q-127 -115 -272 -251q-273 -259 -529 -519q-220 -223 -398 -420zM2189 59q-4 -29 3 -62q1 0 7 3t9 5
q37 21 54 42q0 2 1 4v1q9 18 9 33q0 18 -8 28q-7 9 -20.5 9t-25.5 -8q-25 -17 -29 -55zM2114 -275q16 2 29.5 11t22.5 23t14.5 30.5t6.5 34.5q0 12 -2 29q-28 -8 -47 -15q-23 -9 -37 -16q-19 -10 -30 -23t-12.5 -29t6.5 -26q8 -11 21 -17q6 -3 12 -3h8q5 1 8 1z" />
    <glyph glyph-name="At.liga" unicode="At" horiz-adv-x="2417" 
d="M3175 598q6 -1 9.5 -5.5t2.5 -10.5q0 -3 -1.5 -5.5t-3.5 -4t-5 -2.5t-6 -1q-149 14 -342 9.5t-411 -21.5l-11 -17q-75 -114 -111 -176q-118 -196 -202 -365q-34 -71 -44 -94l-10 -23l-9 -24q-5 -13 -16 -47q-17 -62 11 -72q21 -6 44 -1q18 4 47 16q83 40 168 119
q77 74 134 158q6 9 15 3t3 -15q-66 -88 -140 -159q-93 -86 -171 -125q-28 -14 -50 -21q-33 -10 -60 -4q-18 4 -30 19q-10 13 -14 32q-5 28 2 59l7 27q1 4 2.5 8.5t3.5 9.5t3 8l9 25l11 25q9 24 43 96q81 166 178 330l-7 -7l-68 -65q-8 -8 -35 -30l-36 -31q-16 -14 -73 -57
q-148 -110 -319 -195q-150 -74 -327 -132q-116 -255 -211 -492q-66 -168 -114 -311q-48 -142 -72 -248q8 0 13 -6q6 -8 1 -16l-36 -61q-5 -10 -16.5 -13t-21.5 3q-17 10 -13 29l1 5q18 81 43 164q5 16 15 46t11 34l27 79q52 144 122 311q93 226 204 461q-327 -99 -705 -130
h-4h-4h-3q-69 -76 -129 -144q-132 -150 -237 -284q-135 -172 -211 -302q-7 -12 -20 -5q-10 6 -6 17q27 79 58 157q37 93 70 154q5 11 16.5 14.5t22.5 -2.5t14.5 -17t-2.5 -22q-1 -1 -1 -2h-1q-22 -35 -48 -83q36 51 82 111q104 136 236 288q39 45 102 116q-332 -21 -681 10
q-12 1 -19.5 10t-6.5 21t10.5 19.5t21.5 6.5q373 -36 723 -13q162 180 352 378q254 263 526 524q144 139 270 255q79 72 138 124q41 36 71 61q23 19 37 30q25 20 40 30l10 4q11 22 36 19q14 -2 22.5 -13.5t6.5 -25.5q-3 -22 -24 -28q-19 -6 -37 -23q-3 -3 -6.5 -7.5t-6 -8
t-6 -8.5t-6.5 -8q-16 -23 -47 -68q-48 -72 -89 -140q-76 -126 -164 -289q-164 -303 -300 -594q-4 -9 -9 -20t-10.5 -23.5t-9.5 -19.5q153 50 284 114q169 82 315 188q58 43 73 56l36 29q26 22 34 30l68 62l63 67q32 35 65 75q19 29 29 45q-300 -26 -363 -49q-7 -3 -11 -3
q-6 0 -10 4q-7 7 -4 15q2 8 33 22.5t62.5 26t41.5 13.5q6 0 11 -3.5t5 -9.5q2 -8 -5 -13q108 14 261 27l19 28q6 8 18.5 24.5t13.5 18.5q18 22 35 43q12 19 19 30q6 9 16 6q0 1 0.5 1.5t1.5 0.5q6 7 15 6.5t15 -7t6 -15t-6 -14.5l-1 -2q-30 -31 -65 -77q-1 -2 -11.5 -16
t-15.5 -22q502 38 736 11zM1333 -133q1 1 5 2t6 2q2 5 10.5 22.5t12 25.5t10 21.5t11.5 24.5q169 347 304 593q89 163 166 290q42 68 90 140q8 11 19 28q-34 -29 -47 -40q-59 -51 -138 -122q-127 -115 -272 -252q-274 -257 -530 -518q-172 -175 -327 -343q367 30 680 126z
" />
    <glyph glyph-name="Au.liga" unicode="Au" horiz-adv-x="2628" 
d="M2638 27.5q9 -6.5 2 -15.5v-1q-16 -19 -67 -65q-25 -21 -71 -58q-42 -31 -76 -51q-49 -29 -86 -40q-30 -9 -53 -3l-8 2q-3 1 -9 5q-5 4 -8 8q-4 7 -5 9q-5 15 -4 32q2 20 13 49q6 16 19 43q1 2 12 22q-38 -37 -72 -60q-17 -11 -30 -16q-11 -4 -21 -4q-5 0 -7 1l-8 2
q-7 3 -12 9q-9 10 -9 25q-1 10 1 20q3 14 11 33q16 36 48 87l-123 -9q-133 -10 -153 -12l-191 -20l-37 -6l-76 -11h-2.5h-2.5q-3 -7 -12 -25.5t-13 -28.5q-148 -314 -266 -609q-66 -168 -114 -311q-47 -142 -72 -248q9 0 13 -6q6 -8 1 -16l-35 -61q-6 -10 -17 -13t-21 3
q-18 10 -13 29l1 5q17 81 43 164q4 16 14 46t11 34l28 79q51 144 121 311q122 296 274 609q2 5 7.5 15.5t8.5 16.5q-56 -8 -256 -44q-221 -48 -298 -70q-39 -10 -87 -23q-161 -170 -290 -317q-132 -150 -237 -284q-134 -172 -211 -302q-7 -12 -20 -5q-10 6 -6 17
q27 79 58 157q38 94 70 154q6 11 17.5 14.5t22 -2t14 -17t-2.5 -22.5q0 -1 -1 -2q-23 -35 -49 -82q36 49 83 110q104 136 235 288q111 129 241 271q-216 -66 -416 -149q-110 -45 -279 -126q-19 -9 -120 -60t-157 -76q-11 -5 -22.5 -0.5t-16 15.5t-0.5 22t15 16l1 1
q54 23 155.5 72t121.5 59q170 80 282 124q238 95 496 165q105 113 201 214q255 263 526 524q144 139 271 255q78 72 138 124q40 36 70 61q24 20 37 30q25 20 41 30q4 2 9 4q11 22 36 19q14 -3 22.5 -14t6.5 -25q-3 -22 -24 -28q-19 -6 -36 -23q-4 -4 -8.5 -9.5t-9.5 -12.5
t-8 -10q-16 -23 -47 -68q-48 -72 -89 -140q-76 -126 -164 -289q-135 -250 -255 -501l57 7l38 5l39 4l153 14q20 2 154 11l147 8q12 7 23 0q7 -5 9 -14t-3 -16v-1q-48 -67 -64 -102q-7 -14 -10 -25q-3 -8 -1 -14v0h1q4 0 9 1q10 3 24 12q40 24 93 75q23 21 43 43q25 29 37 47
q5 8 14 4q3 -1 5 -2q7 -5 3 -13q-13 -30 -40.5 -84t-39.5 -78q-23 -51 -29 -79q-2 -9 -1 -13v-2v0l4 -2q14 -6 37 -3q36 5 81 30q34 19 76 49q29 21 70 56q16 15 32 31q21 22 29 33l1 1q6 9 15 2.5zM1308 -8q218 36 283 44q147 302 268 522q89 163 167 290q41 68 90 140
q8 13 19 28q-35 -29 -47 -40q-60 -51 -139 -122q-127 -115 -272 -251q-273 -258 -530 -519q-72 -73 -158 -163q3 1 9 2.5t9 1.5q78 21 301 67z" />
    <glyph glyph-name="Ba.liga" unicode="Ba" horiz-adv-x="2639" 
d="M2649 16q8 -7 1 -16q-64 -66 -121 -113q-29 -24 -67 -49q-18 -12 -36 -22q-24 -12 -42 -16q-14 -4 -26 -2q-18 2 -30 15q-6 7 -9 14t-4 17q0 13 3 26q8 30 33 74q-17 -11 -33 -19q-20 -9 -37 -15q-26 -8 -45 -6q-18 2 -29 14.5t-11 31.5q0 24 8 44q27 65 96 114
q-60 -11 -135 -32q-84 -24 -186 -60q-60 -22 -136 -53q5 -19 7 -38q3 -27 0 -56q-4 -29 -12 -54q-15 -43 -51 -93q-49 -68 -136 -149q-127 -117 -313 -244q-165 -112 -337 -207q-400 -220 -725 -316q-108 -31 -196 -43q-21 -3 -50 -5q-31 -1 -54 2q-18 2 -31 8q-10 4 -17 10
q-9 8 -14 20q-7 18 1 40q4 13 14 27q21 29 72 74q34 30 77 63q66 53 158 117q277 190 672 408q380 208 702 353q95 43 174 76q-21 65 -79 100q-19 12 -39 18q-22 7 -44 10q-42 7 -93 7q-81 -1 -190 -22q-87 -17 -188 -47q-97 -29 -199 -67q-85 -46 -162 -80q-11 -5 -22 -0.5
t-16 15.5t-0.5 22t14.5 16q266 125 544 338q128 99 246 208q126 115 226 228q57 65 101 124q56 73 86 131q21 40 28 69q5 18 4 30q-1 11 -5 15q-6 6 -25 9q-17 2 -36 -1q-32 -5 -73 -25q-59 -30 -136 -85q-57 -41 -127 -99q-110 -91 -242 -215q-378 -359 -893 -939
q-400 -451 -839 -990v-0.5t-1 -0.5q-1 -2 -2 -3q-1 0 -2 -1t-3 -2l-1 -1q-2 -1 -4 -1q-1 0 -2 -1q-2 0 -3 -1h-2h-4h-2q-2 1 -3 1t-2 1q-2 0 -4 1l-1 1q-1 0 -1.5 0.5t-1 0.5t-0.5 0.5t-1 0.5q0 1 -0.5 1h-0.5l-3 3t-1 2q-1 1 -2 3q-1 0 -1 2q-1 1 -1 3q-1 1 -1 2.5
t-0.5 2.5t-0.5 3v2.5v2.5t0.5 2.5t1.5 3.5q0 1 1 2q0 1 1 3l1 1v0q57 84 196 263q81 106 201 257l406 510q265 332 405 511q119 153 198 258q57 76 96 131q27 39 45 67q13 20 21 34q5 11 8 17v1q-5 -1 -10 -3q-11 -5 -26 -13q-22 -12 -51 -33q-45 -31 -99 -74
q-48 -40 -93 -81q-56 -51 -87 -87q-8 -9 -20 -9.5t-21 7.5t-9.5 20t7.5 21l1 1q35 36 96 85q48 39 100 77q58 42 105 71q32 19 56 31q17 8 31 13q10 3 18 4t12 0q10 -1 16 -7v-1q6 -5 6 -13q0 -4 -1 -9q-1 -4 -4 -12t-10 -20q-8 -15 -21 -36q-18 -29 -45 -68
q-38 -56 -95 -133q-78 -106 -196 -261q-138 -181 -399 -516l-261 -335q165 187 280 314q217 240 441 476q257 269 460 460q133 125 244 215q70 58 129 100q78 56 140 86q31 16 38 18q15 8 39 16q27 9 45 11q12 1 25 0q15 -2 28 -9q14 -8 24 -23q8 -14 10 -30q2 -23 -4 -50
q-9 -36 -33 -82q-32 -62 -89 -140q-46 -62 -104 -129q-102 -118 -228 -235q-120 -111 -250 -211q-108 -83 -216 -152q1 0 2 0.5t2 0.5q230 75 390 80q56 2 103 -6q26 -3 51 -11q26 -8 51 -22q49 -29 80 -76q16 -23 26 -51q77 31 135 52q102 38 187 62q104 30 183 40
q24 10 46 8q15 -3 26 -11q13 -10 16 -25q5 -24 -10 -46q-6 -9 -15 -3q-5 4 -5 10v1q0 20 -5 26q-1 2 -5 3q-5 2 -7 2q-14 -1 -24 -7q-12 -5 -28 -16q-28 -19 -50 -44q-25 -27 -36 -53q-5 -11 -7 -27v-2h1q0 -1 2 -1q9 -2 27 2q14 4 31 11q37 16 62 32q21 14 36 26l1 1l1 1
q11 15 25 33q18 22 28 32q6 7 15 7.5t15 -6.5q6 -5 7 -13.5t-5 -15.5l-1 -1q-10 -13 -23 -31l-24 -32q-18 -26 -44 -67q-26 -42 -34 -67q-2 -7 -3 -13q0 -3 1 -4l1 -3t6 -4q6 -2 14 -2q31 3 71 25q28 15 67 44q61 48 117 112q7 9 15 2zM1161 811q1 -2 3 -2q-1 0 -2 1
q-1 0 -1.5 0.5l-0.5 0.5v0h1zM1792 -81q-1 10 -3 22q-86 -35 -172 -75q-346 -157 -699 -355q-393 -222 -666 -414q-91 -64 -156 -117q-44 -36 -72 -65q-41 -42 -58 -73q-5 -10 -7 -18v-7l5 -1q7 -2 17 -3t45 2q18 1 47 5q82 12 186 43q162 48 363 139q174 79 348 176
q182 103 332 203q184 124 308 236q83 77 129 139q31 43 43 78q14 43 10 85zM2240 -52z" />
    <glyph glyph-name="Bh.liga" unicode="Bh" horiz-adv-x="2592" 
d="M2685 648q7 -10 6 -21q-1 -8 -5 -16q-4 -6 -16 -17q-20 -21 -61 -48q-16 -11 -32 -21l-2 -2q-57 -77 -139 -208q-89 -143 -153 -258q-50 -88 -72 -131q-8 -16 -16 -31q38 46 67 72q14 12 22 18q14 10 27 14q10 3 19 2h5l4 -1l8 -2q11 -4 18 -10q9 -9 13 -21q4 -16 -2 -38
q-4 -13 -12 -27q-3 -6 -27 -45q-7 -12 -10 -19q0 -1 -1 -1v-1h5q1 -1 2 -1q10 -1 22 0q43 2 91 30q21 13 41 28q19 16 38 34q41 41 63 78v1q6 10 15 4t4 -15l-1 -1q-25 -35 -67 -81q-19 -20 -38 -36q-22 -20 -41 -34q-53 -39 -100 -47q-16 -3 -29 -2q-13 0 -16 1
q-14 3 -22 10q-13 11 -12 28q0 9 3 20q4 11 13 27q5 9 14 23.5t12 20.5q7 12 10 19q3 9 3 13q0 1 -1 1q-1 2 -4 4q-1 1 -4 2l-3 2q-2 1 -7 1q-18 0 -41 -17q-33 -24 -71 -71q-16 -20 -31 -41q-14 -21 -19 -30q-3 -8 -5 -13v-1q-3 -9 -10.5 -13t-16.5 -1.5t-13 10t-2 16.5
q8 26 29 74q14 30 33 68q35 70 71 134q81 144 155 259q50 78 82 126q-354 -204 -647 -379q-8 -5 -22.5 -13.5t-20.5 -12.5q35 -37 51 -84q19 -54 10 -115q-2 -14 -5 -28q-6 -20 -9 -28q-8 -22 -25 -51q-26 -41 -65 -87q-60 -68 -151 -146q-139 -117 -335 -245
q-165 -107 -357 -208q-196 -102 -376 -175q-229 -92 -397 -123q-59 -11 -106 -13q-15 -1 -28 0q-20 1 -33 6q-12 5 -20 12q-12 11 -14 26q-3 18 8 40q11 20 36 45q16 17 39 37q31 26 81 65q135 106 334 241q275 186 693 444q284 175 607 367q-30 25 -66 35q-43 12 -95 14
q-85 4 -199 -16q-92 -16 -197 -47t-217 -72q-85 -46 -162 -80q-11 -5 -22 -0.5t-16 15.5t-0.5 22t14.5 16q266 125 544 338q128 99 246 208q126 115 226 228q57 65 101 123q56 74 86 132q21 40 28 69q5 18 4 30q-1 11 -5 15q-6 6 -25 9q-17 2 -36 -1q-32 -5 -73 -26
q-59 -30 -136 -84q-57 -41 -127 -99q-110 -91 -242 -215q-378 -359 -893 -939q-400 -451 -839 -990v-0.5t-1 -0.5q-1 -2 -2 -3q-1 0 -2 -1t-3 -2l-1 -1q-2 -1 -4 -1q-1 -1 -2 -1q-2 0 -3 -1h-2h-4h-2q-2 1 -3 1t-2 1q-2 0 -4 1l-1 1q-1 0 -1.5 0.5t-1 0.5t-0.5 0.5t-1 0.5
l-0.5 0.5l-0.5 0.5l-3 3t-1 2q-1 1 -2 2.5t-1 2.5q-1 1 -1 3q-1 1 -1 2t-0.5 2.5t-0.5 2.5v3.5v2.5q1 1 1 2.5t1 3.5q0 1 1 2q0 1 1 3l1 1v0q58 84 196 263q81 106 201 257l406 510q265 332 405 511q119 153 198 258q57 77 96 131q27 39 45 67q13 20 21 34q5 11 8 17v1
q-4 -1 -10 -3q-11 -5 -26 -13q-22 -12 -51 -33q-45 -31 -98 -75q-49 -39 -94 -80q-56 -51 -87 -87q-8 -9 -20 -9.5t-21 7.5t-9.5 19.5t7.5 20.5q0 1 1 2q35 35 96 85q48 39 100 77q58 42 105 71q32 19 56 31q17 8 31 13q10 3 18 4t12 0q10 -1 16 -7v-1q6 -5 6 -13
q0 -4 -1 -9q-1 -4 -4 -12t-9 -20q-9 -15 -22 -36q-18 -29 -45 -68q-38 -56 -95 -133q-77 -106 -196 -261q-137 -180 -399 -516l-261 -335q164 186 280 314q217 240 441 476q257 269 460 460q133 124 244 215q71 58 129 100q79 56 140 86q31 15 38 18q15 8 39 16q27 9 45 11
q12 1 25 0q15 -2 28 -9q14 -8 24 -23q8 -14 10 -30q3 -23 -4 -50q-9 -36 -32 -82q-33 -62 -90 -140q-45 -62 -104 -129q-102 -118 -228 -235q-120 -111 -250 -211q-108 -83 -216 -152q2 1 9.5 3.5t12.5 3.5q116 37 214.5 56.5t196.5 17.5q58 -2 108 -15q57 -15 101 -55
q0 -1 0.5 -1.5l0.5 -0.5q5 3 21 13t25 15q420 250 679 400q37 52 67 90q33 40 54 58q14 10 24 13q6 2 12 2q4 0 8 -2q2 0 3 -1l1 -1q8 -4 14 -11zM1161 811q1 -2 3 -2q-1 0 -1.5 0.5l-0.5 0.5l-0.5 0.5t-1.5 0.5h1zM-22 -1188v-1v1zM1784 -42q-14 41 -46 73
q-342 -206 -609 -372q-416 -262 -688 -450q-93 -64 -168 -118q-107 -79 -162 -126q-43 -37 -74 -69q-19 -20 -32 -38q-9 -10 -15 -19.5t-10 -17.5l-2 -6h1q6 -2 18 -2q4 0 23 1q46 4 98 14q163 31 386 122q176 73 368 175q176 93 353 206q193 124 330 238q87 74 145 139
q18 21 31.5 38.5t27 38.5t21.5 42.5t11 42.5q7 47 -7 88zM2322 -163zM2653 621h-1q2 0 4 -1h1v1.5v1.5l-1 2q-1 0 -1 -3q0 -1 -2 -1zM2628 583q19 17 24 26q3 4 4 10l-5 -5q-18 -14 -45 -48q11 7 22 17z" />
    <glyph glyph-name="Bl.liga" unicode="Bl" horiz-adv-x="2552" 
d="M2646 696q19 -3 27.5 -17t7.5 -28q0 -17 -9 -40q-2 -5 -16 -32q-32 -63 -70 -120q-60 -89 -166 -219q-33 -41 -89 -105q-58 -65 -96 -100q-16 -42 -23 -76q-9 -36 -7 -61q2 -30 20 -45q9 -8 22 -11.5t30 -3.5q25 0 63 16q60 26 115 70q54 42 99 92q7 8 15 1t1 -15l-1 -1
q-122 -118 -221 -166q-32 -15 -67 -24q-21 -6 -39 -5q-24 1 -42 13t-28 34q-9 19 -11 41q-3 31 5 75q2 6 7 23l-20 -12q-34 -22 -82 -50q-68 -39 -167 -91q-28 -15 -71 -37q-7 -18 -20 -42q-42 -69 -125 -152q-115 -112 -299 -243q-158 -111 -323 -206q-372 -213 -694 -323
q-102 -34 -185 -53q-119 -27 -195 -25q-17 1 -28 3q-9 2 -16 5q-12 6 -20 15q-5 7 -7 15q-2 7 -1 16q2 9 8 19q7 10 20 22q25 22 81 56q100 60 166 96q210 115 679 343q413 199 684 333q92 45 196 98q7 10 8 11q13 25 18 38q2 5 6 20q3 9 5 20q6 43 -5 82q-10 39 -38.5 71
t-66.5 47q-37 15 -85 20q-40 4 -91 2q-77 -3 -184 -25q-84 -17 -182 -47q-93 -28 -187 -63q-84 -46 -162 -80q-11 -5 -22 -0.5t-16 15.5t-0.5 22t14.5 16q266 125 545 338q127 99 245 208q126 115 226 228q57 65 101 124q56 73 86 131q21 40 29 69q4 18 3 30q-1 11 -5 15
q-6 6 -25 9q-17 2 -36 -1q-32 -5 -73 -25q-59 -30 -136 -85q-57 -41 -127 -99q-110 -91 -242 -215q-378 -359 -893 -939q-400 -451 -838 -990h-1v-1l-3 -3q-1 0 -2 -1t-3 -2l-1 -1q-2 -1 -4 -1l-2 -1q-2 0 -3 -1h-2h-4h-1q-3 1 -4 1t-2 1q-2 0 -4 1l-1 1q-1 0 -1.5 0.5
l-0.5 0.5l-0.5 0.5t-1.5 0.5v1h-1l-3 3t-1 2q-1 1 -2 3q-1 1 -1 2q-1 1 -1 3q-1 1 -1 2q0 2 -0.5 3t-0.5 3v2.5v2.5q1 1 1 2.5t1 3.5q0 1 1 2q0 1 1 3l1 1v0q58 84 196 263q81 105 201 257l406 510q265 332 405 511q119 153 198 258q57 77 96 131q27 38 45 67q13 20 21 34
q5 11 8 17v1q-5 -1 -10 -3q-11 -5 -26 -13q-22 -12 -51 -33q-44 -31 -98 -74q-49 -40 -94 -81q-56 -51 -87 -87q-8 -9 -20 -9.5t-21 7.5t-9.5 20t7.5 21l1 1q35 35 96 85q48 39 100 77q58 42 105 71q32 19 56 31q17 8 31 13q10 3 18 4t12 0q10 -1 16 -7v-1q6 -5 6 -13
q0 -4 -1 -9q-1 -4 -4 -12t-9 -20q-9 -15 -22 -36q-18 -29 -45 -68q-38 -56 -95 -133q-78 -106 -196 -261q-138 -181 -399 -516l-261 -335q164 186 280 314q217 240 441 476q257 269 460 460q133 124 244 215q71 58 129 100q79 56 140 86q31 15 38 18q15 8 39 16q27 9 45 11
q12 1 25 0q15 -2 28 -9q14 -8 24 -23q8 -14 10 -30q3 -23 -4 -50q-9 -36 -32 -82q-33 -62 -90 -140q-45 -62 -104 -129q-102 -118 -228 -235q-120 -111 -250 -211q-109 -83 -216 -152q215 70 368 80q120 6 200 -23q50 -20 88 -61t52 -93q15 -51 7 -106q-2 -14 -5 -26
q-1 -3 -3 -10q7 4 17.5 9.5t20.5 10.5l18 9q98 52 166 91q47 28 81 50q25 16 36 25q13 38 32 83q26 58 63 125q66 118 146 235q44 63 82 111q27 34 45 53q31 33 52 50q9 7 17 12q5 3 11 5q10 3 18 3zM1161 811q1 -2 3 -2q-1 0 -1.5 0.5t-1 0.5t-0.5 0.5t-1 0.5h1zM-32 -1196
q1 0 1 2zM1645 -349q58 56 92 102l-172 -86l-682 -336q-466 -233 -674 -350q-112 -64 -161 -100q-46 -35 -68 -60q-4 -4 -7 -8q9 -1 20 0q83 3 181 27q80 19 179 53q155 54 347 146q169 80 334 176q177 103 319 201q181 127 292 235zM2640 654h2h-1h-1zM2643.5 620
q3.5 18 0.5 28q0 3 -1 5q-1 -1 -4 -2q-5 -3 -11 -9q-19 -16 -46 -46q-26 -30 -43 -52q-41 -51 -81 -108q-84 -118 -144 -231q-35 -65 -60 -121q0 -1 -0.5 -2l-0.5 -1q24 23 65 66q35 38 89 103q91 111 162 220q20 31 36 58q21 38 29 61q6 13 9.5 31z" />
    <glyph glyph-name="Br.liga" unicode="Br" horiz-adv-x="2629" 
d="M2632 8q10 -5 5 -15q-29 -50 -75 -107q-49 -60 -88 -95q-24 -22 -51 -41q-37 -25 -62 -32q-21 -6 -40 -1q-24 5 -37 24q-13 16 -17.5 37t-1.5 40q1 3 2 10l3 8q5 15 6 17q6 15 16 32q6 9 13 18t15 19l12 15q5 7 7 11q2 3 3 7q1 0 0 1.5t-3 5t-5 6.5q-3 4 -11 12
q-4 -4 -21 -16q-18 -12 -42 -26q-34 -20 -84 -47q-70 -36 -173 -85q-88 -42 -236 -111q-35 -45 -92 -100q-121 -115 -304 -243q-161 -111 -328 -206q-380 -215 -704 -321q-103 -33 -189 -50q-57 -12 -98 -15q-29 -3 -50 -2q-16 0 -28 2q-21 3 -34 11q-7 5 -11 12q-6 8 -6 18
q0 12 8 25q7 10 20 23q16 12 42 29q23 14 86 48q101 55 171 89q225 113 697 326l701 316q1 0 2.5 0.5t2.5 1.5q15 15 27 27.5t26 28t24.5 29.5t21 30.5t18 31.5t13.5 31.5t8.5 33t2 34t-4.5 34.5q-8 41 -35 74.5t-65 51.5q-8 4 -19 7q-11 4 -21 7q-21 5 -44 8q-42 5 -91 3
q-78 -2 -187 -24q-86 -17 -184 -46q-94 -29 -191 -65q-85 -46 -162 -80q-11 -5 -22 -0.5t-16 15.5t-0.5 22t14.5 16q266 125 544 338q128 99 246 208q126 115 226 228q57 65 101 124q56 73 86 131q21 40 28 69q5 18 4 30q-1 11 -5 15q-6 6 -25 9q-17 2 -36 -1
q-32 -5 -73 -25q-59 -30 -136 -85q-57 -41 -127 -99q-110 -90 -242 -215q-378 -359 -893 -939q-400 -450 -839 -990v-0.5t-1 -0.5q-1 -2 -2 -3q-1 0 -2 -1q-2 -1 -3 -2l-1 -1q-2 -1 -4 -1q-1 -1 -2 -1q-2 0 -3 -1h-2h-4h-2q-2 1 -3 1t-2 1q-2 0 -4 1l-1 1q-1 0 -1.5 0.5
t-1 0.5t-0.5 0.5t-1 0.5q0 1 -0.5 1h-0.5l-3 3q0 1 -1 2t-2 3q-1 1 -1 2q-1 1 -1.5 2.5t-0.5 2.5t-0.5 2.5t-0.5 2.5v3.5v2.5q1 1 1 2.5t1 3.5q0 1 1 2q0 1 1 3l1 1v0q58 84 196 263q81 106 201 257l406 510q264 330 405 511q119 153 198 258q57 76 96 131q27 39 45 67
q13 20 21 34q5 11 8 17v1q-4 -1 -10 -3q-11 -5 -26 -13q-22 -12 -51 -33q-45 -31 -99 -75q-48 -39 -93 -80q-56 -51 -87 -87q-8 -9 -20 -9.5t-21 7.5t-9.5 19.5t7.5 21.5l1 1q35 35 96 85q48 39 100 77q58 42 105 71q32 19 56 31q17 8 31 13q10 3 18 4t12 0q10 -1 16 -7v-1
q6 -5 6 -13q0 -4 -1 -9q-1 -4 -4 -12t-10 -20q-8 -15 -21 -36q-18 -29 -45 -68q-38 -56 -95 -133q-78 -107 -196 -261q-138 -181 -399 -516l-261 -335q164 185 280 314q217 240 441 476q257 269 460 460q133 124 244 215q71 58 129 100q78 56 140 86q31 16 38 18q15 8 39 16
q27 9 45 11q12 1 25 0q15 -2 28 -9q14 -8 24 -23q8 -14 10 -30q3 -23 -4 -50q-9 -36 -33 -82q-32 -62 -89 -140q-45 -62 -104 -129q-102 -118 -228 -235q-120 -111 -250 -211q-108 -83 -216 -152q221 72 377 81q54 2 101 -3q26 -3 50 -9q12 -2 25 -7q15 -4 26 -10
q50 -22 86 -66t47 -97q12 -52 0 -108l-3 -13l-4 -13q-3 -9 -10 -26q-11 -24 -25 -46q-7 -11 -18 -26q120 56 210 100q102 49 172 86q49 26 84 46q23 14 40 26q13 9 19 14q-13 15 -21 27q-11 20 -11 40q1 23 11 40q12 21 33 28q25 8 46 -7q17 -14 21.5 -36t-3.5 -39
q-8 -24 -32 -42q7 -6 9 -8q8 -9 12 -17q8 -13 7 -26q0 -7 -3 -14q-2 -6 -4 -9q-4 -7 -10 -17q-5 -6 -13 -16.5t-14 -18t-11 -15.5q-8 -14 -12 -25q-1 -2 -2 -4.5l-2 -5t-1 -4.5l-2 -6q-2 -5 -2 -6q-1 -11 2 -24q2 -12 8 -20q12 -17 38 -16q26 2 55 19q22 12 51 36
q49 42 87 91q45 55 69 106q5 10 15 5zM1161 811q1 -2 3 -2q-1 0 -1.5 0.5t-1 0.5t-0.5 0.5t-1 0.5h1zM-28 -1199l1 1zM1335 -596q170 117 285 223l-665 -304q-469 -217 -693 -332q-116 -61 -168 -92q-43 -27 -78 -54q-22 -18 -33 -30l-2 -2q9 -1 20 0q36 3 45 4q48 6 92 15
q83 17 182 50q160 53 353 144q168 78 338 176q186 106 324 202zM2320 82q-5 -9 -4 -22q0 -10 7 -21q5 -8 16 -19q18 16 23 33q3 13 0 24q-4 12 -12 17q-8 4 -16 1t-14 -13z" />
    <glyph glyph-name="Bu.liga" unicode="Bu" horiz-adv-x="2657" 
d="M2672 5.5q9 -6.5 2 -15.5v-1q-16 -19 -67 -65q-25 -22 -71 -58q-42 -31 -76 -52q-50 -28 -86 -40q-30 -8 -54 -2l-7 2q-3 1 -9 5q-5 4 -8 8q-4 7 -5 9q-5 15 -4 32q2 20 13 49q6 16 19 43q1 2 12 22q-38 -37 -72 -60q-17 -11 -30 -16q-11 -4 -22 -4q-4 0 -6 1l-8 2
q-7 3 -12 9q-9 10 -9 25q-1 10 1 20q3 14 11 33q15 35 46 83q-76 -10 -166 -34q-83 -23 -182 -58q-7 -2 -18 -6t-15 -5q6 -44 -3 -90q-3 -11 -8 -26t-10 -25q-9 -22 -25 -46q-43 -68 -130 -151q-120 -115 -304 -243q-163 -113 -328 -206q-381 -215 -706 -321
q-103 -33 -189 -50q-58 -11 -98 -14q-30 -3 -51 -2q-37 2 -58 12q-10 5 -16 11q-9 9 -13 20q-5 18 3 39t30 46q15 17 36 36q20 18 37 32q72 61 153 119q135 96 324 211q157 95 334 192q374 205 689 345q152 67 274 114q0 1 -0.5 2l-0.5 1q-8 40 -34.5 74t-64.5 52
q-7 4 -19 8q-13 4 -21 6q-22 6 -44 9q-42 5 -92 3q-77 -2 -186 -23q-86 -18 -184 -47q-95 -29 -192 -65q-85 -46 -162 -80q-11 -5 -22 -0.5t-16 15.5t-0.5 22t14.5 16q266 125 544 338q128 99 246 208q126 115 226 228q57 65 101 124q56 73 86 131q21 40 28 69q5 18 4 30
q-1 11 -5 15q-6 6 -25 9q-17 2 -36 -1q-32 -5 -73 -25q-59 -30 -136 -85q-57 -41 -127 -99q-110 -90 -242 -215q-378 -359 -893 -939q-400 -451 -839 -990v-0.5t-1 -0.5q-1 -2 -2 -3q-1 0 -2 -1t-3 -2q-1 0 -1 -1q-2 -1 -4 -1q-1 -1 -2 -1q-2 0 -3 -1h-2h-4h-2q-2 1 -3 1
t-2 1q-2 0 -4 1l-1 1q-1 0 -1.5 0.5t-1 0.5t-0.5 0.5t-1 0.5q0 1 -0.5 1h-0.5l-3 3q0 1 -1 2t-2 3q-1 0 -1 2q-1 1 -1 3q-1 0 -1 1.5t-0.5 3t-0.5 2.5v3.5v2.5q1 1 1 2.5t1 3.5q0 1 0.5 2l1.5 3l1 1v0q58 84 196 263q81 105 201 257l406 510q85 107 138.5 174t128.5 162
t138 175q120 153 198 258q57 77 96 131q27 38 45 67q13 20 21 34q5 11 8 17v1q-5 -1 -10 -3q-11 -5 -26 -13q-22 -12 -51 -33q-44 -31 -98 -74q-49 -40 -94 -81q-56 -51 -87 -87q-8 -9 -20 -9.5t-21 7.5t-9.5 20t7.5 21l1 1q35 36 96 85q48 39 100 77q58 42 105 71
q32 19 56 31q17 8 31 13q10 3 18 4t12 0q10 -1 16 -7v-1q6 -5 6 -13q0 -4 -1 -9q-1 -4 -4 -12t-9 -20q-9 -15 -22 -36q-18 -29 -45 -68q-38 -55 -95 -133q-78 -107 -196 -261q-138 -181 -399 -516l-261 -335q165 186 280 314q217 240 441 476q257 269 460 460
q133 124 244 215q71 58 129 100q79 56 140 86q31 15 38 18q15 8 39 16q27 9 45 11q12 1 25 0q15 -2 28 -9q14 -8 24 -23q8 -14 10 -30q3 -23 -4 -50q-9 -35 -32 -82q-33 -62 -90 -140q-45 -62 -104 -129q-102 -118 -228 -235q-120 -111 -250 -211q-108 -83 -216 -152
q222 72 378 81q54 2 101 -3q25 -3 50 -9q10 -2 26 -7q15 -5 25 -10q49 -22 84 -64.5t47 -94.5q3 1 13 5l15 6q100 36 184 59q111 31 191 41h3q12 10 26 2q7 -5 9 -14t-3 -16v-1q-48 -68 -64 -102q-7 -14 -10 -25q-2 -8 -1 -14v0h1q4 -1 9 1q10 3 24 12q40 24 93 75
q23 21 43 43q25 29 37 47q5 8 14 4q3 -1 5 -2q7 -6 3 -13q-13 -30 -40.5 -84t-39.5 -78q-23 -51 -29 -79q-2 -9 -1 -13v-2v0l4 -2q14 -6 37 -3q36 5 81 30q34 19 76 49q29 21 70 56q16 14 32 31q22 22 29 33l1 1q6 9 15 2.5zM1161 811q1 -2 3 -2q-1 0 -1.5 0.5t-1 0.5
t-0.5 0.5t-1 0.5h1zM1632 -362q38 37 61.5 63t50.5 63t39.5 73.5t9.5 73.5q-128 -48 -268 -111q-347 -154 -687 -344q-176 -98 -332 -194q-187 -115 -320 -212q-100 -73 -150 -119q-18 -17 -33.5 -34.5t-28.5 -34.5q-15 -22 -18 -36v-9q0 1 4 -1q13 -4 37 -3q4 0 22 1
q14 1 23 3q50 5 92 14q83 17 183 50q160 53 353 143q168 79 339 176q184 106 324 202q181 125 299 236z" />
    <glyph glyph-name="Ca.liga" unicode="Ca" horiz-adv-x="2309" 
d="M2324.5 18q8.5 -7 1.5 -15v-1q-64 -65 -121 -112q-29 -25 -67 -50q-18 -12 -36 -22q-24 -12 -42 -16q-14 -3 -26 -2q-18 2 -30 15q-6 7 -9 14q-3 8 -4 17q0 13 3 27q8 30 33 74q-17 -12 -33 -19q-20 -10 -37 -16q-26 -7 -45 -6q-18 3 -29 15.5t-11 30.5q0 13 3 27
l-52 -51l-144 -141q-159 -156 -292 -278q-153 -141 -303 -265q-177 -145 -322 -244q-193 -133 -355 -196q-52 -20 -100 -29q-60 -11 -108 -4q-60 10 -104 47q-19 16 -38 41q-18 21 -31 46q-46 87 -44 209q2 94 32 206q45 167 155 377q88 167 212 347q111 162 243 323
q124 151 269 302q152 158 296 277q181 150 334 233q105 57 191 78q57 14 107 11q59 -4 105 -30q49 -27 78 -78q25 -43 35 -102q14 -91 -8 -207q-20 -98 -62 -194q-26 -58 -55 -106q2 -1 4 -3q10 -11 -1 -20v-1l-55 -48q-10 -9 -19 2q-8 8 -1 18q55 68 98 170q39 94 55 189
q20 111 5 193q-10 51 -31 88q-24 40 -64 61q-37 20 -87 23q-42 2 -93 -11q-80 -21 -178 -77q-147 -83 -322 -232q-295 -254 -555 -573q-277 -341 -446 -661q-105 -200 -151 -365q-28 -105 -31 -191q-3 -107 36 -181q20 -39 55 -70q31 -28 76 -38q75 -18 187 14q83 25 181 79
q83 45 171 104q145 100 318 244q131 109 302 265q132 123 291 277l143 141l72 71l37 35q5 4 14 12q24 26 58 49q21 13 36 19q24 10 47 8q15 -3 26 -11q13 -10 16 -25q5 -23 -10 -45q-6 -10 -15 -3q-5 3 -5 9v1q0 20 -5 26q-2 2 -5 4q-5 1 -7 1q-14 -1 -24 -6q-12 -5 -28 -16
q-29 -20 -50 -45q-25 -27 -36 -53q-5 -10 -7 -26v-3q1 -1 3 -1q9 -2 27 3q14 3 31 11q37 15 62 32q21 13 36 25l0.5 1l0.5 1q12 16 26 33q17 22 27 33q7 6 16 6.5t15 -5.5t6.5 -14.5t-4.5 -14.5l-1 -2q-10 -13 -23 -31l-24 -32q-18 -25 -44 -66q-26 -42 -34 -68
q-2 -7 -3 -13q0 -2 1 -3q0 -1 1 -4t6 -4q6 -2 14 -1q31 2 71 24q28 15 67 45q61 47 116 112q7 8 15.5 1zM1916 -50z" />
    <glyph glyph-name="Cl.liga" unicode="Cl" horiz-adv-x="2253" 
d="M2342 658q20 -3 28.5 -17t7.5 -28q0 -17 -9 -39q-2 -6 -16 -33q-32 -63 -70 -120q-60 -89 -166 -219q-33 -40 -89 -105q-58 -65 -96 -99q-16 -43 -24 -77q-8 -36 -6 -61q2 -30 20 -45q9 -7 22 -11t29 -4q26 0 63 16q61 27 116 70q54 42 99 93q7 8 15 0.5t1 -15.5h-1
q-122 -118 -221 -167q-32 -14 -68 -24q-20 -5 -38 -5q-24 1 -42 13t-28 35q-9 18 -11 40q-3 32 5 75l1 1q-229 -251 -505 -498q-150 -134 -307 -256q-177 -137 -327 -230q-198 -123 -363 -174q-55 -16 -102 -20q-63 -3 -109 14q-54 19 -91 67q-33 43 -52 96q-32 90 -24 208
q6 92 36 202q49 170 155 374q170 323 448 666q123 151 266 300q150 157 293 275q180 148 332 229q106 56 191 74q123 28 210 -25q47 -29 75 -80q23 -44 32 -101q13 -92 -10 -205q-20 -98 -62 -193q-25 -57 -54 -104q2 -1 4 -3q10 -11 -1 -20v-1l-55 -48q-10 -9 -19 2
q-8 8 -1 18q55 68 97 168q39 93 56 188q19 108 6 191q-9 51 -30 88q-23 41 -60 63q-36 21 -86 26q-40 3 -92 -9q-78 -19 -178 -73q-146 -80 -319 -228q-293 -251 -549 -569q-271 -336 -439 -658q-102 -195 -150 -362q-30 -103 -36 -189q-8 -106 20 -185q15 -44 42 -79
q25 -35 65 -52q70 -31 182 -9q85 17 185 65q81 39 173 95q152 94 325 229q139 110 304 257q298 267 542 539q11 32 27 70q26 57 63 124q66 118 146 235q43 63 82 111q27 34 45 54q30 32 52 50q9 7 17 11q5 3 11 5q10 4 17 3zM2337 617l1 -1v1h-1zM2339.5 582.5
q3.5 18.5 1.5 28.5l-2 4q-1 -1 -3 -2q-5 -3 -11 -8q-19 -16 -46 -47q-26 -30 -43 -51q-41 -52 -82 -109q-83 -117 -143 -230q-35 -65 -60 -122l-0.5 -1t-0.5 -2q24 23 64 66q35 38 90 104q91 110 162 219q20 31 36 58q21 38 29 61q5 13 8.5 31.5z" />
    <glyph glyph-name="Cr.liga" unicode="Cr" horiz-adv-x="2182" 
d="M2191 18q10 -5 5 -14q0 -1 -1 -1q-28 -50 -74 -107q-49 -60 -88 -95q-24 -22 -51 -41q-37 -25 -62 -32q-21 -6 -41 -1q-23 6 -37 24q-13 16 -17 37.5t-1 40.5q0 2 2 9l3 9q5 14 6 16q6 15 16 32q5 9 12.5 18.5t15.5 19t12 14.5q5 7 7 11t3 7l-0.5 2t-2.5 5t-5 6q0 1 -5 6
q-108 -141 -243 -286q-134 -145 -283 -283q-147 -136 -305 -258q-175 -135 -329 -227q-199 -119 -368 -165q-55 -14 -103 -15q-62 -1 -108 17q-53 21 -89 69q-33 42 -52 95q-32 91 -24 209q6 92 36 202q49 169 155 373q171 324 448 666q123 151 266 301q150 157 293 274
q180 149 332 229q106 56 191 74q123 28 210 -25q47 -29 75 -80q23 -44 32 -101q13 -92 -10 -205q-20 -98 -62 -193q-25 -57 -54 -104q2 -1 4 -3q10 -11 -1 -20v-1l-55 -48q-10 -9 -19 2q-8 8 -1 18q55 68 97 168q39 93 56 188q19 108 6 191q-9 51 -30 88q-23 41 -60 63
q-36 21 -86 26q-40 3 -91 -9q-79 -18 -179 -73q-145 -80 -319 -228q-292 -251 -549 -569q-271 -336 -439 -657q-102 -196 -150 -362q-30 -104 -36 -189q-8 -106 19 -185q16 -45 43 -80q25 -35 65 -53q70 -34 182 -16q85 14 186 59q83 37 175 91q156 92 327 226
q144 113 302 259q148 136 281 280q136 147 244 288q-12 13 -19 25q-11 20 -11 40q1 22 10 39q13 21 34 28q25 9 45 -7q18 -14 22.5 -35.5t-3.5 -39.5q-9 -23 -32 -41l9 -9q8 -9 12 -16q8 -14 7 -27q-1 -7 -3 -13q-3 -7 -5 -10q-3 -7 -10 -16q-4 -6 -10 -13.5t-10 -13
t-8.5 -12t-8.5 -11.5q-8 -15 -13 -26l-4 -13l-2 -7q-2 -5 -2 -6q-2 -11 1 -23t9 -21q11 -17 38 -15q25 1 55 18q22 12 51 36q48 42 87 92q44 55 69 105q5 10 15 5zM1879 92q-5 -9 -5 -22q1 -10 7 -21q5 -8 16 -19q18 17 23 34q4 12 0 23q-3 12 -11 17t-16 1q-9 -3 -14 -13z
" />
    <glyph glyph-name="Da.liga" unicode="Da" horiz-adv-x="2684" 
d="M2699.5 5.5q8.5 -7.5 1.5 -15.5h-1q-64 -66 -120 -113q-29 -24 -67 -49q-18 -12 -37 -22q-23 -13 -41 -17q-14 -3 -27 -1q-18 2 -29 15q-6 7 -9 14q-4 7 -4 16q-1 14 3 27q8 30 33 74q-18 -11 -34 -19q-19 -9 -36 -15q-26 -8 -45 -6q-18 2 -29 14.5t-12 31.5q1 24 9 44
q17 43 53 78q-74 -18 -218 -61q-75 -22 -161 -49q-28 -48 -57 -93q-84 -130 -194 -254q-106 -119 -227 -225q-120 -106 -251 -197q-276 -193 -557 -308q-168 -67 -307 -94q-45 -8 -81 -12q-38 -4 -82 -3q-89 1 -163 20q-83 21 -140 62q-88 -128 -111 -161v-1h-1q-1 -2 -3 -4
q-15 -15 -34 -5q-12 7 -15 20v1v4v1v4q1 2 1 3t0.5 2.5t1.5 2.5v1v0q56 102 83 149l22 38q-9 13 -15 24q-23 44 -20 91q2 24 9 45l4 11q3 8 6 12q6 11 14 20q22 25 66 54q25 17 69 41q34 19 64 35q4 7 12 20t14.5 24.5t12.5 20.5q132 220 351 578q303 495 666 1080
q-19 -17 -36 -33q-40 -37 -92 -92q-41 -43 -87 -97q-48 -56 -84 -101q-7 -9 -19 -10.5t-21.5 6t-11 19.5t6.5 21q0 1 1 1q39 45 90 98q50 52 94 93q56 54 99 89q62 51 108 79q0 1 1 1h1q2 1 3 1h1q3 1 5 0q3 -1 4 -1q12 -8 5 -20q-372 -614 -697 -1157q-212 -354 -341 -576
q9 5 33 17q177 243 325 443q15 20 44 59q158 212 245.5 328t224.5 294t254 322q118 144 205 241q63 70 109 115q33 33 61 55q10 7 17 12q10 6 20 11q20 9 40 14q84 24 170 -12q74 -31 134 -103q98 -119 130 -299q28 -153 1 -325q-25 -155 -88 -309q-33 -80 -76 -161
q76 25 136 43q82 25 152 45q78 23 125 34q20 12 35 18q24 9 46 8q16 -3 26 -12q13 -10 17 -25q5 -23 -10 -45q-6 -9 -16 -3q-5 4 -5 10q1 20 -4 27q-2 2 -5 3q-5 2 -8 2q-14 -2 -24 -7q-11 -5 -28 -16q-28 -20 -50 -44q-24 -27 -35 -53q-6 -11 -7 -27v-2v-1h2q10 -2 27 2
q15 4 32 11q36 16 62 32q21 14 35 25l1.5 1.5t0.5 1.5q11 15 25 33q18 22 28 32q6 7 15 7t16 -6q6 -6 6.5 -14t-4.5 -15l-1 -1q-10 -13 -24 -31l-23 -33q-18 -25 -45 -66q-26 -42 -33 -67q-3 -7 -3 -14v-3l1 -3q2 -3 6 -5q7 -2 14 -1q32 2 72 24q27 15 67 45q61 47 116 112
q7 9 15.5 1.5zM486 -282q-122 -168 -274 -382q48 22 90 41q131 58 292 123q223 90 590 223q298 108 597 206q15 5 44 14.5t32 10.5q63 106 108 212q61 148 85 296q26 161 1 304q-29 166 -117 273q-51 62 -111 92q-69 34 -139 20q-17 -3 -34 -10q-9 -3 -16 -7q-7 -3 -16 -9
q-24 -16 -59 -48q-47 -44 -109 -113q-86 -96 -203 -240q-164 -203 -387 -498q-157 -207 -374 -508zM69 -766q-44 -75 -60 -104q83 116 85 117l-8 -4l-9 -4.5t-8 -4.5zM-163 -985q-1 -28 10 -55q25 42 30 51q42 72 101 170q-41 -27 -75 -55q-34 -30 -50 -52q-5 -8 -7 -13
q-1 -1 -3 -5l-2 -9q-4 -20 -4 -32zM1819 -107q9 14 19 30q-6 -2 -23 -7.5t-26 -8.5q-291 -94 -597 -204q-291 -105 -589 -226q-160 -66 -290 -124q-72 -33 -133 -63q-144 -203 -277 -394q48 -35 121 -53q67 -17 150 -17q40 -1 75 3q34 3 75 11q134 26 295 92
q275 113 544 303q266 189 467 413q107 120 189 245zM2291 -62v-1v1z" />
    <glyph glyph-name="Dh.liga" unicode="Dh" horiz-adv-x="2671" 
d="M2764 652q7 -10 6 -21q0 -8 -5 -15q-4 -6 -16 -18q-20 -21 -61 -48q-15 -11 -32 -21l-2 -1q-57 -78 -139 -209q-88 -143 -153 -257q-49 -89 -72 -132q-8 -15 -16 -31q38 46 67 72q14 12 22 18q4 3 8 5.5t9 5t10 3.5q10 3 19 3q1 0 5 -1l4 -1q4 0 9 -2q10 -4 17 -10
q10 -8 13 -20q5 -17 -2 -39q-4 -13 -12 -27q-3 -6 -27 -45q-7 -12 -10 -19v-1v-1h3.5h3.5q9 -2 22 -1q42 3 90 30q21 13 41 28q19 16 38 34q41 42 63 79v1q6 9 15.5 3.5t3.5 -15.5q-25 -36 -68 -81q-19 -20 -38 -37q-22 -20 -41 -34q-52 -39 -99 -47q-17 -2 -30 -2
q-13 1 -16 1q-13 3 -22 10q-13 11 -12 28q0 9 4 20q3 12 12 27q5 9 14 23.5t13 20.5q6 13 9 20q4 8 3 12v0.5v1.5q-2 2 -4 3q-1 1 -4 3l-3 1q-3 2 -7 2q-18 -1 -41 -17q-34 -25 -72 -71q-16 -20 -31 -41q-14 -22 -19 -31q-3 -8 -5 -13v-1q-2 -8 -10 -12.5t-16.5 -2t-13 10.5
t-1.5 16q7 27 28 74q14 30 33 68q36 70 72 134q81 144 154 260q48 75 80 122q-29 -18 -72 -42q-62 -34 -145 -76q-118 -61 -292 -144q-39 -108 -96 -214q-146 -273 -404 -524q-231 -223 -525 -401q-146 -88 -292 -154q-165 -74 -313 -113q-89 -23 -165 -30q-36 -4 -86 -3
q-45 1 -84 6q-96 13 -166 48q-24 12 -45 28q-92 -133 -111 -161v-1h-1q-1 -2 -3 -4q-15 -15 -34 -5q-12 6 -14 20l-1 1v4v2v3q1 1 1 2.5t1 2.5q0 2 1 3v1v0q56 103 83 149q2 3 22 38q-1 0 -2 2t-2 3q-13 20 -21 43q-17 47 -6 96q2 9 7 22q2 5 5 13q5 8 7 12q10 15 32 34
q40 36 139 94q9 5 24 13.5t21 12.5q5 8 15.5 26t16.5 27q132 219 351 578q304 496 666 1080q-18 -17 -36 -33q-40 -37 -92 -92q-41 -44 -87 -97q-48 -56 -84 -101q-7 -9 -19 -10.5t-21.5 6t-11 19.5t6.5 21q0 1 1 1q39 44 90 98q50 52 94 93q56 54 99 89q62 51 108 79l1 1h1
q2 1 3 1h1q3 1 5 0q3 -1 4 -2q13 -7 5 -19q-370 -610 -697 -1157q-200 -335 -330 -557q1 1 2.5 2t3 1.5t2.5 1.5q6 4 18 10l14 7q217 298 335 457q15 19 96 128t103 137.5t94 124.5t103.5 137t95 123.5t105.5 135.5t97 121.5t106 130.5q123 147 218 246q39 40 58 58
q47 42 69 53q84 43 175 20q81 -20 151 -90q57 -57 98 -142q68 -145 71 -330q3 -155 -47 -331q-10 -36 -23 -75q165 80 278 138q82 42 144 77q66 37 105 63q38 53 68 91q34 41 55 58q13 10 23 14q7 2 13 1q4 0 8 -2l4 -1q8 -5 13 -12zM513 -244q-124 -171 -278 -388
q3 2 12 6.5t14 6.5q136 71 301.5 150.5t279.5 132.5t314 144.5t289 133.5q382 176 528 245q27 66 45 130q47 167 45 314q-1 171 -64 305q-36 75 -86 127q-57 60 -124 81q-72 25 -145 -5q-26 -11 -63 -43q-31 -27 -59 -55q-79 -80 -216 -244q-166 -203 -403 -515
q-102 -135 -197 -262zM79 -750q-40 -67 -71 -120q87 119 88 120q2 2 4 5.5t4.5 6.5t3.5 5q-12 -7 -29 -17zM-157 -1030q1 -2 4 -10l30 51q43 73 105 177q-73 -52 -113 -95q-13 -15 -21 -28l-3 -6l-2 -7q-2 -6 -4 -17q-6 -33 4 -65zM1895 21q40 73 70 146
q-228 -108 -514 -240l-296 -138l-296 -140q-366 -175 -586 -291q-37 -20 -73 -40q-154 -216 -297 -422q18 -14 38 -23q62 -31 147 -42q36 -5 79 -5q46 -1 78 2q71 7 156 30q142 38 302 110q143 66 285 152q279 169 513 394q252 243 394 507zM2402 -158zM2732 625v1
q2 -1 4 -1l0.5 1l0.5 1l-2 3q-1 -1 -1 -4q1 -1 -2 -1zM2707 587q19 18 25 26q3 4 4 10q-4 -2 -6 -4q-17 -15 -44 -49q10 8 21 17z" />
    <glyph glyph-name="Dl.liga" unicode="Dl" horiz-adv-x="2603" 
d="M2696 686q19 -3 28 -17.5t8 -27.5q-1 -17 -9 -40q-3 -5 -16 -32q-32 -63 -71 -120q-60 -89 -165 -220q-34 -40 -90 -104q-57 -65 -96 -100q-15 -42 -23 -76q-8 -36 -6 -61q2 -30 20 -45q9 -8 21.5 -11.5t29.5 -3.5q26 0 63 16q61 26 115 70q54 42 99 92q7 8 15.5 1
t0.5 -15v-1q-122 -118 -221 -166q-32 -15 -68 -24q-21 -6 -39 -5q-23 1 -41 13t-29 34q-9 18 -11 40q-3 32 6 75q1 7 6 24q-35 -28 -75 -54q-60 -39 -136 -78q-94 -48 -214 -97q-36 -49 -76 -96q-194 -233 -459 -429q-263 -194 -542 -319q-156 -70 -297 -108
q-89 -23 -157 -31q-42 -5 -81 -4q-45 0 -80 3q-91 9 -160 37q-43 18 -76 41q-89 -128 -111 -160v-1h-1q-1 -2 -3 -4q-15 -15 -34 -5q-12 7 -15 20v1v4v1v4q1 2 1 3t0.5 2.5t1.5 2.5v1v0q56 102 83 149q2 3 22 38l-2.5 2.5t-1.5 2.5q-13 20 -21 41q-8 23 -10 46q-1 23 3 46
q4 17 6 22l3 10q4 9 6 13q10 17 32 36q14 11 35 24q32 17 73 34q17 7 54 22q46 78 59 99q132 219 351 578q303 495 666 1080q-18 -17 -36 -33q-40 -37 -92 -92q-41 -43 -87 -97q-48 -56 -84 -101q-7 -9 -19 -10.5t-21.5 6t-11 19.5t6.5 21q0 1 1 1q39 44 90 98q50 52 94 93
q56 54 99 89q62 51 108 79q0 1 1 1h1q2 1 3 1h1q3 1 5 0q3 -1 4 -1q12 -8 5 -20q-371 -611 -697 -1157q-214 -359 -344 -581q-5 -7 -13.5 -22t-12.5 -21q2 0 7.5 2t8.5 3q0 1 1.5 1.5t2.5 0.5q188 258 357 488q179 240 260 348t228.5 299.5t268.5 342.5q114 141 201 238
q55 63 106 115l56 56q43 38 67 49q80 39 166 19q79 -18 147 -82q55 -52 97 -132q36 -69 57 -152q36 -150 19 -320q-16 -150 -74 -309q-79 -216 -229 -423q107 45 190 88q75 39 134 77q53 36 93 71q12 38 31 80q25 58 62 125q67 118 146 234q44 64 83 112q27 33 45 53
q30 33 52 50q9 7 16 12q5 3 11 5q10 3 18 3zM476 -296q-149 -206 -315 -440q35 12 71 23q114 36 299 88q34 10 258 72t341 96q344 102 570 187q193 239 286 490q56 152 72 295q17 159 -17 299q-39 162 -136 257q-56 55 -119 74q-70 22 -139 -5q-23 -9 -60 -39
q-32 -26 -57 -52q-43 -42 -105 -113q-86 -97 -199 -238q-163 -203 -381 -492q-147 -195 -369 -502zM57 -803q-2 -1 -6 -2.5t-6 -2.5q-4 -6 -9 -15t-9 -16t-9 -15.5t-9 -15.5q6 9 22.5 32t25.5 35zM-156 -1031q0 -2 3 -9q25 42 30 51q38 64 85 143q-1 -1 -3 -2t-3.5 -1.5
t-3.5 -1.5q-37 -22 -63 -41q-34 -27 -44 -48l-2 -5l-2 -8q0 -2 -0.5 -5l-1 -6t-1.5 -5q-2 -15 -1 -32q2 -15 7 -30zM1461 -524q117 109 212 222q2 2 4.5 5.5t3.5 3.5q-218 -81 -546 -180q-88 -26 -189.5 -55.5t-219.5 -63.5t-189 -55q-183 -54 -297 -91q-50 -16 -106 -36
q-113 -160 -231 -330q28 -21 65 -35q61 -25 143 -32q32 -4 75 -3q35 -1 74 4q64 7 149 30q135 37 287 105q272 124 528 315q125 93 237 196zM2691 644h1h-1zM2693.5 610q3.5 18 1.5 28q-1 3 -2 4q-1 0 -3 -1q-5 -4 -12 -9q-19 -16 -45 -46t-43 -52q-42 -51 -82 -108
q-83 -118 -144 -231q-35 -65 -59 -121q0 -1 -0.5 -2l-0.5 -1q23 22 64 66q35 38 89 103q92 110 163 220q20 31 35 58q22 38 30 60q5 14 8.5 32z" />
    <glyph glyph-name="Dr.liga" unicode="Dr" horiz-adv-x="2613" 
d="M2626 11.5q10 -4.5 5 -14.5v-1q-29 -50 -74 -107q-50 -60 -89 -95q-24 -22 -51 -41q-37 -25 -62 -32q-21 -6 -40 -1q-24 6 -37 24q-13 16 -17.5 37.5t-1.5 40.5q1 3 2 9l3 9q5 15 6 17q6 14 16 31q6 9 13 18.5t15 19t12 14.5q5 7 7 11t3 7l-6 12l-2 1q-3 5 -11 13
q-18 -16 -46 -34q-31 -20 -69 -39q-60 -31 -143 -65q-109 -44 -262 -95q-43 -57 -89 -111q-102 -120 -220 -228q-116 -105 -246 -199q-265 -193 -546 -316q-159 -69 -300 -103q-89 -22 -159 -27q-82 -5 -163 6q-90 13 -158 47q-24 11 -46 28q-88 -128 -111 -161v-1h-1
q-1 -2 -3 -4q-15 -15 -34 -5q-12 6 -15 20v5v1v4l1 2q0 2 0.5 3.5t1.5 2.5v1v0q56 102 83 149q3 5 7 11.5t8 14t7 12.5q-14 19 -22 38q-19 45 -11 92q1 9 4 22q1 3 3 7l1 4l4 11q9 20 31 40q22 19 71 44q15 9 72 33q5 2 13.5 5.5t11.5 5.5q47 77 58 96q132 219 351 578
q303 495 666 1080q-19 -17 -36 -33q-40 -37 -92 -92q-41 -44 -87 -97q-48 -56 -84 -101q-7 -9 -19 -10.5t-21.5 6t-11 19.5t6.5 21q0 1 1 1q39 44 90 98q50 52 94 93q56 54 99 89q62 51 108 79q0 1 1 1h1q2 1 3 1h1q3 1 5 0q3 -1 4 -2q12 -7 5 -19q-369 -609 -697 -1157
q-215 -360 -344 -581q-5 -7 -12.5 -20.5t-10.5 -18.5q17 7 21 9q186 255 357 486q182 245 261.5 351t228 299t270.5 344q115 142 202 240q62 69 107 115q36 36 58 55q17 16 31 26q12 8 19 11q12 6 20 9q81 34 168 9q77 -22 142 -89q54 -56 93 -136q34 -70 53 -154
q34 -151 13 -321q-18 -149 -78 -309q-79 -209 -225 -409q139 47 241 89q82 34 141 64q75 40 111 71q-13 14 -21 27q-11 20 -11 40q1 22 11 39q12 21 33 28q25 9 46 -6q17 -14 21.5 -36t-2.5 -40q-9 -23 -33 -41q7 -6 9 -9q8 -9 12 -16q8 -14 7 -27q0 -7 -3 -13q-2 -6 -4 -10
q-4 -7 -10 -16q-5 -7 -13 -17t-14 -18t-10 -15q-9 -14 -13 -26l-5 -13l-2 -7q-1 -5 -2 -6q-1 -11 2 -23q2 -12 8 -21q12 -16 38 -15q26 2 55 18q22 12 51 37q49 42 87 91q45 55 69 105q5 10 15 5.5zM479 -291q-148 -205 -312 -436q52 18 94 32q124 41 299 94
q115 34 327 94.5t274 78.5q344 100 544 164q183 228 274 467q58 152 77 295q20 159 -11 300q-36 164 -130 263q-54 57 -117 80q-69 26 -139 3q-6 -1 -16 -6q-6 -2 -16 -8q-13 -7 -30 -21q-26 -20 -58 -50q-46 -46 -106 -114q-87 -98 -201 -239q-163 -203 -382 -494
q-150 -199 -371 -503zM61 -798q-8 -3 -14 -6q-4 -8 -17.5 -30.5t-20.5 -35.5q4 6 23 32t29 40zM-154 -1036q0 -1 0.5 -2t0.5 -2q19 33 30 51q39 66 85 144q-25 -15 -47 -29q-35 -24 -56 -46q-13 -15 -15 -23q0 -1 -1 -5l-1 -2q0 -1 -1 -4t-1 -5q-2 -12 -3 -16q-1 -15 1 -31
t8 -30zM1204 -735q262 193 455 416q13 16 29 34q-194 -62 -522 -159q-367 -107 -599 -179q-174 -54 -297 -97q-68 -23 -131 -47q-117 -166 -236 -337q18 -14 39 -24q59 -29 140 -40q75 -10 150 -5q65 5 149 26q136 34 290 101q274 121 533 311zM2314 85q-5 -9 -4 -22
q0 -10 7 -21q4 -8 16 -19q18 17 23 34q3 12 0 23q-4 12 -12 18q-8 4 -16 0q-8 -3 -14 -13z" />
    <glyph glyph-name="Du.liga" unicode="Du" horiz-adv-x="2732" 
d="M2737 9.5q9 -6.5 2 -14.5v-1q-16 -19 -67 -65q-25 -22 -71 -58q-42 -32 -76 -52q-50 -29 -86 -40q-30 -8 -54 -3l-7 3q-3 1 -9 5q-5 4 -8 8q-4 6 -5 9q-6 14 -4 31q2 20 13 49q6 16 19 44q1 1 12 21q-38 -36 -72 -59q-17 -11 -31 -16q-10 -4 -21 -5q-4 1 -6 1l-8 2
q-7 4 -12 9q-9 10 -9 25q-1 10 1 20q3 15 11 33q14 32 40 74q-92 -21 -259 -69q-40 -12 -116 -34q-89 -150 -213 -295q-98 -115 -221 -227q-115 -103 -247 -199q-269 -193 -549 -313q-163 -70 -301 -102q-87 -21 -160 -24q-87 -4 -163 8q-91 15 -157 52q-17 9 -33 20
q-90 -129 -111 -160v-1h-1q-1 -2 -3 -4q-15 -15 -34 -5q-12 6 -15 20v5v1v4l1 2q0 2 0.5 3.5t1.5 2.5v1v0q56 103 83 149l22 38q-19 27 -27 54q-15 45 -3 92q1 6 7 22q1 4 5 12q3 7 6 11q11 15 31 33q13 11 25.5 20t29.5 19.5t25.5 15t30 16.5t26.5 15t40 21l19.5 32.5
t20.5 34.5q132 219 351 578q303 495 666 1080q-19 -17 -36 -33q-40 -37 -92 -92q-41 -44 -87 -97q-48 -56 -84 -101q-7 -9 -19 -10.5t-21.5 6t-11 19.5t6.5 21q0 1 1 1q39 44 90 98q50 52 94 93q56 54 99 89q62 51 108 79q0 1 1 1h1q2 1 3 1h1q3 1 5 0q3 -1 4 -2
q12 -7 5 -19q-370 -610 -697 -1157q-212 -356 -343 -578q15 8 33 17q176 240 322 438q184 246 262.5 351.5t228 299.5t271.5 345q116 143 203 240q64 72 107 115q30 31 58 55q18 15 33 26q11 7 19 10q9 4 20 9q81 32 168 4q77 -24 141 -92q104 -112 143 -292
q32 -151 10 -322q-19 -149 -80 -310q-42 -108 -102 -215q77 24 91 29q83 24 151 43q84 24 137 36v1h1q5 8 13.5 10t16 -3t9.5 -13.5t-3 -16.5v-1q-17 -23 -25 -34.5t-19.5 -31t-19.5 -35.5q-7 -15 -10 -26q-3 -8 -1 -14v0v0q4 0 10 2q10 3 24 11q40 25 93 75q22 21 43 44
q25 28 37 46q5 8 14 4q3 0 5 -2q7 -5 3 -13q-13 -30 -40.5 -84t-39.5 -78q-23 -51 -29 -79q-2 -9 -1 -13v-1v-1l4 -1q14 -6 37 -3q36 5 81 29q34 19 75 49q30 21 71 57q16 14 32 31q21 21 29 32v1q7 9 16 2.5zM481 -289q-123 -169 -271 -378q35 16 42 19q129 57 290 121
q222 89 588 219q297 105 594 200q47 15 118 38q82 131 134 265q59 153 79 295q21 161 -9 302q-34 164 -127 265q-53 57 -116 82q-69 28 -138 7q-10 -3 -18 -6q-6 -2 -15 -7q-14 -7 -31 -20q-23 -18 -58 -50q-48 -47 -107 -114q-85 -96 -200 -239q-165 -204 -384 -495
q-152 -201 -371 -504zM69 -767q-45 -76 -60 -103q66 92 83 115q-5 -2 -23 -12zM-158 -1026q2 -6 5 -14q18 31 30 51q42 71 101 170q-31 -20 -55 -39q-35 -27 -56 -50q-13 -15 -19 -27l-3 -6t-2 -6q-3 -10 -4 -16q-3 -16 -2 -32q0 -16 5 -31zM1653 -326q95 110 170 225
q-78 -24 -92 -29q-296 -94 -594 -199q-292 -102 -586 -221q-159 -65 -287 -123q-39 -17 -86 -40q-144 -203 -275 -391q13 -10 28 -18q57 -31 139 -44q69 -11 150 -8q67 4 149 24q133 31 291 99q273 119 536 310q264 193 457 415z" />
    <glyph glyph-name="Fa.liga" unicode="Fa" horiz-adv-x="2080" 
d="M3078 1396v-3q-25 -49 -91 -139q-47 -61 -104 -127q-62 -72 -112 -120q-75 -73 -130 -107q-11 -7 -22.5 -4t-18 13t-3.5 21.5t13 18.5h1l1 1q51 29 124 94q51 45 115 112q58 62 107 121q31 37 47 59q-10 -7 -14 -9q-38 -23 -90 -48q-76 -38 -185 -81q-161 -63 -381 -135
q-304 -98 -699 -203q-16 -27 -52 -79q-39 -58 -107 -150q-92 -123 -223 -290q-130 -163 -294 -362q3 1 18.5 5.5t23.5 6.5q208 57 386 90q228 40 392 40q1 1 2.5 1.5l1.5 0.5q25 10 47 8q15 -2 26 -11q13 -10 16 -25q5 -23 -10 -45q-6 -9 -15 -3q-5 3 -5 9v1q0 20 -5 26
q-1 3 -5 4q-5 2 -7 2q-14 -2 -24 -7q-12 -5 -28 -16q-28 -20 -50 -44q-25 -27 -36 -53q-5 -11 -7 -27q0 -2 1 -3l2 -1q9 -2 27 3q14 4 31 11q37 16 62 32q21 13 36 25l0.5 1t1.5 1q11 16 25 33q18 22 28 33q6 6 15 6.5t15 -5.5t7 -14.5t-5 -14.5l-1 -1q-10 -13 -23 -31
l-24 -33q-18 -25 -44 -66q-26 -42 -34 -67q-2 -8 -3 -14q0 -2 1 -3q0 -1 1 -4q1 -2 6 -4q6 -2 14 -1q31 2 71 24q28 15 67 45q61 47 117 112q7 8 15 1t1 -15v-1q-64 -65 -121 -112q-29 -24 -67 -50q-18 -11 -36 -21q-24 -13 -42 -17q-13 -3 -26 -1q-18 1 -30 14q-6 7 -9 14
q-3 8 -3 17q-1 13 2 27q9 30 33 74q-17 -11 -33 -19q-20 -10 -37 -15q-26 -8 -44 -6q-19 2 -30 14.5t-11 30.5q0 25 8 44q25 60 84 105q-143 -7 -334 -45q-176 -35 -381 -95q-48 -15 -105 -33q-58 -69 -119 -143q-281 -331 -478 -555q-144 -163 -244 -273q-77 -84 -125 -135
q-28 -29 -64 -66l-33 -33l-18 -16l-4 -4q-1 -1 -6 -5q-6 -4 -13 -9q-9 -7 -20.5 -5t-18.5 12q-11 16 0 32l3 5l2 2l2 2l4 6l8 9l16 20l32 38l65 78l128 154q88 106 254 311q212 261 387 493q-3 -1 -12 -4.5t-14 -4.5q-216 -82 -359 -155h-18q-11 0 -18.5 7.5t-7.5 17.5
q0 12 9 19l77 69q11 10 21 -1q7 -8 1 -17l-1 -2q116 51 279 109q47 17 96 33q3 3 23 30t30 41q127 172 229 329q127 194 200 346q29 62 46 109q-51 -13 -78 -19q-116 -27 -197 -44q-85 -17 -201 -31q-122 -13 -205 -10q-29 2 -53 5q-34 6 -56 16q-22 12 -32 28q-8 14 -4 31
q3 12 12 23q6 7 14 13q2 2 6.5 4.5l4.5 2.5q0 1 8.5 6.5t13.5 8.5q73 45 181 95q87 40 186 80q119 46 191 70q63 19 104 21q29 2 56 -2q33 -6 55 -23q24 -17 37 -46q9 -22 13 -54q4 -29 3 -53q-2 -24 -8 -52v-2q-1 -1 -1 -2q142 34 251 61q16 4 45 12t36 9q14 23 25 43
q7 13 19 6q13 -6 7 -19l-2 -4l-2 -4t-2 -3.5t-2.5 -4t-2.5 -3.5q356 92 653 183q220 68 380 129q104 39 184 76q51 24 88 46q50 29 79 55l1 1q2 2 4 3h1q6 2 12 -1q7 -4 7 -13q0 -1 -1 -3zM1681 -61zM1158 794q10 2 108 26q3 12 4 17q12 56 5 95q-8 55 -42 71q-28 14 -84 4
q-43 -7 -93 -23q-70 -22 -187 -67q-98 -39 -183 -78q-105 -48 -175 -91q-4 -3 -11.5 -8t-8.5 -6l-9 -5v-1q15 -7 41 -11q21 -3 47 -4q79 -4 196 8q114 13 197 30q79 17 195 43zM745 -188q10 12 62 72q-37 -12 -63 -21q-128 -179 -272 -367q154 177 273 316zM1556 801
q21 29 33 46q-2 0 -12 -3t-16 -4q-150 -40 -279 -71q-18 -55 -52 -130q-66 -140 -198 -352q-91 -145 -224 -335q-3 -3 -5.5 -7.5t-5.5 -8.5t-6 -7q33 10 73 22q193 227 352 420q135 164 230 285q72 92 110 145z" />
    <glyph glyph-name="Fi.liga" unicode="Fi" horiz-adv-x="1880" 
d="M3078 1396v-3q-25 -49 -91 -139q-47 -61 -104 -127q-62 -72 -112 -120q-75 -73 -130 -107q-11 -7 -22.5 -4t-18 13t-3.5 21.5t13 18.5h1l1 1q51 29 124 94q51 45 115 112q59 62 107 121q31 37 47 59q-11 -7 -14 -9q-38 -23 -90 -48q-76 -38 -185 -81q-160 -63 -381 -135
q-304 -98 -699 -203q-16 -27 -52 -79q-39 -58 -106 -150q-93 -123 -224 -290q-144 -181 -324 -398q2 0 5.5 1t5.5 1q183 40 355 62q190 25 351 24q13 13 28 3q7 -5 9 -13t-2 -16q-7 -12 -20 -34t-17 -30q-22 -39 -30 -62q-6 -17 -7 -29q1 -5 2 -7.5t4 -4.5q17 -11 57 2
q30 9 66 30q27 16 61 41q21 15 57 45q12 10 27 25q19 17 25 26h1q7 9 15 2t2 -16h-1q-12 -13 -57 -51q-12 -10 -58 -46q-65 -51 -127 -83q-21 -10 -38 -14q-12 -3 -23 -3q-13 0 -25 5q-15 6 -23 20q-7 12 -8 28q-1 19 7 44q10 31 33 71q9 16 22 38q-150 -4 -327 -30
q-170 -26 -349 -69q-25 -6 -68 -17q-63 -75 -93 -112q-281 -331 -478 -555q-144 -163 -244 -273q-77 -84 -125 -135q-28 -30 -64 -66l-33 -33l-18 -16l-4 -4q-1 -1 -6 -5q-6 -4 -13 -9q-9 -7 -20.5 -5t-18.5 12q-11 15 0 32l3 5l2 2l2 2l4 6l8 9l16 20l32 38l65 78l128 154
q88 106 255 311q207 256 375 478q-43 -14 -47 -15q-191 -65 -327 -134l-3 -2q-11 -5 -22 -1.5t-16 13.5q-10 20 6 34l77 69q11 10 21 -1q7 -8 1 -17l-2 -3q109 46 249 90q49 15 113 33q59 79 67 91q127 172 229 329q127 194 200 346q29 62 46 109q-53 -13 -78 -19
q-115 -27 -197 -44q-85 -17 -201 -31q-122 -13 -205 -10q-29 2 -53 6q-34 5 -56 15q-22 12 -31 28q-9 14 -5 31q3 12 12 23q6 7 14 13q2 1 4 2.5l4 3t3 2.5q1 0 9.5 5.5t12.5 8.5q73 45 181 95q87 40 187 80q118 46 190 70q63 19 104 21q29 2 56 -2q33 -6 55 -23
q24 -17 37 -46q9 -22 14 -54q3 -29 2 -53q-2 -24 -8 -52l-0.5 -1.5t-0.5 -2.5q142 34 251 61q16 4 45 11.5t37 9.5q13 23 24 43q7 13 19 6q13 -6 7 -19q-2 -3 -3.5 -6l-3.5 -7t-4 -6q356 92 653 183q220 68 380 129q104 39 184 77q51 23 88 45q51 29 79 55l1 1q2 2 5 3
q6 2 12 -1q7 -4 7 -13q0 -1 -1 -3zM1158 794q10 2 108 26q3 11 5 17q11 56 4 95q-8 55 -42 71q-28 14 -84 4q-43 -7 -93 -23q-70 -22 -187 -67q-98 -39 -183 -78q-105 -48 -175 -91q-4 -3 -11.5 -8t-8.5 -6l-9 -6q15 -7 41 -11q21 -3 47 -4q79 -4 196 8q114 13 197 30
q80 17 195 43zM745 -188q8 9 22 25.5t19 22.5q-17 -5 -56 -17q-122 -170 -258 -347q154 177 273 316zM1556 801q21 28 33 46q-23 -6 -28 -7q-150 -40 -279 -71q-18 -55 -52 -130q-66 -140 -198 -352q-91 -145 -224 -335q-5 -7 -11 -15t-12 -17t-11 -15q28 7 65 16
q211 247 378 450q134 164 229 285q72 92 110 145zM1730 156q5 5 15 -12q9 -14 5 -23q-3 -8 -16 -27t-16 -25q-7 -12 -17 3q-8 14 -6 28q5 24 35 56z" />
    <glyph glyph-name="Fo.liga" unicode="Fo" horiz-adv-x="2031" 
d="M3078 1396v-3q-25 -49 -91 -139q-47 -61 -104 -127q-62 -71 -112 -120q-75 -73 -130 -107q-11 -7 -22.5 -4t-18 13t-3.5 21.5t13 18.5h1l1 1q51 29 124 94q51 45 115 112q59 62 107 121q31 37 47 59q-10 -7 -14 -9q-38 -23 -90 -48q-76 -38 -185 -81q-160 -63 -381 -135
q-304 -98 -699 -203q-16 -27 -52 -79q-39 -58 -106 -149q-93 -124 -224 -291q-140 -176 -317 -390q2 1 5.5 2t5.5 1q186 43 358 67q157 22 289 26q2 5 4 11q17 40 62 65q43 23 86 23q27 0 45 -13q11 -7 17 -18q7 -12 8 -23q4 -19 0 -46q-4 -18 -14 -42q-9 -20 -20 -41
q46 -1 96 7q87 13 159 46q10 5 14.5 -5t-5.5 -14q-75 -35 -165 -49q-59 -8 -112 -7q-6 -8 -9 -13q-27 -40 -57 -66q-20 -16 -37 -26q-24 -14 -47 -15q-15 -2 -29 3q-16 6 -26 20q-8 12 -11 29q-2 14 0 27q2 24 13 48q8 19 23 40q1 1 8 10q-3 6 -5 11q-1 3 -2 7
q-127 -7 -279 -31q-171 -27 -354 -73q-26 -7 -69 -18q-57 -69 -100 -120q-280 -331 -477 -555q-144 -163 -244 -273q-77 -84 -125 -135q-28 -29 -64 -66l-33 -33l-18 -16l-4 -4q-1 -1 -6 -5q-6 -4 -13 -9q-9 -7 -20.5 -5t-18.5 12q-11 16 0 32l3 5l1 2l3 2l4 6l8 9l16 20
l32 38l65 78l128 154q88 105 255 311q208 257 378 482q-44 -15 -46 -15q-194 -68 -331 -138l-8 -3q-5 -2 -10.5 -1t-10.5 3t-8.5 6.5t-5.5 9.5q-6 17 8 29l77 69q11 10 21 -1q7 -8 1 -17l-1 -3q109 47 252 94q49 16 112 34q61 81 64 86q127 172 229 329q127 194 200 346
q29 62 46 109q-50 -12 -78 -19q-115 -27 -197 -44q-85 -17 -201 -31q-122 -13 -205 -10q-29 2 -53 5q-34 6 -56 16q-22 12 -32 28q-8 14 -4 31q3 12 12 23q6 7 14 13q2 2 6.5 4.5t5 3t8.5 6t13 8.5q73 45 181 95q87 40 186 80q119 46 191 70q63 19 104 21q29 2 56 -2
q33 -6 55 -23q24 -17 37 -46q9 -22 13 -54q4 -29 3 -53q-2 -24 -8 -52l-0.5 -1.5t-0.5 -2.5q142 34 251 61q16 4 45.5 12t35.5 9q14 23 25 43q7 13 19 6q13 -6 7 -19q-2 -3 -3.5 -6l-3.5 -7t-4 -6q356 92 653 183q219 68 380 129q104 39 184 76q51 24 88 46q51 29 79 55l1 1
q2 2 4 3h1q6 2 12 -1q7 -4 7 -13q0 -1 -1 -3zM1613 15l2 2h-1h-1v-0.5v-1.5zM1745 -60l0.5 1t1.5 1q-20 2 -37 4q-47 7 -76 22l-5 -7q-25 -37 -30 -67q-3 -17 2 -25q4 -9 20 -12q17 -3 35 3q17 5 34 19q28 23 55 61zM1618 50q0 -1 -0.5 -1.5t-0.5 -1.5q15 1 35 1
q1 0 3.5 1.5t3.5 2.5q8 4 16.5 2t13.5 -10q4 -8 2 -16t-9 -13l-1 -1q-16 -10 -33 -29q26 -11 65 -17q22 -4 47 -5q15 25 26 48q9 22 12 39q4 23 1 38q-3 20 -17 30q-14 9 -35 9q-38 0 -77 -22q-38 -21 -52 -55zM1158 794q12 3 108 26q3 11 4 17q12 56 5 95q-8 55 -42 71
q-28 14 -84 4q-43 -7 -93 -23q-70 -22 -187 -67q-98 -39 -183 -78q-105 -48 -175 -91q-4 -3 -11.5 -8t-9.5 -6l-8 -6q15 -7 41 -11q21 -3 47 -4q79 -4 196 8q114 13 197 30q79 17 195 43zM745 -188q7 8 14.5 17t17 20t14.5 17q-16 -5 -57 -18q-124 -172 -262 -352
q154 177 273 316zM1556 801q21 29 33 46l-28 -7q-149 -39 -279 -71q-18 -55 -52 -130q-66 -140 -198 -352q-91 -144 -224 -335q-4 -6 -9.5 -13t-11 -15t-8.5 -13q31 9 66 18q206 242 371 442q135 164 230 285q72 93 110 145z" />
    <glyph glyph-name="Ja.liga" unicode="Ja" horiz-adv-x="2597" 
d="M2604 4q8 -7 1 -15v-1q-64 -65 -121 -112q-29 -24 -67 -49q-18 -12 -36 -22q-24 -13 -42 -17q-13 -3 -26 -1q-18 2 -29 15q-6 7 -9 14q-4 7 -4 16q-1 14 2 27q9 30 33 74q-17 -11 -33 -19q-20 -10 -37 -15q-26 -8 -44 -6q-19 2 -30 14.5t-11 30.5q0 25 8 45
q29 68 103 119q6 3 14 8q-276 58 -521 85q-175 -262 -349 -501q-134 -181 -253 -328q-148 -182 -274 -313q-80 -82 -152 -144q-93 -80 -171 -125q-52 -30 -100 -46q-29 -9 -55 -12q-30 -4 -57 -2q-59 3 -110 29q-49 25 -89 70q-64 72 -103 191q-31 98 -40 208q-5 55 -4 106
q2 63 13 107q24 116 59 202q42 102 103 185q62 84 145 153q154 126 371 193q177 54 410 73q193 15 415 2q89 -5 189 -15q62 93 120 183q228 350 419 671q-46 -5 -95 -12q-99 -14 -189 -34q-109 -25 -183 -54q-11 -5 -22 0t-15.5 16t0.5 22t16 16h1q79 28 192 50
q93 17 195 27q67 7 132 10q9 4 19 1q25 1 45 2q126 1 198 -15q6 -1 9.5 -6t1.5 -11q-3 -13 -16 -11h-1q-70 12 -191 6q-2 0 -27 -1q-1 -4 -2 -6q-272 -461 -538 -862q85 -10 154 -20q208 -31 403 -72q9 1 16 0q16 -2 26 -11q13 -10 16 -25q5 -23 -9 -45q-7 -9 -16 -3
q-5 3 -5 9v1q0 20 -4 26q-2 3 -6 4q-5 2 -7 2q-14 -2 -24 -7q-11 -5 -28 -16q-28 -20 -50 -44q-25 -27 -36 -53q-5 -11 -7 -27q0 -1 1 -3q1 0 2 -1q9 -2 27 3q14 4 32 11q36 16 61 32q21 13 36 25q1 2 2 3q11 15 25 33q18 21 28 32q6 7 15 7t15 -6t7 -14.5t-5 -14.5v-1
q-11 -13 -24 -31l-24 -33q-18 -25 -44 -66q-26 -42 -34 -67q-2 -7 -2 -14v-3t1 -3q1 -3 6 -5q6 -2 14 -1q31 2 72 24q27 15 66 45q61 47 117 112q7 8 15 1zM1357 -270q156 214 329 473q-95 9 -174 13q-220 12 -411 -3q-217 -17 -402 -77q-209 -67 -356 -191
q-79 -67 -136 -147q-57 -81 -95 -178q-32 -82 -54 -194q-9 -40 -10 -99q0 -48 5 -100q11 -108 40 -196q36 -108 93 -170q34 -37 73 -57q40 -20 88 -23q22 -1 47 2q21 3 45 11q41 13 88 40q73 43 162 119q69 60 147 141q125 129 270 309q119 147 251 327zM2195 -64z" />
    <glyph glyph-name="Je.liga" unicode="Je" horiz-adv-x="2462" 
d="M2531 1111q6 -1 9 -6t2 -11q-3 -13 -16 -11h-1q-70 12 -191 6q-2 0 -27 -1q-1 -4 -2 -6q-339 -575 -675 -1064q52 -10 80 -15q116 -20 197 -25q56 -2 98 2q50 5 86 23q6 12 11 21q36 56 87 85q7 4 15 7q13 4 22 4q16 -1 26 -10q12 -10 13 -26q1 -11 -3 -23q-3 -8 -10 -16
q-10 -12 -22 -22q-40 -31 -98 -43q-17 -37 -14 -71l0.5 -4.5t0.5 -6.5l2 -6l1 -4q2 -6 8 -10q12 -9 41 -7q43 3 102 25q42 16 98 48q21 12 46 29q29 20 41 34h1q7 8 15 0.5t1 -15.5h-1q-13 -12 -46 -35q-16 -11 -47 -30q-40 -25 -98 -53q-67 -33 -108 -41q-16 -3 -32 -2
q-19 1 -35 10q-19 10 -27 30l-3 9l-2 8q-1 2 -3 16q-4 30 4 62q-31 -10 -69 -14q-44 -4 -103 -1q-76 5 -200 26q-38 7 -91 18q-99 -145 -183 -260q-124 -171 -242 -320q-141 -176 -262 -307q-166 -178 -299 -274q-103 -74 -185 -98q-29 -9 -54 -11q-29 -3 -55 -1
q-57 4 -107 30q-47 25 -85 70q-33 37 -59 89q-42 82 -64 197q-19 97 -21 203q-1 58 4 103q7 53 16 101q20 107 56 197q40 100 101 178q66 84 153 138q83 53 188 81q167 44 403 28q163 -12 398 -58q48 -9 136 -27t111 -23q135 197 268 401q217 335 405 650q-45 -5 -95 -12
q-100 -14 -189 -34q-109 -25 -183 -54q-11 -5 -22 0t-15.5 16t0.5 22t16 16h1q79 28 192 49q93 18 195 28q67 7 132 10q9 4 19 1q25 1 45 2q126 1 198 -15zM2223 79v-1v1zM2211 70q-38 -25 -65 -66q38 10 61 42q9 11 13 20q3 6 3 9v1q-7 -3 -12 -6zM1381 -228
q73 101 167 236q-194 40 -236 47q-233 45 -395 55q-228 15 -392 -31q-100 -28 -178 -79q-81 -52 -141 -132q-104 -139 -142 -359q-8 -46 -14 -98q-3 -42 -2 -97q3 -98 23 -194q22 -107 61 -182q49 -96 121 -133q40 -20 85 -23q22 -2 45 1q20 1 44 9q72 21 167 89
q127 94 289 268q214 233 498 623z" />
    <glyph glyph-name="Ji.liga" unicode="Ji" horiz-adv-x="2436" 
d="M2536 1111q6 -1 9.5 -6t1.5 -11q-3 -13 -16 -11h-1q-70 12 -190 6q-4 0 -27 -1l-3 -6q-301 -511 -600 -954q50 -7 80 -12q202 -31 394 -71q10 3 19 -2q7 -5 9 -13.5t-2 -15.5q-7 -13 -19.5 -34.5t-17.5 -29.5q-21 -39 -30 -63q-6 -16 -6 -28q0 -5 1 -8t4 -4q17 -11 58 1
q30 9 65 31q27 16 61 40q22 16 58 46q11 10 27 25q18 17 25 25v1q7 8 15.5 1.5t1.5 -15.5l-1 -1q-12 -12 -56 -50q-12 -10 -59 -47q-65 -50 -126 -82q-21 -10 -39 -15q-11 -2 -22 -2q-13 0 -25 5q-15 6 -24 20q-7 12 -8 27q0 20 7 45q10 31 33 71q10 18 29 47
q-252 54 -468 84q-137 -202 -265 -380q-125 -171 -246 -322q-141 -177 -265 -308q-170 -180 -304 -274q-49 -33 -90 -54q-53 -27 -102 -37q-14 -3 -28 -4q-19 -2 -28 -2q-29 0 -55 4q-57 10 -104 42q-82 54 -135 167q-40 87 -59 200q-18 104 -14 207q1 27 4 52q2 15 5 27
l5 24l20 100q26 110 69 195q48 95 122 168q72 71 167 122q45 24 93 44q42 17 97 33q173 52 402 64q190 9 405 -8q119 -9 253 -27q101 149 192 290q220 338 409 655q-45 -5 -95 -12q-99 -14 -189 -34q-109 -25 -183 -54q-11 -5 -22 0t-15.5 16t0.5 22t16 16h1q79 28 192 49
q93 18 195 28q67 7 132 10q10 4 19 1q25 1 45 2q126 1 198 -15zM1378 -239q118 162 247 352q-127 16 -239 25q-214 15 -402 5q-218 -12 -393 -66q-214 -67 -339 -196q-68 -69 -111 -159q-40 -81 -62 -186q-6 -25 -19 -99l-5 -25q-2 -10 -3 -23q-3 -23 -3 -48q-3 -93 16 -196
q19 -105 57 -185q47 -99 116 -144q38 -24 82 -32q22 -3 45 -3q6 0 23 2q11 1 22 3q74 16 170 82q129 91 294 267q217 233 504 626zM2258 165q3 2 9 -3.5t10 -15.5t2 -16q-3 -8 -16.5 -27t-16.5 -26q-6 -12 -16 4q-9 14 -6 28q4 24 34 56z" />
    <glyph glyph-name="Jo.liga" unicode="Jo" horiz-adv-x="2530" 
d="M2536 1111q6 -1 9.5 -6t1.5 -11q-3 -13 -16 -11h-1q-70 12 -190 7q-3 -1 -28 -2l-2 -6q-301 -510 -600 -954q51 -7 55 -8q163 -25 326 -58q17 38 59 61q43 23 86 24q28 -1 46 -13q10 -8 17 -19q6 -12 8 -23q3 -19 -1 -45q-3 -18 -14 -42q-8 -21 -20 -42q47 0 96 7
q88 13 159 47q10 4 15 -5.5t-5 -14.5q-75 -35 -166 -48q-58 -9 -112 -7q-5 -9 -8 -13q-28 -41 -58 -66q-20 -16 -37 -26q-24 -14 -47 -16q-14 -1 -28 4q-16 6 -26 20q-9 12 -11 29q-2 14 -1 27q3 23 13 47q9 19 24 41l8 9q-4 6 -6 12q-4 11 0 25q-205 43 -388 69
q-136 -200 -263 -376q-124 -172 -244 -322q-141 -175 -264 -307q-75 -80 -144 -144q-85 -78 -159 -131q-106 -73 -189 -93q-54 -13 -111 -5t-105 38q-85 52 -139 164q-41 85 -62 198q-18 103 -16 206q1 28 4 52q1 14 4 27q0 5 2 13l3 12q2 13 8.5 46.5t10.5 52.5
q24 114 62 196q45 98 116 172q67 72 163 127q82 47 188 80q173 53 401 65q189 10 404 -7q133 -11 278 -30q100 148 192 290q220 337 408 654q-45 -5 -95 -12q-99 -14 -189 -34q-109 -25 -183 -54q-11 -5 -22 0t-15.5 16t0.5 22t16 16h1q79 28 192 49q93 18 195 28
q67 7 132 10q9 4 19 1q25 1 45 2q126 1 198 -15zM2102 16q7 6 13 12l-13 3q-2 -10 0 -15zM2234 -60q1 0 1.5 1t0.5 2q-20 1 -37 4q-46 7 -75 21q-1 0 -3 -2.5t-3 -4.5q-25 -36 -29 -66q-3 -18 2 -26q4 -8 19 -11q18 -4 35 2q18 6 34 20q29 23 55 60zM2160 106
q-34 -19 -49 -48q31 -6 35 -7q1 0 1.5 0.5l0.5 0.5q8 5 17 2.5t13 -10.5q4 -7 2 -15t-9 -13l-1 -1q-15 -11 -32 -30q25 -11 64 -17q23 -3 48 -4q15 24 25 48q10 22 13 38q3 23 0 39q-3 19 -17 29t-35 10q-38 -1 -76 -22zM1381 -235q118 162 244 349q-139 18 -263 27
q-214 16 -400 5q-220 -13 -393 -68q-102 -33 -180 -79q-90 -53 -152 -122q-65 -71 -105 -163q-36 -80 -56 -188q-4 -18 -10 -52t-8 -47l-2 -13q-2 -6 -2 -11q-2 -12 -3 -24q-2 -23 -3 -48q-1 -93 18 -195q21 -106 60 -184q47 -97 118 -140q39 -23 84 -29q47 -6 89 5
q73 17 169 85q71 50 152 125q68 63 141 142q215 232 502 625z" />
    <glyph glyph-name="Ju.liga" unicode="Ju" horiz-adv-x="2599" 
d="M2614 13.5q9 -6.5 3 -15.5h-1q-16 -19 -67 -65q-25 -22 -71 -58q-42 -32 -76 -52q-49 -29 -86 -40q-30 -8 -53 -3l-8 2q-3 1 -9 5q-5 4 -8 8q-4 7 -5 10q-5 14 -4 31q2 20 13 49q6 16 19 43q1 3 12 22q-38 -37 -72 -59q-17 -12 -30 -17q-11 -4 -21 -4q-5 1 -7 1
q-4 1 -7 2q-8 4 -13 9q-8 10 -9 25q-1 10 2 20q3 14 10 33q16 36 50 90q-250 53 -463 82q-149 -221 -289 -414q-125 -172 -246 -324q-144 -178 -267 -309q-77 -81 -146 -144q-87 -78 -162 -129q-49 -32 -92 -52q-55 -26 -104 -34q-59 -8 -112 5q-55 13 -102 47
q-78 59 -127 173q-20 47 -34 97.5t-22 104.5q-17 109 -10 208q2 29 6 53l10 50q13 61 23 100q28 110 74 195q50 93 125 166q137 134 357 202q174 54 403 68q190 11 408 -4q120 -9 254 -26q93 138 171 258q222 340 411 659q-46 -5 -95 -12q-99 -14 -189 -34
q-109 -25 -183 -54q-8 -3 -15 -2t-13.5 6t-8.5 12q-5 11 0 22t16 16h1q79 28 193 49q92 18 194 28q67 7 132 10q10 4 19 1q25 1 45 2q126 1 198 -15q6 -1 9.5 -6t1.5 -11q-3 -13 -16 -11h-1q-70 12 -190 6q-3 0 -28 -1q-1 -4 -2 -6q-292 -495 -581 -926q52 -7 81 -11
q193 -30 384 -70q12 10 25 2q7 -5 9 -13.5t-2 -16.5q-1 0 -1 -1q-16 -23 -24 -35t-20 -31t-20 -35q-7 -15 -10 -26q-2 -8 -1 -14v0h1q4 0 9 1q10 4 24 12q40 24 93 75q23 21 43 43q25 29 37 47q6 8 14 4q3 -1 5 -2q7 -5 3 -13q-13 -30 -40.5 -84t-39.5 -78q-23 -51 -29 -79
q-2 -9 -1 -13v-1v-1l4 -2q14 -5 37 -2q36 4 81 29q34 19 76 49q29 21 70 57q16 13 32 30q22 22 29 33l1 1q6 9 15 2.5zM1374 -245q127 175 270 386q-128 16 -240 23q-216 15 -404 3q-219 -15 -395 -71q-101 -33 -182 -79q-88 -49 -158 -120q-69 -69 -115 -158
q-41 -81 -67 -186q-9 -37 -20 -98l-9 -49q-3 -21 -5 -48q-4 -91 13 -197q18 -106 54 -188q44 -100 111 -149q37 -27 81 -37t90 -3q73 12 172 77q71 48 155 124q67 62 142 142q218 233 507 628z" />
    <glyph glyph-name="Sa.liga" unicode="Sa" horiz-adv-x="1713" 
d="M1725 18q8 -7 1 -15v-1q-64 -65 -121 -112q-29 -24 -67 -50q-17 -11 -36 -21q-24 -13 -42 -17q-13 -3 -26 -2q-18 2 -29 15q-6 7 -9 14q-4 8 -4 17q-1 13 2 27q9 30 33 74q-17 -11 -33 -19q-20 -10 -37 -15q-26 -8 -44 -6q-19 2 -30 14.5t-11 30.5q0 25 8 44
q24 57 79 101q-54 -11 -116 -30q-89 -28 -191 -73q-148 -65 -312 -158q16 -22 29 -41q70 -106 86 -201q4 -25 4 -56q-1 -34 -6 -57q-13 -61 -31 -104q-2 -4 -22 -50q-23 -43 -26 -47q-25 -42 -63 -87q-135 -161 -347 -241q-110 -42 -209 -47q-26 -2 -55 0q-4 1 -9.5 1.5
t-10 1t-8.5 1.5q-21 3 -28 5q-61 16 -103 45q-25 17 -43 40q-19 24 -28 53q-4 12 -7 29q-2 15 0 32q5 26 19 55q20 38 61 88q33 40 70 78q122 123 317 265q155 112 340 223q-36 45 -81 93q-37 40 -136.5 138.5t-151.5 156.5q-83 95 -125 173q-29 54 -41 103q-13 59 -3 115
q19 103 94 198q61 76 157 145q157 111 377 185q102 34 203 54q117 23 210 23q124 0 212 -43q55 -27 90 -70q38 -46 49 -103q11 -61 -5 -114q-15 -50 -51 -98q-61 -80 -163 -136q-12 -6 -19 6t4 19q96 64 144 136q29 43 40 86q11 42 0 90q-12 46 -40 80q-28 33 -73 55
q-73 34 -188 34q-87 0 -199 -23q-97 -20 -195 -53q-211 -71 -360 -178q-89 -64 -144 -134q-65 -82 -81 -170q-15 -81 38 -177q38 -71 118 -160q48 -53 145.5 -150.5t140.5 -144.5q51 -54 90 -104q165 95 316 162q104 46 193 75q108 35 190 45q21 8 41 6q16 -2 26 -11
q13 -10 16 -25q5 -23 -9 -45q-7 -9 -16 -3q-5 3 -5 9v1q0 20 -4 26q-2 3 -5 4q-6 2 -8 1q-14 -1 -24 -6q-11 -5 -28 -16q-28 -20 -50 -44q-25 -27 -36 -54q-5 -10 -6 -26v-3q1 0 2 -1q9 -2 27 3q14 3 32 11q36 16 61 32q21 13 36 25l1 1l1 1q11 16 25 33q18 22 28 33
q6 6 15 6.5t15 -5.5q7 -6 7.5 -14.5t-4.5 -14.5l-1 -2q-11 -13 -24 -30l-24 -33q-18 -25 -44 -66q-26 -42 -34 -67q-2 -8 -2 -14v-3t1 -4q2 -3 6 -4q6 -2 14 -1q31 2 72 24q27 15 66 45q61 47 117 112q7 8 15 1zM793 -416q-14 82 -77 175q-14 21 -32 45q-173 -102 -339 -225
q-192 -142 -312 -265q-41 -43 -66 -77q-35 -46 -51 -85q-9 -24 -10 -43q-1 -11 1 -19q4 -13 8 -21q17 -37 57 -63q35 -22 86 -35q19 -5 46 -8q26 -1 48 0q90 6 191 44q197 76 322 225q34 42 56 80q2 2 24 43q19 43 19 45q16 37 28 93q8 44 1 91zM1316 -50h1h-1z" />
    <glyph glyph-name="Se.liga" unicode="Se" horiz-adv-x="1585" 
d="M1600 20.5q8 -7.5 1 -15.5h-1q-13 -13 -46 -35q-16 -11 -47 -30q-40 -25 -98 -53q-67 -33 -108 -41q-16 -3 -31 -2q-20 1 -36 10q-19 10 -27 30l-3 9l-2 8q-1 2 -3 16q-4 27 3 56q-28 -2 -66 -11q-42 -10 -93 -28q-84 -30 -182 -76q-46 -21 -101 -50q30 -43 51 -86
q25 -49 38 -99q13 -54 9 -108q-3 -31 -10 -53l-6 -26l-8 -25q-1 -4 -3 -9t-3.5 -10t-3.5 -9.5t-4 -10t-4 -9.5l-22 -47q-92 -177 -284 -293q-88 -54 -186 -85q-112 -36 -204 -34q-32 1 -54 6q-22 3 -52 13q-59 20 -96 53q-44 40 -54 99q-5 28 4 59q7 24 22 49q11 19 29 43
q13 18 32 40q30 35 69 73q64 61 152 129q139 106 330 222q92 56 187 107q-19 26 -43 53q-49 58 -133 143l-66.5 66.5t-77 77.5t-62 67t-68.5 81q-34 45 -57 86q-28 49 -42 98q-16 57 -11 109q0 4 4 28q5 23 6 26q6 23 17 51q38 89 120 171q67 67 161 126q161 100 369 163
q100 31 196 47q116 20 203 16q55 -3 104 -15q57 -14 99 -40q49 -30 80 -76t38 -103q4 -29 1 -55q-2 -25 -12 -53q-17 -48 -52 -92q-61 -77 -158 -130q-13 -6 -19 6q-7 12 4 19q92 62 139 130q29 40 42 81q7 23 8 43q2 21 -2 44q-8 45 -33 80.5t-64 57.5q-69 40 -177 45
q-81 3 -191 -16q-92 -16 -189 -46q-200 -61 -353 -157q-89 -56 -150 -118q-74 -74 -106 -152q-9 -24 -14 -43q0 -1 -5 -22l-3 -21q-4 -41 9 -87q21 -73 90 -162q22 -29 47.5 -58.5t54.5 -59.5t53 -54l58 -58l55 -55q86 -87 136 -147q29 -34 51 -65q58 30 105 53
q103 48 183 78q53 19 96 30q48 12 81 14q7 19 17 35q36 56 87 85q7 4 15 7q13 4 22 4q16 -1 26 -10q12 -10 13 -26q1 -11 -3 -23q-3 -7 -10 -16q-10 -12 -22 -22q-40 -31 -98 -43q-17 -37 -14 -71l0.5 -4.5t0.5 -6.5l2 -6l1 -4q2 -6 8 -10q12 -9 41 -7q43 3 102 25
q42 16 98 48q21 12 46 29q29 20 41 34h1q7 8 15 0.5zM1349 92l1 -1v1h-1zM1337 83q-38 -25 -65 -66q38 10 61 42q9 11 13 20q3 6 3 9v1q-7 -3 -12 -6zM755 -306q-21 41 -52 85q-97 -52 -190 -108q-175 -107 -325 -224q-86 -68 -148 -128q-90 -89 -119 -152q-23 -50 -12 -82
q10 -39 46 -67q30 -24 77 -40q27 -8 44 -11q18 -3 45 -4q82 -2 185 31q91 30 173 80q177 108 260 270q5 8 12.5 24.5t7.5 18.5q1 2 7.5 18.5t8.5 25.5l7 22l6 23q5 18 7 44q7 83 -40 174z" />
    <glyph glyph-name="Si.liga" unicode="Si" horiz-adv-x="1558" 
d="M1572.5 17q8.5 -7 1.5 -15q0 -1 -1 -1q-12 -13 -56 -51q-12 -10 -59 -46q-64 -50 -126 -83q-21 -10 -39 -14q-11 -3 -22 -3q-13 0 -25 5q-15 6 -23 20q-8 12 -9 28q0 20 7 44q10 31 33 71q9 16 22 36q-74 -9 -162 -35t-188 -68q-87 -37 -176 -82q54 -75 81 -144
q22 -56 26 -106q3 -24 1 -55q-3 -32 -9 -54q-9 -43 -32 -101q-25 -56 -49 -93q-109 -172 -308 -276q-95 -49 -195 -73q-54 -12 -104 -16q-61 -3 -108 7q-60 14 -102 40q-54 33 -75 85q-6 14 -9 28q-1 3 -3 14q-2 8 -2 16q0 27 12 57q15 38 54 90q54 72 138 149
q69 63 156 129q145 110 336 223q60 36 120 68q0 1 -2 3.5t-3 4.5q-50 62 -133 146q-21 22 -86.5 87t-109.5 111.5t-83 94.5q-78 97 -110 179q-22 56 -23 108q0 32 4 57q6 28 14 53q32 95 112 180q65 71 160 133q160 104 372 170q100 32 198 50q119 21 206 18q123 -4 206 -50
q53 -30 84 -74q33 -47 42 -103q4 -28 2 -56q-2 -26 -12 -55q-15 -47 -51 -94q-61 -78 -160 -131q-12 -7 -19 5t4 19h1q92 62 140 132q30 43 41 83q7 24 8 44q0 22 -4 44q-9 45 -35 80q-25 34 -68 57q-70 38 -181 41q-81 2 -193 -18q-95 -18 -191 -48q-204 -65 -356 -165
q-89 -59 -149 -124q-70 -76 -97 -158q-7 -20 -12 -45q-3 -17 -3 -43q2 -42 19 -87q28 -73 101 -161q48 -59 134 -146l65 -65t77 -78q84 -87 136 -152q5 -6 13 -17q92 47 181 85q101 44 189 71q106 32 191 42q12 13 27 3q7 -5 9 -13t-2 -16q-7 -12 -19.5 -34t-16.5 -30
q-22 -39 -31 -62q-6 -17 -6 -29q0 -5 1 -7.5t4 -4.5q17 -11 58 2q30 9 65 30q27 16 61 41q22 15 58 45q12 11 27 25q18 17 25 26t15.5 2zM773 -344q-26 64 -80 137q-63 -33 -124 -69q-171 -101 -331 -224q-86 -67 -153 -129q-89 -84 -133 -147q-32 -46 -42 -85
q-7 -23 -4 -41l2 -10q3 -8 3 -10q4 -9 9 -19q37 -65 146 -90q76 -16 186 10q92 22 180 68q185 97 284 255q21 33 44 85q21 53 28 91q22 83 -15 178zM1380 164q4 5 15 -12q8 -14 5 -23q-3 -8 -16.5 -27t-16.5 -25q-6 -12 -16 3q-9 14 -6 29q4 23 35 55z" />
    <glyph glyph-name="So.liga" unicode="So" horiz-adv-x="1648" 
d="M1663 11q5 -10 -5 -15q-75 -34 -165 -48q-59 -9 -113 -7q-5 -9 -8 -13q-28 -40 -58 -66q-19 -16 -37 -26q-24 -14 -47 -16q-14 -1 -28 4q-16 6 -26 20q-8 12 -11 29q-2 14 -1 27q3 24 13 47q9 20 24 41q1 1 8 10q-3 5 -5 10q-54 -10 -115 -29q-88 -26 -187 -68
q-78 -34 -161 -77q58 -78 87 -147q22 -52 28 -105q7 -55 -5 -110q-24 -107 -78 -194q-106 -173 -304 -279q-96 -51 -193 -75q-54 -14 -103 -18q-60 -5 -108 4q-22 4 -52 14q-27 9 -51 22q-56 30 -81 79q-13 25 -18 55q-4 27 6 59q7 23 22 49q10 19 28 44q52 74 134 153
q67 64 153 132q143 113 331 228q67 41 133 77l-1 1q0 1 -1 1q-49 61 -132 146q-19 19 -86.5 86t-110.5 113t-82 94q-78 98 -108 180q-21 54 -21 108q0 26 5 56q6 27 15 53q33 93 113 179q66 70 160 131q160 103 372 169q100 32 198 49q118 21 205 18q123 -4 206 -51
q51 -30 83 -74q33 -47 41 -103q4 -28 2 -56q-2 -26 -12 -55q-16 -46 -51 -93q-62 -78 -160 -132q-12 -6 -19 6t4 19h1q92 62 140 132q29 42 41 82q7 24 8 44q0 22 -4 44q-9 45 -35 80q-25 34 -67 57q-69 39 -180 42q-81 2 -193 -18q-93 -17 -191 -48q-203 -64 -355 -163
q-88 -58 -149 -122q-71 -77 -99 -158q-7 -22 -12 -44q-4 -24 -4 -43q1 -43 17 -88q27 -72 99 -161q48 -59 133 -145l142 -142q85 -88 136 -152q2 -2 9 -11q85 44 166 79q100 44 188 72q66 21 122 32q3 12 7 21q16 41 61 66q43 23 86 23q28 -1 46 -13q10 -7 17 -18
q6 -13 8 -23q3 -20 -1 -46q-3 -18 -13 -42q-9 -21 -21 -42q47 0 96 7q88 14 160 47q9 5 14 -5zM770 -337q-27 65 -86 141q-67 -37 -136 -78q-169 -103 -327 -229q-84 -68 -149 -132q-38 -37 -68 -72q-36 -41 -60 -78q-30 -47 -37 -86q-4 -23 1 -40q6 -21 17 -38
q42 -63 151 -84q77 -13 186 14q89 23 179 71q183 99 279 258q49 79 70 176q19 84 -20 177zM1229 49q-2 -4 -4 -9q17 3 34 5l11 7q7 4 16 1.5t13 -9.5q4 -8 2.5 -16t-8.5 -13l-2 -1q-15 -10 -32 -29q25 -12 65 -18q22 -3 47 -4q15 24 25 48q10 22 13 38q4 23 1 39
q-4 20 -18 30q-13 9 -35 9q-38 -1 -76 -22q-39 -21 -52 -56zM1356 -61q0 1 0.5 2l0.5 1q-20 1 -37 4q-46 7 -75 22q-1 -1 -2 -2.5t-2 -2.5l-2 -2q-25 -37 -29 -67q-3 -18 2 -26q4 -8 19 -11q18 -3 36 2q17 6 34 20q28 23 55 60z" />
    <glyph glyph-name="Sr.liga" unicode="Sr" horiz-adv-x="1578" 
d="M1592 10q10 -5 5 -15q-29 -50 -74 -107q-50 -60 -89 -95q-24 -22 -51 -41q-37 -26 -62 -32q-21 -6 -40 -2q-24 6 -37 24q-13 17 -17.5 38t-1.5 40q1 3 3 10l2 8q5 15 6 17q6 14 16 32q6 8 13 17.5t15 19.5l12 15q5 6 7 10t3 7q1 0 0 2t-3 5.5t-5 6.5q-3 4 -10 10
q-22 -24 -58 -51q-34 -28 -81 -59q-69 -44 -172 -101q-62 -34 -147 -78q43 -101 30 -195q-3 -16 -12 -52q-5 -18 -16 -50q-18 -51 -43 -95q-98 -175 -293 -287q-92 -53 -189 -81q-116 -33 -207 -25q-29 2 -54 9q-27 7 -51 17q-58 24 -91 64q-18 22 -28 50q-5 14 -8 28
q-2 9 -2 15q0 9 1 17q3 26 22 54q13 19 35 41q58 56 161 122q72 45 174 99q69 37 356 179l152 76q0 1 -0.5 2l-0.5 1q-34 71 -106 159q-49 59 -133 144l-68.5 68.5l-75 75t-64.5 69t-68 79.5q-76 99 -104 182q-7 24 -12 54q-4 28 -3 55q3 51 24 107q37 92 117 175
q67 68 161 128q160 101 370 166q100 30 197 47q116 20 204 17q123 -6 204 -53q50 -29 81 -75q33 -47 40 -103q4 -29 1 -56q-2 -26 -12 -54q-16 -46 -51 -93q-61 -76 -159 -130q-13 -6 -19 6q-7 12 4 19q92 62 140 131q29 41 41 82q7 23 8 43q1 21 -3 44q-8 45 -33 80
q-26 36 -66 58q-69 39 -178 43q-82 3 -192 -17q-93 -16 -190 -46q-202 -63 -354 -161q-88 -56 -149 -119q-72 -74 -103 -155q-18 -47 -20 -87q-2 -42 13 -86q24 -73 94 -162q47 -60 131 -145l140 -141q86 -88 136 -149q77 -95 114 -173v-1q85 43 146 76q100 55 171 102
q93 62 136 109q-14 15 -22 28q-11 20 -11 40q1 23 11 40q12 21 33 27q25 9 46 -6q17 -14 21.5 -36t-2.5 -40q-9 -23 -33 -41q7 -6 9 -8q8 -9 12 -17q8 -13 7 -26q0 -8 -3 -14q-2 -6 -4 -9q-4 -7 -10 -17q-5 -6 -10.5 -13.5t-10 -12.5t-9 -11.5t-7.5 -12.5q-9 -14 -13 -25
q-1 -2 -2 -4.5l-2 -5t-1 -4.5l-2 -7q-2 -5 -2 -6q-1 -10 2 -23q2 -12 8 -20q12 -17 38 -16q26 2 55 18q22 13 51 37q49 42 87 91q45 55 69 106q5 10 15 5zM794 -495q10 75 -24 157q-53 -27 -151 -76q-218 -110 -353 -185q-100 -55 -170 -101q-108 -71 -152 -122
q-38 -42 -38 -76q0 -3 1 -8q0 -3 2 -9q3 -10 8 -20q9 -18 24 -34q27 -28 72 -46q20 -8 44 -14q20 -5 44 -7q80 -7 186 24q89 26 176 76q179 104 268 265q22 40 39 86q10 30 14 45q8 32 10 45zM1280 83q-5 -8 -4 -22q0 -10 7 -21q5 -7 16 -18q18 16 23 33q3 12 0 24
q-4 11 -12 17q-8 4 -16 1q-8 -4 -14 -14z" />
    <glyph glyph-name="St.liga" unicode="St" horiz-adv-x="1640" 
d="M2324 615q6 -1 10 -5.5t3 -10.5q0 -4 -2.5 -7.5t-6 -5t-7.5 -0.5q-208 24 -652 -5q-9 -12 -14 -21l-30 -43q-74 -114 -111 -176q-117 -196 -202 -365q-34 -71 -43 -94l-10 -23l-9 -24q-6 -13 -16 -47q-18 -62 10 -72q21 -6 44 -1q19 4 48 16q82 40 167 119q78 74 135 158
q6 9 15 3t3 -15h-1q-65 -88 -139 -159q-93 -86 -171 -125q-28 -14 -51 -21q-32 -10 -59 -4q-19 4 -30 19q-10 13 -14 32q-6 28 2 59l7 27q1 6 4.5 15.5t4.5 10.5l9 25l10 25q10 24 44 96q85 176 188 347q-167 -175 -375 -338q-131 -103 -308 -222q39 -61 60 -119
q22 -62 22 -122q0 -35 -6 -63l-2 -10t-2.5 -10.5t-2.5 -9.5q-3 -12 -8 -29q-17 -56 -47 -110q-29 -55 -65 -101q-37 -46 -81 -87q-44 -39 -94 -73q-96 -66 -211 -106q-129 -44 -236 -38q-19 1 -31 4q-21 3 -31 6q-32 8 -58 20q-33 15 -55 33q-28 23 -44 50q-16 28 -21 63
q-6 33 4 66q14 48 66 103q37 39 87 78q40 31 94 67q69 47 194 123q301 183 389 240q2 2 4.5 3.5l5 3t4.5 2.5q-21 30 -47 62q-56 68 -176 188t-139 141q-99 105 -148 182q-37 56 -55 109q-11 31 -15 61q-5 32 -3 64q12 115 97 224q67 85 176 159q179 121 425 192
q119 35 228 49q139 18 237 -3q66 -14 116 -44q57 -35 88 -91q31 -54 31.5 -121t-25.5 -122q-24 -53 -68 -100q-36 -38 -89 -77q-47 -34 -118 -74q153 23 405 41q15 20 17 23q35 46 71 81q7 7 16 6.5t15 -6.5t6 -15t-6 -15l-1 -2q-27 -27 -58 -68q430 27 632 4zM778 -357
q-18 50 -53 105q-2 -2 -6.5 -5t-7.5 -4q-87 -58 -388 -243q-124 -77 -192 -124q-121 -84 -173 -144q-41 -47 -50 -91q-5 -25 0 -48q7 -25 21 -43q26 -36 78 -58q23 -10 50 -17q7 -2 25 -5q10 -2 26 -3q95 -5 213 36q107 38 196 99q94 64 162.5 151.5t99.5 189.5q4 14 7 26
q0 2 2.5 11.5t3.5 14.5q5 22 5 51q0 49 -19 101zM1071 23q264 207 460 437q29 45 56 84l23 33q-112 -8 -209.5 -18.5t-165 -20.5t-91.5 -18q0 -1 -2 -1h-1h-0.5h-1.5q-10 0 -13 9q-3 7 2 13v1q2 1 3 3h1q13 9 47 30t51.5 32t44 29.5t46.5 34.5q104 81 139 165q22 51 19 101
q-3 53 -29 97q-25 43 -71 70q-41 24 -98 35q-94 18 -219 1q-104 -14 -219 -48q-236 -70 -406 -185q-101 -70 -162 -147q-34 -44 -56 -91q-10 -24 -17 -50q-2 -6 -7 -25q-2 -18 -3 -25q-7 -86 64 -195q46 -71 141 -171q34 -36 100.5 -102t120 -122t97.5 -110q28 -35 50 -67
q164 109 306 221z" />
    <glyph glyph-name="Su.liga" unicode="Su" horiz-adv-x="1723" 
d="M1735 13q9 -6 3 -15q0 -1 -1 -1q-16 -19 -67 -65q-25 -22 -71 -58q-42 -32 -76 -52q-49 -29 -86 -40q-30 -8 -53 -2l-7 2q-4 1 -10 5q-5 4 -8 8q-4 6 -5 9q-5 14 -3 32q1 19 12 48q6 17 19 44q1 2 12 22q-38 -37 -72 -60q-17 -11 -30 -16q-11 -4 -21 -4h-7q-4 1 -7 2
q-8 4 -13 9q-8 10 -9 26q-1 9 2 20q3 14 10 32q15 34 43 80q-70 -10 -155 -36q-88 -27 -189 -70q-99 -43 -205 -99q68 -92 97 -173q19 -55 21 -108q1 -25 -3 -56q-3 -16 -12 -53q-15 -55 -36 -99q-20 -45 -52 -93q-114 -169 -316 -268q-102 -49 -198 -68q-56 -11 -106 -12
q-25 0 -54 3q-2 0 -28 5q-13 3 -26 7q-60 17 -99 49q-26 21 -40 43q-16 25 -22 54q-1 3 -3 14q-2 8 -2 16q0 15 3 30q6 24 21 52q20 38 58 86q56 70 142 148q69 63 156 129q145 111 336 227q46 28 93 54q-47 59 -120 133q-28 29 -89 89t-107 108.5t-85 95.5q-80 97 -114 178
q-23 54 -27 107q-2 26 1 57q3 23 12 54q29 97 109 185q64 72 159 135q159 105 373 173q101 32 200 51q118 21 206 19q125 -3 208 -49q53 -29 85 -73q34 -46 43 -103q5 -28 3 -56q-1 -26 -11 -55q-16 -48 -51 -95q-62 -79 -161 -133q-12 -7 -19 6q-7 12 4 19h1q93 62 141 133
q29 43 41 83q6 24 7 44q0 23 -4 45q-10 46 -37 80q-25 34 -68 56q-70 38 -183 40q-82 2 -195 -19q-94 -18 -192 -49q-205 -67 -357 -168q-88 -59 -147 -126q-70 -78 -94 -161q-8 -26 -10 -44q-3 -25 -1 -44q3 -43 22 -88q31 -71 105 -160q49 -59 136 -146q5 -5 59.5 -60
t82.5 -84q80 -83 130 -147q108 58 210 103q101 44 190 72q102 33 183 43q5 7 13.5 9t16.5 -3t10 -13.5t-3 -16.5h-1q-16 -24 -24 -35.5t-20 -31t-20 -35.5q-7 -15 -10 -26q-2 -8 -1 -14v0h1q4 0 9 2q10 3 24 11q40 25 93 75q23 22 43 44q25 28 37 46l1 1q5 7 13 3q3 0 5 -2
q7 -5 3 -13q-13 -30 -40.5 -83.5t-38.5 -78.5q-24 -51 -30 -79q-1 -8 -1 -13v-1l1 -1l3 -1q15 -6 37 -3q36 5 81 30q34 18 76 48q29 21 70 57q16 14 33 31q21 22 28 32l1 1q6 9 15 3zM778 -359q-26 74 -93 162q-49 -27 -96 -55q-169 -101 -332 -228q-85 -67 -153 -129
q-87 -81 -136 -146q-35 -45 -50 -83q-10 -25 -12 -44q-1 -11 0 -20q1 -5 2 -9q3 -10 3 -11q27 -73 133 -104q11 -3 23 -5q2 -1 5.5 -1.5t5.5 -1t5.5 -1t5.5 -0.5q25 -3 46 -2q44 0 95 11q89 18 183 64q188 92 292 248q29 44 47 84q19 40 32 90l6 24q1 3 4 22q3 25 2 45
q-1 43 -18 90z" />
    <glyph glyph-name="Ch.liga" unicode="Ch" horiz-adv-x="2465" 
d="M2406 648q8 -9 9 -22q0 -9 -3 -19q-4 -10 -14 -22q-21 -25 -61 -53q-33 -22 -68 -39l-8 -2q-10 -12 -18 -23q-1 -5 -3.5 -8t-8 -9.5t-7.5 -9.5q-27 -38 -80 -120q-89 -140 -155 -258q-47 -84 -71 -132q-19 -37 -32 -67q-5 -11 -8 -18v1q16 21 32 41q41 51 72 78
q13 12 21 18q14 10 27 14q10 3 19 2q2 0 5 -1h5l8 -2q10 -4 17 -11q10 -8 13 -20q5 -16 -2 -38q-4 -13 -11 -28q-4 -6 -27 -44q-8 -12 -11 -19v-1.5v-0.5q1 0 4 -1h3q9 -1 22 0q42 2 90 30q22 12 41 28q19 15 38 34q42 41 63 78l1 1q5 9 14.5 3.5t3.5 -14.5v-1
q-25 -35 -68 -81q-19 -20 -38 -36q-21 -20 -41 -34q-52 -39 -99 -47q-17 -3 -30 -3q-13 1 -16 2q-13 2 -22 10q-13 11 -12 28q0 9 4 20t13 27q4 9 13 23.5t13 20.5q7 12 9 19q4 9 3 12v1.5v0.5q-1 2 -4 4q-1 0 -4 2l-3 2q-3 1 -7 1q-18 0 -41 -17q-34 -25 -72 -71
q-16 -20 -31 -41q-20 -30 -25 -43q-5 -10 -15 -6v1q-4 -2 -7 -1q-11 3 -8 14q7 22 30 71q14 30 34 68q41 77 72 132q83 147 149 253q-278 -320 -458 -516q-347 -375 -616 -612q-188 -165 -344 -267q-103 -68 -191 -108q-118 -53 -213 -60q-61 -4 -112 12q-55 16 -99 56
q-42 38 -69 90q-24 50 -33 108q-15 98 8 222q19 97 61 212q68 181 192 393q89 154 244 362q277 367 585 648q85 76 167 141q114 87 181 125q81 45 200 92q57 22 107 30q63 11 113 0q61 -12 102 -51q40 -37 60 -97q30 -92 11 -221q-15 -106 -59 -212q-27 -67 -60 -121
q3 -1 5 -3q9 -11 -2 -21l-54 -48q-11 -10 -20 1q-8 9 -1 19q60 73 106 184q42 103 57 205q17 124 -10 208q-17 54 -51 87q-35 34 -89 45q-49 10 -103 -1q-47 -8 -101 -30q-71 -29 -183 -110q-134 -97 -172 -128q-79 -64 -163 -140q-149 -135 -303 -306q-145 -159 -276 -331
q-117 -154 -243 -356q-127 -205 -198 -381q-44 -111 -64 -203q-26 -117 -14 -209q7 -53 28 -99q23 -50 60 -83q39 -36 88 -50q47 -15 103 -11q89 6 202 58q87 39 187 105q155 101 341 265q269 236 614 610q186 202 574 651q2 2 5 3q3 5 8.5 13.5t7.5 12.5q-4 16 10 24
q2 1 5.5 3.5t4.5 2.5q19 29 33 48q31 42 52 60q13 11 23 14q6 2 12 2l8 -2l4 -2q8 -3 15 -10zM2042 -164z" />
    <glyph glyph-name="Sant.liga" unicode="Sant" horiz-adv-x="2343" 
d="M2701 497q4 -1 7 -3.5t4.5 -6t0.5 -7.5q-1 -6 -6 -9.5t-11 -1.5q-110 21 -270 25l-1 -1q-93 -165 -171 -322q-89 -180 -149 -333q-35 -90 -58 -172q-11 -37 -19 -70l4 7q6 13 19 7t7 -19l-48 -106q-6 -14 -20 -7q-9 4 -8 14q5 78 34 183q23 83 58 175q54 143 135 312
q-45 -70 -80 -119q-75 -107 -132 -168q-48 -50 -84 -71q-16 -9 -29 -12q-19 -4 -35 1q-10 3 -17 9l-2 1l-3 3q-3 4 -5 7q-2 6 -3 12q-1 12 4 33q7 24 39 101q13 30 16 45q-2 -1 -3 -1q-16 -7 -42 -26q-22 -16 -42 -31l-42 -32q-16 -12 -23 -16q-10 -5 -13 -6q-6 -2 -8 -3
q-9 -1 -13 0h-6q-7 1 -12 7t-5 14q1 17 8 35q3 10 12 30t28 54q5 9 20 35q-30 -30 -58 -55q-63 -59 -128 -104q-20 -14 -36 -22q-26 -14 -45 -15q-20 -1 -32 12q-12 12 -13 31q-1 12 2 26q3 13 8 23q0 1 5 11q-24 -16 -46 -28q-20 -11 -34 -17q-26 -10 -43 -9q-18 2 -29 14
t-12 30q0 23 9 44q14 34 45 66q16 17 35 33q-55 -11 -122 -32q-88 -28 -191 -73q-148 -65 -312 -158q16 -22 29 -41q70 -106 86 -201q4 -25 4 -56q-1 -34 -6 -57q-13 -61 -31 -104q-2 -5 -22 -50q-23 -42 -26 -47q-25 -42 -63 -87q-135 -161 -347 -241q-110 -42 -209 -47
q-26 -2 -55 0l-28 4q-21 3 -28 5q-61 16 -103 45q-25 17 -43 40q-19 24 -28 53q-4 12 -7 29q-2 15 0 32q5 26 19 55q20 38 61 88q33 40 70 78q122 123 317 265q155 112 340 223q-36 45 -81 93q-37 40 -136.5 138.5t-151.5 156.5q-83 95 -125 173q-29 54 -41 103
q-13 59 -3 115q19 103 94 198q61 76 157 145q157 111 377 185q102 34 203 54q117 23 210 23q124 0 212 -43q55 -27 90 -70q38 -46 49 -103q11 -61 -5 -114q-15 -49 -51 -98q-61 -80 -163 -135q-13 -7 -19 5q-7 12 4 19q96 64 144 136q29 43 40 86q11 42 0 90q-12 46 -40 80
q-28 33 -73 55q-73 34 -188 34q-87 0 -199 -23q-97 -20 -195 -53q-211 -71 -360 -178q-89 -64 -144 -134q-65 -82 -81 -170q-15 -81 38 -177q38 -71 118 -160q48 -53 145.5 -150.5t140.5 -144.5q51 -54 90 -104q165 95 316 162q103 46 193 75q117 38 204 47h1q15 4 29 2
q13 -2 23 -10q12 -9 15 -22q5 -19 -5 -43q-4 -11 -14 -6q-9 3 -6 12v1q4 18 0 27t-17 10q-15 -2 -27 -8q-11 -5 -28 -17q-63 -47 -85 -100q-4 -9 -6 -27v-3v-1l3 -2q10 -3 29 0q16 2 33 9q31 11 63 33q9 7 19 15q7 10 14 19q26 32 58 60q11 10 20 -1q8 -9 1 -18v-1
q-27 -37 -46 -64q-28 -43 -39 -66q-8 -17 -9 -29q0 -3 1 -6v-1l4 -2q11 -1 32 7q17 6 35 16q51 29 129 96q63 56 113 114q4 5 10 4q11 4 20 -2q8 -5 10 -14t-3 -16l-1 -1q-34 -51 -62 -99q-18 -32 -28 -51q-8 -18 -11 -26q-1 -4 -3 -9q12 9 19 15l40 34q28 24 42 34
q28 22 47 31q8 4 16 6q5 1 10 1q8 1 14 -1q11 -3 16 -14q3 -6 3 -14q1 -8 -1 -18q-4 -18 -19 -54q-2 -5 -18 -41t-22 -54q-4 -12 -3 -19q2 -2 5 -3q13 -5 37 8q32 17 77 63q58 60 133 162q97 134 204 307q34 64 70 129q-191 3 -421.5 -15t-382 -40t-188.5 -36q-7 -3 -11 -3
q-5 0 -10 4q-6 7 -4 15q4 11 61.5 35t75.5 27q6 0 11 -3.5t6 -9.5q1 -5 -2 -10q175 28 421 48t459 16q46 81 86 149q31 50 49 78q11 19 25 39q19 27 29 39q6 7 15 7.5t16 -5.5t7.5 -15t-5.5 -15v-1h-1q-8 -10 -25 -34q-14 -20 -26 -38q-18 -27 -48 -77q-35 -56 -76 -128
q154 -5 259 -25zM793 -411q-14 82 -77 175q-14 21 -32 45q-173 -102 -339 -225q-192 -142 -312 -265q-41 -43 -66 -77q-35 -46 -51 -85q-9 -24 -10 -43q-1 -11 1 -19q4 -13 8 -21q17 -37 57 -63q35 -22 86 -35q19 -5 46 -8q26 -1 48 0q90 6 191 44q197 76 322 225
q34 42 56 80q2 2 24 43q19 43 19 45q16 38 28 93q8 44 1 91zM1853 -170z" />
    <glyph glyph-name="An.liga" unicode="An" horiz-adv-x="2578" 
d="M2591.5 25.5q6.5 -8.5 -1.5 -15.5h-1q-85 -58 -157 -96q-53 -27 -86 -38q-29 -8 -50 -7q-16 0 -28 6q-3 0 -7 3q-6 4 -10 9q-6 10 -5 23q1 11 9 28q4 9 12 21l22 36q-3 -1 -4 -1q-8 -4 -18 -10q-23 -14 -74 -52l-37 -27q-12 -8 -19 -13q-8 -5 -12 -7t-7 -2q-7 -2 -11 -1
h-4q-8 1 -13 7t-5 14q1 21 14 51q10 20 24 41q12 19 26 39q2 3 9 12l-120 -9q-141 -10 -150 -11q-219 -24 -279 -33q-3 -5 -10.5 -20t-10.5 -24q-148 -314 -266 -609q-66 -168 -114 -311q-47 -142 -72 -248q9 0 13 -6q6 -8 1 -16l-35 -62q-6 -9 -17 -12t-21 2q-18 11 -13 30
l1 5q17 81 43 164q4 16 14 46t11 34l28 79q51 144 121 311q123 296 274 609q2 4 5.5 11.5t5.5 11.5l-53 -8l-37 -5l-37 -7l-148 -26q-30 -6 -85 -18t-63 -14q-3 -1 -31 -7l-42 -9l-73 -19q-34 -9 -71 -19q-158 -167 -286 -313q-132 -150 -237 -284q-134 -172 -211 -302
q-7 -12 -20 -5q-10 6 -6 17q27 79 58 157q38 93 70 154q6 11 17.5 14.5t22 -2.5t14 -17t-2.5 -22q0 -1 -1 -2q-23 -35 -49 -83q36 51 83 111q104 135 235 288q110 128 239 268q-220 -65 -424 -150q-106 -42 -274 -124q-16 -8 -116.5 -58.5t-155.5 -75.5q-11 -5 -22.5 -0.5
t-16 15.5t-0.5 22t15 16l1 1q53 22 154 71.5t118 57.5q170 80 277 122q241 97 502 166q106 114 205 216q255 264 526 525q144 139 270 255q80 72 139 124q41 36 70 61q23 19 37 30q25 20 41 30q4 2 9 3q11 23 36 20q14 -3 22.5 -14t6.5 -25q-3 -22 -24 -28q-19 -6 -36 -23
q-5 -4 -9 -9.5t-9 -12.5t-8 -10q-16 -23 -47 -68q-48 -73 -89 -140q-76 -126 -164 -289q-138 -254 -260 -511q54 7 258 26q9 1 151 10l150 9q12 4 22 -4q7 -5 8 -14t-5 -16v-1h-1q-13 -15 -27 -34q-14 -17 -26 -35q-13 -19 -22 -36q-7 -14 -10 -26q8 5 17 13q16 13 34 29
q49 43 72 59q28 20 47 24q5 1 9 1q6 0 11 -1q9 -3 15 -11q5 -7 5 -16q-1 -8 -5 -19q-2 -5 -5.5 -11.5t-25.5 -39.5q-7 -11 -11 -18q-5 -9 -6 -15q6 -3 16 -4q17 -1 40 4q39 8 84 29q83 38 154 92h1q8 7 14.5 -1.5zM1584 27h1h1q150 307 273 531q89 163 167 290q41 68 90 140
q8 13 19 28q-34 -28 -48 -40q-59 -51 -138 -122q-127 -114 -272 -251q-274 -258 -530 -519q-74 -76 -162 -168l1 0.5t2 0.5l73 18q15 4 42.5 9.5t31.5 6.5q8 1 64 13t85 17l150 25l37 6l38 5zM2303 -1z" />
    <glyph glyph-name="st.liga" unicode="st" horiz-adv-x="508" 
d="M1135 573q6 -1 10 -5.5t3 -10.5t-5.5 -9.5t-10.5 -3.5q-148 17 -438 6q-22 -38 -41 -71q-94 -165 -172 -323q-89 -180 -148 -332q-36 -91 -59 -172q-11 -38 -18 -70l3 6q6 14 19 8t7 -20l-47 -105q-7 -14 -20 -8q-10 4 -9 15q6 78 34 182q24 83 58 176q59 155 147 337
q69 142 153 295q-86 -107 -166 -197q-204 -227 -374 -356q-2 -1 -4.5 -3t-5.5 -4t-5 -4q10 -27 14 -46t4 -37t-4 -37q-8 -40 -30 -68q-26 -34 -64 -44q-16 -4 -39 -4q-21 1 -41 13q-19 12 -29 32t-6 42q3 21 14 37q8 14 24 28q11 10 54 39q28 18 55 37q-2 7 -3 10
q-14 42 -19 65q-8 38 -5 71q4 42 26 71q28 39 71 38q25 0 42 -14q18 -15 22 -39q6 -39 -22 -71q-7 -8 -15 -1q-7 6 -3 13v1q14 27 6 51q-6 20 -29 19q-21 -1 -37 -23q-13 -19 -16 -49q-3 -40 23 -113q1 1 4.5 3.5t4.5 3.5q98 73 196 166q89 85 178 185q106 119 218 265
q-226 -10 -432 -31.5t-253 -38.5q-6 -3 -10 -3q-6 0 -10 4q-7 7 -4 15q3 11 60.5 35t76.5 27q6 0 10.5 -3.5t5.5 -9.5q1 -8 -5 -13q249 33 584 48q24 41 47 79q30 50 48 79l26 39q19 27 29 39q6 6 14.5 7t15.5 -5t7.5 -15t-5.5 -16v-1q-9 -10 -26 -34q-14 -20 -25 -37
q-18 -28 -49 -77q-10 -16 -34 -56q281 10 424 -7zM12 -152q-2 11 -7 26q0 -1 -5 -4.5t-6.5 -4.5l-6 -4t-6.5 -4.5l-6 -4.5t-6.5 -4.5t-5.5 -4t-6 -4.5q-24 -19 -34.5 -28t-23 -26t-12.5 -33q2 -21 22 -34q10 -6 19 -6q16 1 25 4q23 7 39 28t21 49q5 27 -1 55z" />
    <glyph glyph-name=".notdef" horiz-adv-x="527" 
d="M50 700h427v-700h-427v700zM78 680l185 -309l186 309h-371zM251 350l-180 300v-601zM264 329l-185 -308h370zM276 350l181 -303v605z" />
    <glyph glyph-name=".null" 
 />
    <glyph glyph-name=".null" 
 />
    <glyph glyph-name="nonmarkingreturn" horiz-adv-x="333" 
 />
    <glyph glyph-name="controlLF" unicode="&#xa;" 
 />
    <glyph glyph-name="controlCR" unicode="&#xd;" 
 />
    <glyph glyph-name="space" unicode=" " horiz-adv-x="352" 
 />
    <glyph glyph-name="A" unicode="A" horiz-adv-x="2143" 
d="M2244 1148q7 -1 13 -4.5t9.5 -9t5.5 -12t1 -13.5q-3 -21 -24 -28q-19 -6 -36 -23q-5 -4 -9 -9.5t-9 -12t-8 -10.5q-17 -23 -47 -68q-48 -72 -89 -140q-76 -126 -164 -288q-150 -278 -280 -554q42 5 264 25q1 0 149 10l150 8q6 0 10.5 -4t4.5 -10t-4 -10.5t-10 -4.5
l-149 -10q-147 -11 -148 -11q-237 -24 -285 -31l-1 -2q-148 -315 -266 -610q-66 -167 -114 -311q-48 -142 -72 -248q8 1 13 -6q6 -8 1 -16l-36 -61q-5 -10 -16 -13t-21 3q-18 10 -14 29l2 5q17 81 43 164q3 12 7.5 25.5t9.5 29.5t8 25l27 79q52 144 122 312q118 285 265 589
q-274 -35 -554 -101q-44 -10 -100 -25q-135 -144 -252 -276q-132 -151 -237 -284q-135 -173 -211 -303q-7 -12 -20 -5q-10 6 -6 17v1q27 79 58 157q38 93 70 153q6 11 17.5 14.5t22 -2t14 -17t-2.5 -22.5q-1 -1 -1 -2q-23 -35 -49 -82q36 50 82 110q105 136 236 288
q91 106 208 234q-208 -57 -396 -130l-69 -27l-68 -29q-27 -11 -68 -29q-4 -2 -29.5 -13.5t-38.5 -17.5q-35 -16 -127 -60.5t-143 -66.5q-11 -5 -22.5 -1t-16 15t-0.5 22.5t15 16.5h1q50 21 142.5 64.5t128.5 58.5q5 3 11 5.5t11.5 5t11.5 5t11.5 5t11.5 5t11 5.5
q42 18 69 29l70 28l70 26q223 83 470 144q114 124 238 253q254 263 526 524q144 139 270 255q79 72 139 125q40 35 70 61q23 19 37 29q25 20 41 30q4 3 9 4q11 22 36 19zM2026 834q41 68 90 141q9 13 19 27q-35 -29 -48 -40q-59 -51 -138 -122q-127 -115 -272 -251
q-273 -258 -530 -519q-94 -95 -198 -205q4 1 11 2.5t12.5 3t10.5 2.5q297 66 583 98q162 335 293 574q89 162 167 289z" />
    <glyph glyph-name="A" unicode="&#xc5;" horiz-adv-x="2143" 
d="M2244 1148q7 -1 13 -4.5t9.5 -9t5.5 -12t1 -13.5q-3 -21 -24 -28q-19 -6 -36 -23q-5 -4 -9 -9.5t-9 -12t-8 -10.5q-17 -23 -47 -68q-48 -72 -89 -140q-76 -126 -164 -288q-150 -278 -280 -554q42 5 264 25q1 0 149 10l150 8q6 0 10.5 -4t4.5 -10t-4 -10.5t-10 -4.5
l-149 -10q-147 -11 -148 -11q-237 -24 -285 -31l-1 -2q-148 -315 -266 -610q-66 -167 -114 -311q-48 -142 -72 -248q8 1 13 -6q6 -8 1 -16l-36 -61q-5 -10 -16 -13t-21 3q-18 10 -14 29l2 5q17 81 43 164q3 12 7.5 25.5t9.5 29.5t8 25l27 79q52 144 122 312q118 285 265 589
q-274 -35 -554 -101q-44 -10 -100 -25q-135 -144 -252 -276q-132 -151 -237 -284q-135 -173 -211 -303q-7 -12 -20 -5q-10 6 -6 17v1q27 79 58 157q38 93 70 153q6 11 17.5 14.5t22 -2t14 -17t-2.5 -22.5q-1 -1 -1 -2q-23 -35 -49 -82q36 50 82 110q105 136 236 288
q91 106 208 234q-208 -57 -396 -130l-69 -27l-68 -29q-27 -11 -68 -29q-4 -2 -29.5 -13.5t-38.5 -17.5q-35 -16 -127 -60.5t-143 -66.5q-11 -5 -22.5 -1t-16 15t-0.5 22.5t15 16.5h1q50 21 142.5 64.5t128.5 58.5q5 3 11 5.5t11.5 5t11.5 5t11.5 5t11.5 5t11 5.5
q42 18 69 29l70 28l70 26q223 83 470 144q114 124 238 253q254 263 526 524q144 139 270 255q79 72 139 125q40 35 70 61q23 19 37 29q25 20 41 30q4 3 9 4q11 22 36 19zM2026 834q41 68 90 141q9 13 19 27q-35 -29 -48 -40q-59 -51 -138 -122q-127 -115 -272 -251
q-273 -258 -530 -519q-94 -95 -198 -205q4 1 11 2.5t12.5 3t10.5 2.5q297 66 583 98q162 335 293 574q89 162 167 289z" />
    <glyph glyph-name="A" unicode="&#xc4;" horiz-adv-x="2143" 
d="M2244 1148q7 -1 13 -4.5t9.5 -9t5.5 -12t1 -13.5q-3 -21 -24 -28q-19 -6 -36 -23q-5 -4 -9 -9.5t-9 -12t-8 -10.5q-17 -23 -47 -68q-48 -72 -89 -140q-76 -126 -164 -288q-150 -278 -280 -554q42 5 264 25q1 0 149 10l150 8q6 0 10.5 -4t4.5 -10t-4 -10.5t-10 -4.5
l-149 -10q-147 -11 -148 -11q-237 -24 -285 -31l-1 -2q-148 -315 -266 -610q-66 -167 -114 -311q-48 -142 -72 -248q8 1 13 -6q6 -8 1 -16l-36 -61q-5 -10 -16 -13t-21 3q-18 10 -14 29l2 5q17 81 43 164q3 12 7.5 25.5t9.5 29.5t8 25l27 79q52 144 122 312q118 285 265 589
q-274 -35 -554 -101q-44 -10 -100 -25q-135 -144 -252 -276q-132 -151 -237 -284q-135 -173 -211 -303q-7 -12 -20 -5q-10 6 -6 17v1q27 79 58 157q38 93 70 153q6 11 17.5 14.5t22 -2t14 -17t-2.5 -22.5q-1 -1 -1 -2q-23 -35 -49 -82q36 50 82 110q105 136 236 288
q91 106 208 234q-208 -57 -396 -130l-69 -27l-68 -29q-27 -11 -68 -29q-4 -2 -29.5 -13.5t-38.5 -17.5q-35 -16 -127 -60.5t-143 -66.5q-11 -5 -22.5 -1t-16 15t-0.5 22.5t15 16.5h1q50 21 142.5 64.5t128.5 58.5q5 3 11 5.5t11.5 5t11.5 5t11.5 5t11.5 5t11 5.5
q42 18 69 29l70 28l70 26q223 83 470 144q114 124 238 253q254 263 526 524q144 139 270 255q79 72 139 125q40 35 70 61q23 19 37 29q25 20 41 30q4 3 9 4q11 22 36 19zM2026 834q41 68 90 141q9 13 19 27q-35 -29 -48 -40q-59 -51 -138 -122q-127 -115 -272 -251
q-273 -258 -530 -519q-94 -95 -198 -205q4 1 11 2.5t12.5 3t10.5 2.5q297 66 583 98q162 335 293 574q89 162 167 289z" />
    <glyph glyph-name="A" unicode="&#xc3;" horiz-adv-x="2143" 
d="M2244 1148q7 -1 13 -4.5t9.5 -9t5.5 -12t1 -13.5q-3 -21 -24 -28q-19 -6 -36 -23q-5 -4 -9 -9.5t-9 -12t-8 -10.5q-17 -23 -47 -68q-48 -72 -89 -140q-76 -126 -164 -288q-150 -278 -280 -554q42 5 264 25q1 0 149 10l150 8q6 0 10.5 -4t4.5 -10t-4 -10.5t-10 -4.5
l-149 -10q-147 -11 -148 -11q-237 -24 -285 -31l-1 -2q-148 -315 -266 -610q-66 -167 -114 -311q-48 -142 -72 -248q8 1 13 -6q6 -8 1 -16l-36 -61q-5 -10 -16 -13t-21 3q-18 10 -14 29l2 5q17 81 43 164q3 12 7.5 25.5t9.5 29.5t8 25l27 79q52 144 122 312q118 285 265 589
q-274 -35 -554 -101q-44 -10 -100 -25q-135 -144 -252 -276q-132 -151 -237 -284q-135 -173 -211 -303q-7 -12 -20 -5q-10 6 -6 17v1q27 79 58 157q38 93 70 153q6 11 17.5 14.5t22 -2t14 -17t-2.5 -22.5q-1 -1 -1 -2q-23 -35 -49 -82q36 50 82 110q105 136 236 288
q91 106 208 234q-208 -57 -396 -130l-69 -27l-68 -29q-27 -11 -68 -29q-4 -2 -29.5 -13.5t-38.5 -17.5q-35 -16 -127 -60.5t-143 -66.5q-11 -5 -22.5 -1t-16 15t-0.5 22.5t15 16.5h1q50 21 142.5 64.5t128.5 58.5q5 3 11 5.5t11.5 5t11.5 5t11.5 5t11.5 5t11 5.5
q42 18 69 29l70 28l70 26q223 83 470 144q114 124 238 253q254 263 526 524q144 139 270 255q79 72 139 125q40 35 70 61q23 19 37 29q25 20 41 30q4 3 9 4q11 22 36 19zM2026 834q41 68 90 141q9 13 19 27q-35 -29 -48 -40q-59 -51 -138 -122q-127 -115 -272 -251
q-273 -258 -530 -519q-94 -95 -198 -205q4 1 11 2.5t12.5 3t10.5 2.5q297 66 583 98q162 335 293 574q89 162 167 289z" />
    <glyph glyph-name="A" unicode="&#xc2;" horiz-adv-x="2143" 
d="M2244 1148q7 -1 13 -4.5t9.5 -9t5.5 -12t1 -13.5q-3 -21 -24 -28q-19 -6 -36 -23q-5 -4 -9 -9.5t-9 -12t-8 -10.5q-17 -23 -47 -68q-48 -72 -89 -140q-76 -126 -164 -288q-150 -278 -280 -554q42 5 264 25q1 0 149 10l150 8q6 0 10.5 -4t4.5 -10t-4 -10.5t-10 -4.5
l-149 -10q-147 -11 -148 -11q-237 -24 -285 -31l-1 -2q-148 -315 -266 -610q-66 -167 -114 -311q-48 -142 -72 -248q8 1 13 -6q6 -8 1 -16l-36 -61q-5 -10 -16 -13t-21 3q-18 10 -14 29l2 5q17 81 43 164q3 12 7.5 25.5t9.5 29.5t8 25l27 79q52 144 122 312q118 285 265 589
q-274 -35 -554 -101q-44 -10 -100 -25q-135 -144 -252 -276q-132 -151 -237 -284q-135 -173 -211 -303q-7 -12 -20 -5q-10 6 -6 17v1q27 79 58 157q38 93 70 153q6 11 17.5 14.5t22 -2t14 -17t-2.5 -22.5q-1 -1 -1 -2q-23 -35 -49 -82q36 50 82 110q105 136 236 288
q91 106 208 234q-208 -57 -396 -130l-69 -27l-68 -29q-27 -11 -68 -29q-4 -2 -29.5 -13.5t-38.5 -17.5q-35 -16 -127 -60.5t-143 -66.5q-11 -5 -22.5 -1t-16 15t-0.5 22.5t15 16.5h1q50 21 142.5 64.5t128.5 58.5q5 3 11 5.5t11.5 5t11.5 5t11.5 5t11.5 5t11 5.5
q42 18 69 29l70 28l70 26q223 83 470 144q114 124 238 253q254 263 526 524q144 139 270 255q79 72 139 125q40 35 70 61q23 19 37 29q25 20 41 30q4 3 9 4q11 22 36 19zM2026 834q41 68 90 141q9 13 19 27q-35 -29 -48 -40q-59 -51 -138 -122q-127 -115 -272 -251
q-273 -258 -530 -519q-94 -95 -198 -205q4 1 11 2.5t12.5 3t10.5 2.5q297 66 583 98q162 335 293 574q89 162 167 289z" />
    <glyph glyph-name="A" unicode="&#xc1;" horiz-adv-x="2143" 
d="M2244 1148q7 -1 13 -4.5t9.5 -9t5.5 -12t1 -13.5q-3 -21 -24 -28q-19 -6 -36 -23q-5 -4 -9 -9.5t-9 -12t-8 -10.5q-17 -23 -47 -68q-48 -72 -89 -140q-76 -126 -164 -288q-150 -278 -280 -554q42 5 264 25q1 0 149 10l150 8q6 0 10.5 -4t4.5 -10t-4 -10.5t-10 -4.5
l-149 -10q-147 -11 -148 -11q-237 -24 -285 -31l-1 -2q-148 -315 -266 -610q-66 -167 -114 -311q-48 -142 -72 -248q8 1 13 -6q6 -8 1 -16l-36 -61q-5 -10 -16 -13t-21 3q-18 10 -14 29l2 5q17 81 43 164q3 12 7.5 25.5t9.5 29.5t8 25l27 79q52 144 122 312q118 285 265 589
q-274 -35 -554 -101q-44 -10 -100 -25q-135 -144 -252 -276q-132 -151 -237 -284q-135 -173 -211 -303q-7 -12 -20 -5q-10 6 -6 17v1q27 79 58 157q38 93 70 153q6 11 17.5 14.5t22 -2t14 -17t-2.5 -22.5q-1 -1 -1 -2q-23 -35 -49 -82q36 50 82 110q105 136 236 288
q91 106 208 234q-208 -57 -396 -130l-69 -27l-68 -29q-27 -11 -68 -29q-4 -2 -29.5 -13.5t-38.5 -17.5q-35 -16 -127 -60.5t-143 -66.5q-11 -5 -22.5 -1t-16 15t-0.5 22.5t15 16.5h1q50 21 142.5 64.5t128.5 58.5q5 3 11 5.5t11.5 5t11.5 5t11.5 5t11.5 5t11 5.5
q42 18 69 29l70 28l70 26q223 83 470 144q114 124 238 253q254 263 526 524q144 139 270 255q79 72 139 125q40 35 70 61q23 19 37 29q25 20 41 30q4 3 9 4q11 22 36 19zM2026 834q41 68 90 141q9 13 19 27q-35 -29 -48 -40q-59 -51 -138 -122q-127 -115 -272 -251
q-273 -258 -530 -519q-94 -95 -198 -205q4 1 11 2.5t12.5 3t10.5 2.5q297 66 583 98q162 335 293 574q89 162 167 289z" />
    <glyph glyph-name="A" unicode="&#xc0;" horiz-adv-x="2143" 
d="M2244 1148q7 -1 13 -4.5t9.5 -9t5.5 -12t1 -13.5q-3 -21 -24 -28q-19 -6 -36 -23q-5 -4 -9 -9.5t-9 -12t-8 -10.5q-17 -23 -47 -68q-48 -72 -89 -140q-76 -126 -164 -288q-150 -278 -280 -554q42 5 264 25q1 0 149 10l150 8q6 0 10.5 -4t4.5 -10t-4 -10.5t-10 -4.5
l-149 -10q-147 -11 -148 -11q-237 -24 -285 -31l-1 -2q-148 -315 -266 -610q-66 -167 -114 -311q-48 -142 -72 -248q8 1 13 -6q6 -8 1 -16l-36 -61q-5 -10 -16 -13t-21 3q-18 10 -14 29l2 5q17 81 43 164q3 12 7.5 25.5t9.5 29.5t8 25l27 79q52 144 122 312q118 285 265 589
q-274 -35 -554 -101q-44 -10 -100 -25q-135 -144 -252 -276q-132 -151 -237 -284q-135 -173 -211 -303q-7 -12 -20 -5q-10 6 -6 17v1q27 79 58 157q38 93 70 153q6 11 17.5 14.5t22 -2t14 -17t-2.5 -22.5q-1 -1 -1 -2q-23 -35 -49 -82q36 50 82 110q105 136 236 288
q91 106 208 234q-208 -57 -396 -130l-69 -27l-68 -29q-27 -11 -68 -29q-4 -2 -29.5 -13.5t-38.5 -17.5q-35 -16 -127 -60.5t-143 -66.5q-11 -5 -22.5 -1t-16 15t-0.5 22.5t15 16.5h1q50 21 142.5 64.5t128.5 58.5q5 3 11 5.5t11.5 5t11.5 5t11.5 5t11.5 5t11 5.5
q42 18 69 29l70 28l70 26q223 83 470 144q114 124 238 253q254 263 526 524q144 139 270 255q79 72 139 125q40 35 70 61q23 19 37 29q25 20 41 30q4 3 9 4q11 22 36 19zM2026 834q41 68 90 141q9 13 19 27q-35 -29 -48 -40q-59 -51 -138 -122q-127 -115 -272 -251
q-273 -258 -530 -519q-94 -95 -198 -205q4 1 11 2.5t12.5 3t10.5 2.5q297 66 583 98q162 335 293 574q89 162 167 289z" />
    <glyph glyph-name="B" unicode="B" horiz-adv-x="2206" 
d="M2210 14q6 1 10.5 -2.5t5.5 -9.5t-3 -11t-10 -5v0q-140 -16 -361 -90q0 -21 -4 -41q-2 -13 -5 -26q-6 -18 -9 -26q-8 -20 -24 -47q-42 -69 -126 -152q-115 -113 -300 -243q-158 -110 -324 -206q-376 -214 -697 -322q-100 -34 -187 -53q-51 -11 -96 -17q-19 -3 -49 -5
q-28 -1 -52 1q-17 2 -28 6q-21 7 -32 20q-9 10 -11 21q-2 8 0 21q3 14 12 29q4 6 8.5 12t10.5 12.5t9 10t11 11t9.5 9t11.5 10l10 8.5q72 61 152 119q132 93 322 206q157 93 333 188q374 199 686 334q170 74 310 125q0 25 -6 46q-6 26 -21 49.5t-36 42t-47 28.5
q-35 15 -84 21q-40 4 -91 2q-78 -3 -185 -24q-85 -18 -183 -47q-93 -29 -187 -64q-85 -46 -163 -80q-10 -5 -21.5 -0.5t-16 15.5t-0.5 22t14 16q266 125 545 338q127 99 245 208q126 115 226 228q57 65 101 124q56 73 86 131q21 40 29 69q4 18 3 30q-1 11 -5 15q-6 6 -25 9
q-17 2 -36 -1q-32 -5 -73 -25q-59 -31 -136 -85q-57 -41 -127 -99q-110 -90 -242 -215q-378 -359 -893 -939q-400 -451 -838 -990h-1v-1l-3 -3q-1 0 -2 -1t-3 -2l-1 -1q-2 -1 -4 -1l-1 -1q-2 0 -4 -1h-2h-4h-1q-2 1 -4 1q-1 0 -2 1q-2 0 -3 1q-1 0 -2 1l-1 0.5l-1 0.5l-1 1
q-1 0 -1 0.5v0.5h-1l-3 3q0 1 -1 2t-2 3q-1 1 -1 2q-1 1 -1 3q-1 1 -1 2q0 2 -0.5 3t-0.5 3v2.5t1 2.5v2.5t1 3.5q0 1 1 2q0 1 1 3q1 0 1 1v0q58 84 196 263q81 106 201 257l406 510q265 331 405 511q120 153 198 258q58 77 96 131q27 38 45 67q13 20 21 34q5 11 8 17l1 1
q-5 -1 -10 -3q-12 -5 -27 -13q-22 -12 -51 -33q-44 -31 -98 -74q-49 -40 -94 -81q-55 -51 -87 -87q-8 -9 -20 -9.5t-21 7.5t-9.5 20t7.5 21q1 0 1 1q35 36 96 85q48 39 100 77q58 42 105 71q32 19 56 31q18 8 31 13q10 3 18 4t12 0q10 -1 16 -7v-1q6 -5 6 -13q0 -4 -1 -9
q-1 -4 -4 -12t-9 -20q-9 -15 -21 -36q-19 -29 -46 -68q-38 -56 -95 -133q-78 -107 -196 -261q-138 -181 -399 -516l-261 -335q164 186 280 314q217 241 442 476q256 269 459 460q133 124 244 215q71 58 129 100q79 56 140 86q31 16 38 18q16 8 39 16q27 9 45 11q12 1 25 0
q15 -2 28 -9q15 -8 24 -23q8 -14 10 -30q3 -23 -4 -50q-9 -36 -32 -82q-33 -62 -90 -140q-45 -62 -103 -129q-103 -118 -229 -235q-120 -111 -250 -211q-108 -83 -216 -152q217 71 371 80q55 3 99 -1q58 -6 101 -23q51 -21 88 -62.5t51 -94.5q5 -19 7 -40q92 32 170 53
q110 30 189 39zM1161 811q1 -2 3 -2q-1 0 -1.5 0.5l-0.5 0.5l-0.5 0.5t-1.5 0.5h1zM1786 -156q2 11 4 21q0 2 0.5 5.5l0.5 3.5q-145 -52 -299 -118q-165 -72 -346 -160q-176 -86 -338 -175q-175 -95 -331 -189q-188 -114 -318 -207q-100 -73 -147 -120q-18 -18 -32 -35.5
t-22 -34.5q-4 -9 -5 -15l2 -3h1q4 -2 9 -3t18 -1q9 -1 44 2l45 5q42 6 91 17q84 20 180 53q156 54 349 145q170 80 336 176q180 105 320 201q181 127 294 235q79 77 118 140q13 23 19 38q2 5 7 19z" />
    <glyph glyph-name="C" unicode="C" horiz-adv-x="1796" 
d="M1805 -22q-228 -300 -525 -587q-142 -137 -295 -260q-170 -136 -323 -228q-93 -57 -175 -92q-47 -20 -94 -36q-56 -18 -99 -23q-57 -8 -106 2q-57 12 -98 50q-36 32 -65 87q-23 45 -34 100q-17 92 -2 206q13 92 47 196q55 169 161 364q175 319 448 651q121 147 264 295
q149 153 291 268q179 145 330 222q106 54 190 69q122 23 206 -35q44 -31 69 -83q21 -44 28 -101q11 -89 -12 -201q-20 -97 -62 -190q-46 -102 -103 -171l-20 19l54 49q10 10 20 -1t-1 -21l-55 -48q-10 -9 -19 2q-8 8 -1 17q54 68 96 167q38 91 56 184q20 107 8 189
q-7 50 -26 88q-21 42 -57 66q-34 23 -82 29q-40 6 -90 -4q-78 -16 -177 -67q-144 -77 -316 -222q-290 -245 -545 -557q-268 -328 -440 -644q-103 -190 -156 -353q-33 -100 -46 -186q-15 -104 0 -185q9 -48 28 -86q22 -44 51 -71q59 -57 162 -52q86 3 185 44q81 33 174 87
q147 87 319 227q136 111 292 260q295 285 522 584q9 11 20.5 2.5t2.5 -20.5z" />
    <glyph glyph-name="C" unicode="&#xc7;" horiz-adv-x="1796" 
d="M1805 -22q-228 -300 -525 -587q-142 -137 -295 -260q-170 -136 -323 -228q-93 -57 -175 -92q-47 -20 -94 -36q-56 -18 -99 -23q-57 -8 -106 2q-57 12 -98 50q-36 32 -65 87q-23 45 -34 100q-17 92 -2 206q13 92 47 196q55 169 161 364q175 319 448 651q121 147 264 295
q149 153 291 268q179 145 330 222q106 54 190 69q122 23 206 -35q44 -31 69 -83q21 -44 28 -101q11 -89 -12 -201q-20 -97 -62 -190q-46 -102 -103 -171l-20 19l54 49q10 10 20 -1t-1 -21l-55 -48q-10 -9 -19 2q-8 8 -1 17q54 68 96 167q38 91 56 184q20 107 8 189
q-7 50 -26 88q-21 42 -57 66q-34 23 -82 29q-40 6 -90 -4q-78 -16 -177 -67q-144 -77 -316 -222q-290 -245 -545 -557q-268 -328 -440 -644q-103 -190 -156 -353q-33 -100 -46 -186q-15 -104 0 -185q9 -48 28 -86q22 -44 51 -71q59 -57 162 -52q86 3 185 44q81 33 174 87
q147 87 319 227q136 111 292 260q295 285 522 584q9 11 20.5 2.5t2.5 -20.5z" />
    <glyph glyph-name="D" unicode="D" horiz-adv-x="2262" 
d="M2279 -10q2 -6 -1.5 -11t-9.5 -6v0q-104 -21 -301 -75q-9 -3 -85 -24q-68 -107 -153 -209q-193 -234 -457 -430q-260 -194 -539 -321q-157 -71 -295 -109q-81 -23 -156 -33q-44 -5 -81 -6q-40 -1 -81 2q-88 7 -159 33q-53 19 -91 46q-87 -126 -111 -160v-1h-1
q-1 -2 -3 -4q-15 -15 -34 -5q-12 7 -14 20v1q-1 2 -1 4v1q0 2 1 4v3t0.5 2.5t1.5 2.5v1h1q55 102 82 149q3 4 22 38q-25 36 -32 74q-8 46 8 90q2 7 4 12q2 4 6 11q6 10 15 19q13 15 32 29q30 22 68 43q40 23 93 50q3 6 18.5 31.5t23.5 38.5q132 220 351 578
q304 495 667 1080q-19 -17 -37 -33q-40 -37 -92 -92q-41 -43 -87 -97q-48 -56 -84 -101q-7 -9 -19 -10.5t-21.5 6t-11 19.5t6.5 21q0 1 1 1q39 44 90 98q51 52 94 93q56 54 99 89q62 51 108 79q0 1 1 1h1q2 1 3 1h1q3 1 5 0q3 -1 4 -1q13 -8 5 -20q-370 -609 -697 -1157
q-214 -359 -344 -581q-1 0 -1.5 -1t-0.5 -2l10 5t11.5 5.5t9.5 4.5q173 238 321 438q178 238 259 347t228 300t268 341q114 140 200 238q51 58 106 115q40 41 56 55q44 39 65 51q78 41 165 23q80 -15 148 -77q57 -52 100 -131q37 -70 58 -151q38 -149 21 -319
q-14 -149 -71 -309q-54 -153 -146 -303q5 1 26.5 7.5t33.5 9.5q82 24 150 41q95 26 151 38q3 1 6 0t5 -2t4 -3.5t2 -5.5zM474 -298q-121 -167 -271 -378q117 51 281 114q228 87 586 208q291 97 592 188q77 23 147 44q116 173 180 350q55 153 70 295q16 160 -19 298
q-41 161 -140 255q-56 53 -120 71q-70 20 -138 -9q-25 -11 -60 -41q-31 -26 -56 -52q-42 -42 -105 -113q-86 -98 -199 -238q-162 -203 -379 -492q-146 -193 -369 -500zM67 -771l-1 -1q-42 -71 -57 -98q9 12 25 34.5t29 40.5t25 34q-3 -2 -10 -5t-11 -5zM-161 -1012
q2 -14 9 -28q20 36 29 51q41 69 100 168q-25 -16 -42 -29q-35 -25 -58 -48q-31 -32 -35 -51q-9 -33 -3 -63zM1680 -294q58 69 108 141q-74 -21 -119 -35q-300 -90 -592 -187q-303 -102 -584 -211q-161 -63 -286 -119q-5 -2 -11 -5t-13 -6t-11 -5q-141 -199 -269 -383
q33 -24 78 -40q63 -23 144 -29q38 -2 75 -1q34 0 74 6q70 9 147 31q134 38 286 108q272 125 526 315q262 198 447 420z" />
    <glyph glyph-name="E" unicode="E" horiz-adv-x="2082" 
d="M2223 1087q10 -18 11 -40q-1 -32 -24 -67q-15 -22 -40 -45q-38 -34 -91 -66q-25 -15 -49 -26q-15 -8 -27 -12q-8 -3 -15 -5q-6 -2 -9.5 -2.5t-8.5 -0.5h-3q-3 0 -5 1q-4 1 -7 2q-7 4 -11 10q-7 9 -5 21t11 19q10 7 21 5h1q4 2 10 4q9 4 22 10q22 11 44 25q49 30 81 60
q19 18 30 35q13 18 13 31q-1 7 -3 11l-4 6q-1 1 -1.5 1t-0.5 0.5t-0.5 1t-1.5 0.5q-10 7 -36 8q-38 2 -98 -9q-46 -8 -101 -23q-91 -24 -201 -64q-187 -68 -389 -165q-205 -97 -373 -199q-97 -59 -176 -116q-96 -71 -159 -134q-41 -41 -66 -77q-12 -17 -25 -42
q-15 -27 -19 -41q-8 -24 0 -39q9 -17 35 -27q36 -13 100 -14q84 1 209 25q90 18 206 51q115 34 202 66q54 20 98 39q4 1 16 6q68 38 73 41q3 2 7 3q5 2 10 1q15 -2 23 -15q5 -11 2 -22t-13 -17l-1 -1q-272 -154 -533 -320q-290 -182 -515 -348q-136 -100 -245 -190
q-135 -114 -224 -211q-57 -62 -96 -118q-48 -68 -66 -130q-10 -32 -8 -67q3 -35 19 -56q17 -23 51 -34q25 -9 70 -11q69 -1 151 18q65 15 148 44q126 45 287 120q256 120 549 292q274 161 527 334q134 91 253 181q69 53 121 97q28 24 58 52q33 31 51 55h1q8 12 19.5 3
t3.5 -21h-1q-19 -25 -55 -58q-29 -26 -60 -51q-53 -44 -123 -97q-105 -79 -255 -180q-254 -173 -528 -334q-304 -179 -550 -297q-161 -76 -289 -122q-80 -30 -150 -48q-93 -25 -157 -30q-52 -2 -84 6q-51 12 -80 46q-29 33 -34 87q-4 43 9 87q20 71 73 148q41 59 100 125
q91 100 229 218q117 99 247 194q383 279 848 548q-97 -33 -173 -54q-107 -31 -208 -52q-127 -26 -213 -29q-69 -1 -110 14q-33 12 -51 35q-20 26 -19 63q0 50 41 110q28 41 72 86q66 67 166 141q80 58 179 120q363 222 772 372q113 41 206 66q59 15 107 23q68 12 114 9
q17 -1 31 -5q20 -5 35 -14q3 -2 8 -7q6 -5 8 -8q7 -8 11 -16z" />
    <glyph glyph-name="E" unicode="&#xcb;" horiz-adv-x="2082" 
d="M2223 1087q10 -18 11 -40q-1 -32 -24 -67q-15 -22 -40 -45q-38 -34 -91 -66q-25 -15 -49 -26q-15 -8 -27 -12q-8 -3 -15 -5q-6 -2 -9.5 -2.5t-8.5 -0.5h-3q-3 0 -5 1q-4 1 -7 2q-7 4 -11 10q-7 9 -5 21t11 19q10 7 21 5h1q4 2 10 4q9 4 22 10q22 11 44 25q49 30 81 60
q19 18 30 35q13 18 13 31q-1 7 -3 11l-4 6q-1 1 -1.5 1t-0.5 0.5t-0.5 1t-1.5 0.5q-10 7 -36 8q-38 2 -98 -9q-46 -8 -101 -23q-91 -24 -201 -64q-187 -68 -389 -165q-205 -97 -373 -199q-97 -59 -176 -116q-96 -71 -159 -134q-41 -41 -66 -77q-12 -17 -25 -42
q-15 -27 -19 -41q-8 -24 0 -39q9 -17 35 -27q36 -13 100 -14q84 1 209 25q90 18 206 51q115 34 202 66q54 20 98 39q4 1 16 6q68 38 73 41q3 2 7 3q5 2 10 1q15 -2 23 -15q5 -11 2 -22t-13 -17l-1 -1q-272 -154 -533 -320q-290 -182 -515 -348q-136 -100 -245 -190
q-135 -114 -224 -211q-57 -62 -96 -118q-48 -68 -66 -130q-10 -32 -8 -67q3 -35 19 -56q17 -23 51 -34q25 -9 70 -11q69 -1 151 18q65 15 148 44q126 45 287 120q256 120 549 292q274 161 527 334q134 91 253 181q69 53 121 97q28 24 58 52q33 31 51 55h1q8 12 19.5 3
t3.5 -21h-1q-19 -25 -55 -58q-29 -26 -60 -51q-53 -44 -123 -97q-105 -79 -255 -180q-254 -173 -528 -334q-304 -179 -550 -297q-161 -76 -289 -122q-80 -30 -150 -48q-93 -25 -157 -30q-52 -2 -84 6q-51 12 -80 46q-29 33 -34 87q-4 43 9 87q20 71 73 148q41 59 100 125
q91 100 229 218q117 99 247 194q383 279 848 548q-97 -33 -173 -54q-107 -31 -208 -52q-127 -26 -213 -29q-69 -1 -110 14q-33 12 -51 35q-20 26 -19 63q0 50 41 110q28 41 72 86q66 67 166 141q80 58 179 120q363 222 772 372q113 41 206 66q59 15 107 23q68 12 114 9
q17 -1 31 -5q20 -5 35 -14q3 -2 8 -7q6 -5 8 -8q7 -8 11 -16z" />
    <glyph glyph-name="E" unicode="&#xca;" horiz-adv-x="2082" 
d="M2223 1087q10 -18 11 -40q-1 -32 -24 -67q-15 -22 -40 -45q-38 -34 -91 -66q-25 -15 -49 -26q-15 -8 -27 -12q-8 -3 -15 -5q-6 -2 -9.5 -2.5t-8.5 -0.5h-3q-3 0 -5 1q-4 1 -7 2q-7 4 -11 10q-7 9 -5 21t11 19q10 7 21 5h1q4 2 10 4q9 4 22 10q22 11 44 25q49 30 81 60
q19 18 30 35q13 18 13 31q-1 7 -3 11l-4 6q-1 1 -1.5 1t-0.5 0.5t-0.5 1t-1.5 0.5q-10 7 -36 8q-38 2 -98 -9q-46 -8 -101 -23q-91 -24 -201 -64q-187 -68 -389 -165q-205 -97 -373 -199q-97 -59 -176 -116q-96 -71 -159 -134q-41 -41 -66 -77q-12 -17 -25 -42
q-15 -27 -19 -41q-8 -24 0 -39q9 -17 35 -27q36 -13 100 -14q84 1 209 25q90 18 206 51q115 34 202 66q54 20 98 39q4 1 16 6q68 38 73 41q3 2 7 3q5 2 10 1q15 -2 23 -15q5 -11 2 -22t-13 -17l-1 -1q-272 -154 -533 -320q-290 -182 -515 -348q-136 -100 -245 -190
q-135 -114 -224 -211q-57 -62 -96 -118q-48 -68 -66 -130q-10 -32 -8 -67q3 -35 19 -56q17 -23 51 -34q25 -9 70 -11q69 -1 151 18q65 15 148 44q126 45 287 120q256 120 549 292q274 161 527 334q134 91 253 181q69 53 121 97q28 24 58 52q33 31 51 55h1q8 12 19.5 3
t3.5 -21h-1q-19 -25 -55 -58q-29 -26 -60 -51q-53 -44 -123 -97q-105 -79 -255 -180q-254 -173 -528 -334q-304 -179 -550 -297q-161 -76 -289 -122q-80 -30 -150 -48q-93 -25 -157 -30q-52 -2 -84 6q-51 12 -80 46q-29 33 -34 87q-4 43 9 87q20 71 73 148q41 59 100 125
q91 100 229 218q117 99 247 194q383 279 848 548q-97 -33 -173 -54q-107 -31 -208 -52q-127 -26 -213 -29q-69 -1 -110 14q-33 12 -51 35q-20 26 -19 63q0 50 41 110q28 41 72 86q66 67 166 141q80 58 179 120q363 222 772 372q113 41 206 66q59 15 107 23q68 12 114 9
q17 -1 31 -5q20 -5 35 -14q3 -2 8 -7q6 -5 8 -8q7 -8 11 -16z" />
    <glyph glyph-name="E" unicode="&#xc9;" horiz-adv-x="2082" 
d="M2223 1087q10 -18 11 -40q-1 -32 -24 -67q-15 -22 -40 -45q-38 -34 -91 -66q-25 -15 -49 -26q-15 -8 -27 -12q-8 -3 -15 -5q-6 -2 -9.5 -2.5t-8.5 -0.5h-3q-3 0 -5 1q-4 1 -7 2q-7 4 -11 10q-7 9 -5 21t11 19q10 7 21 5h1q4 2 10 4q9 4 22 10q22 11 44 25q49 30 81 60
q19 18 30 35q13 18 13 31q-1 7 -3 11l-4 6q-1 1 -1.5 1t-0.5 0.5t-0.5 1t-1.5 0.5q-10 7 -36 8q-38 2 -98 -9q-46 -8 -101 -23q-91 -24 -201 -64q-187 -68 -389 -165q-205 -97 -373 -199q-97 -59 -176 -116q-96 -71 -159 -134q-41 -41 -66 -77q-12 -17 -25 -42
q-15 -27 -19 -41q-8 -24 0 -39q9 -17 35 -27q36 -13 100 -14q84 1 209 25q90 18 206 51q115 34 202 66q54 20 98 39q4 1 16 6q68 38 73 41q3 2 7 3q5 2 10 1q15 -2 23 -15q5 -11 2 -22t-13 -17l-1 -1q-272 -154 -533 -320q-290 -182 -515 -348q-136 -100 -245 -190
q-135 -114 -224 -211q-57 -62 -96 -118q-48 -68 -66 -130q-10 -32 -8 -67q3 -35 19 -56q17 -23 51 -34q25 -9 70 -11q69 -1 151 18q65 15 148 44q126 45 287 120q256 120 549 292q274 161 527 334q134 91 253 181q69 53 121 97q28 24 58 52q33 31 51 55h1q8 12 19.5 3
t3.5 -21h-1q-19 -25 -55 -58q-29 -26 -60 -51q-53 -44 -123 -97q-105 -79 -255 -180q-254 -173 -528 -334q-304 -179 -550 -297q-161 -76 -289 -122q-80 -30 -150 -48q-93 -25 -157 -30q-52 -2 -84 6q-51 12 -80 46q-29 33 -34 87q-4 43 9 87q20 71 73 148q41 59 100 125
q91 100 229 218q117 99 247 194q383 279 848 548q-97 -33 -173 -54q-107 -31 -208 -52q-127 -26 -213 -29q-69 -1 -110 14q-33 12 -51 35q-20 26 -19 63q0 50 41 110q28 41 72 86q66 67 166 141q80 58 179 120q363 222 772 372q113 41 206 66q59 15 107 23q68 12 114 9
q17 -1 31 -5q20 -5 35 -14q3 -2 8 -7q6 -5 8 -8q7 -8 11 -16z" />
    <glyph glyph-name="E" unicode="&#xc8;" horiz-adv-x="2082" 
d="M2223 1087q10 -18 11 -40q-1 -32 -24 -67q-15 -22 -40 -45q-38 -34 -91 -66q-25 -15 -49 -26q-15 -8 -27 -12q-8 -3 -15 -5q-6 -2 -9.5 -2.5t-8.5 -0.5h-3q-3 0 -5 1q-4 1 -7 2q-7 4 -11 10q-7 9 -5 21t11 19q10 7 21 5h1q4 2 10 4q9 4 22 10q22 11 44 25q49 30 81 60
q19 18 30 35q13 18 13 31q-1 7 -3 11l-4 6q-1 1 -1.5 1t-0.5 0.5t-0.5 1t-1.5 0.5q-10 7 -36 8q-38 2 -98 -9q-46 -8 -101 -23q-91 -24 -201 -64q-187 -68 -389 -165q-205 -97 -373 -199q-97 -59 -176 -116q-96 -71 -159 -134q-41 -41 -66 -77q-12 -17 -25 -42
q-15 -27 -19 -41q-8 -24 0 -39q9 -17 35 -27q36 -13 100 -14q84 1 209 25q90 18 206 51q115 34 202 66q54 20 98 39q4 1 16 6q68 38 73 41q3 2 7 3q5 2 10 1q15 -2 23 -15q5 -11 2 -22t-13 -17l-1 -1q-272 -154 -533 -320q-290 -182 -515 -348q-136 -100 -245 -190
q-135 -114 -224 -211q-57 -62 -96 -118q-48 -68 -66 -130q-10 -32 -8 -67q3 -35 19 -56q17 -23 51 -34q25 -9 70 -11q69 -1 151 18q65 15 148 44q126 45 287 120q256 120 549 292q274 161 527 334q134 91 253 181q69 53 121 97q28 24 58 52q33 31 51 55h1q8 12 19.5 3
t3.5 -21h-1q-19 -25 -55 -58q-29 -26 -60 -51q-53 -44 -123 -97q-105 -79 -255 -180q-254 -173 -528 -334q-304 -179 -550 -297q-161 -76 -289 -122q-80 -30 -150 -48q-93 -25 -157 -30q-52 -2 -84 6q-51 12 -80 46q-29 33 -34 87q-4 43 9 87q20 71 73 148q41 59 100 125
q91 100 229 218q117 99 247 194q383 279 848 548q-97 -33 -173 -54q-107 -31 -208 -52q-127 -26 -213 -29q-69 -1 -110 14q-33 12 -51 35q-20 26 -19 63q0 50 41 110q28 41 72 86q66 67 166 141q80 58 179 120q363 222 772 372q113 41 206 66q59 15 107 23q68 12 114 9
q17 -1 31 -5q20 -5 35 -14q3 -2 8 -7q6 -5 8 -8q7 -8 11 -16z" />
    <glyph glyph-name="F" unicode="F" horiz-adv-x="1634" 
d="M3078.5 1395.5l-0.5 -2.5q-25 -49 -91 -139q-47 -62 -104 -127q-62 -72 -112 -120q-75 -73 -130 -107q-11 -7 -22.5 -4t-18 13t-3.5 21.5t13 18.5h1l1 1q51 29 124 94q51 45 115 112q59 62 107 121q31 37 47 59q-11 -7 -14 -9q-38 -23 -90 -48q-77 -38 -185 -81
q-161 -63 -381 -135q-304 -98 -699 -203q-16 -27 -52 -79q-39 -58 -106 -150q-92 -123 -224 -290q-147 -185 -331 -406q2 0 3.5 0.5t3.5 1t3 0.5q178 37 350 57q189 22 354 21q6 -1 10 -5t4 -10q0 -4 -2 -7.5t-5 -5t-7 -1.5q-163 -2 -350 -28q-169 -24 -345 -64
q-22 -5 -65 -15q-57 -68 -87 -105q-281 -332 -478 -555q-144 -163 -244 -273q-77 -84 -125 -135q-28 -29 -64 -66l-33 -33l-17 -16l-5 -4q-1 -1 -6 -5q-6 -4 -12 -9q-10 -7 -21.5 -5t-18.5 12q-11 16 0 32l3 5l2 2l2 2l4 6l8 9l16 20l32 38l65 78l128 154q88 106 255 311
q206 255 373 475q-42 -13 -49 -15q-189 -62 -323 -131l-3 -2q-11 -5 -22 -1.5t-16 13.5q-10 20 6 34l77 70q11 9 21 -2q7 -8 1 -17l-2 -4q107 45 245 88q50 15 113 32q60 80 71 95q127 172 229 329q128 194 200 346q29 62 46 109q-52 -13 -78 -19q-116 -27 -197 -44
q-85 -17 -201 -31q-122 -13 -205 -10q-28 2 -53 6q-34 5 -56 15q-22 12 -31 28q-9 14 -5 31q3 12 12 23q6 7 14 13q2 1 4 2.5l4 3t3 2.5q1 0 9.5 5.5t12.5 8.5q73 45 181 95q87 40 187 80q118 46 190 70q63 19 104 21q29 2 56 -2q33 -6 55 -23q24 -17 37 -46q9 -22 14 -54
q3 -29 2 -53q-2 -24 -8 -52v-2q0 -1 -1 -2q142 34 251 61q16 4 45.5 12t36.5 9q13 23 24 43q7 13 19 6q13 -6 7 -19q-2 -3 -3.5 -6l-3.5 -7l-3 -6q355 92 652 183q220 68 380 129q105 39 184 77q51 23 88 45q51 29 80 55v1q2 2 5 3q6 2 12 -1q7 -4 7 -13q0 -1 -0.5 -3.5z
M1158 794q11 3 108 25q3 12 5 18q11 56 4 95q-8 55 -42 71q-28 14 -84 4q-43 -7 -92 -23q-71 -22 -188 -68q-98 -38 -183 -77q-105 -48 -175 -91q-4 -3 -11.5 -8t-8.5 -6l-9 -6q15 -7 41 -11q21 -3 47 -5q79 -3 196 9q114 13 197 30q80 17 195 43zM745 -188q4 4 7.5 8.5
t7 8.5l7 8t7.5 8.5t7 8.5q-16 -4 -54 -15q-120 -167 -255 -343q155 178 273 316zM1556 801q21 29 33 46q-3 -1 -8.5 -2t-10.5 -2.5t-9 -2.5q-150 -39 -279 -71q-18 -55 -52 -130q-66 -140 -198 -352q-91 -145 -224 -335q-7 -10 -20 -28t-17 -24q30 7 62 15q215 251 384 456
q134 163 229 285q72 92 110 145z" />
    <glyph glyph-name="G" unicode="G" horiz-adv-x="1606" 
d="M1300 585q4 -4 4 -9q43 35 86 78q101 104 183 231q49 77 69 128q14 37 13 65q0 35 -20 56q-21 23 -54 24q-28 1 -66 -12q-30 -10 -67 -27q-28 -13 -65 -35q-56 -32 -123 -79q-55 -38 -121 -86q-114 -85 -232 -185q-232 -198 -428 -411q-106 -115 -193 -225
q-106 -138 -160 -244q-38 -74 -50 -132q-3 -14 -4 -33l-1 -16q1 -9 2 -13q5 -23 28 -33t61 -9q30 1 70 9q61 12 139 40q123 43 271 116q126 62 261 141q123 73 229 146q23 24 32 32q44 43 65.5 63t61 52t75.5 53q1 0 2 2t2 3v1q4 6 12 8t14.5 -2.5t8.5 -12t-2 -14.5
q-16 -26 -49 -62q-25 -25 -56 -52q-52 -46 -118 -95l-1 -1q-80 -89 -159 -181q-121 -142 -270 -328q266 118 393 182q131 66 238 132q70 43 113 75q60 44 104 86q11 10 21 -0.5t-1 -20.5v-1q-86 -78 -223 -161q-110 -65 -242 -130q-129 -64 -433 -199q-3 -4 -19.5 -25
t-25.5 -32l-337 -430l-169 -216q-27 -34 -43 -53q-27 -33 -59 -50q-45 -23 -84 -8q-20 7 -35 25q-12 15 -20 34q-12 32 -11 73q1 34 11 71q17 62 57 128q66 107 184 206q54 45 111 83q47 30 119 68q86 44 226 107l1 1q199 248 350 421q2 2 6.5 7t6.5 7q-31 -20 -59 -37
q-129 -78 -263 -146q-155 -78 -276 -121q-83 -30 -148 -43q-44 -8 -79 -10q-51 -1 -85 13q-26 10 -42 29q-17 20 -22 47q-2 9 -3 23v22q2 23 5 41q14 66 55 147q56 112 166 255q84 109 195 229q200 214 436 414q120 101 236 187q128 94 256 159q85 42 142 59q45 13 80 12
q48 -2 79 -36q16 -16 24 -38q7 -20 7 -43q0 -36 -17 -80q-23 -57 -72 -135q-86 -135 -186 -237q-58 -59 -115 -101q-8 -6 -31 -22l-16 -10l-2 -2q-2 -1 -3 -2q-4 -1 -5 -2q-11 -3 -22 8q-7 11 -3 16l2 4q1 4 6 11q9 13 25 31q11 13 25 27q11 10 21 0zM289 -950
q193 252 306 392q-113 -51 -185 -89q-72 -37 -117 -68q-56 -37 -108 -82q-114 -97 -177 -201q-18 -30 -31.5 -60.5t-21.5 -60.5q-19 -76 0 -126q6 -14 16 -23.5t22 -10.5q21 -3 46 17q20 16 42 42q15 18 42 53z" />
    <glyph glyph-name="H" unicode="H" horiz-adv-x="2860" 
d="M3148 1154.5q8 -7.5 9 -18.5t-5 -20q-434 -611 -746 -1150q1 0 10.5 -0.5t15.5 -0.5q204 -11 435 53q5 1 10.5 -2t7 -8.5t-1.5 -11t-9 -6.5q-229 -62 -444 -52q-12 0 -39 3q-94 -163 -199 -357t-175 -328t-203 -393l-8 -15q-8 -16 -26 -16q-7 0 -13 3q-11 6 -14.5 17.5
t2.5 21.5l7 15q128 249 196.5 379.5t172.5 323.5t197 355q-60 7 -120 19l-109 21l-109 21q-139 25 -276 44q-164 -239 -328 -458q-147 -196 -278 -349q-170 -199 -310 -323q-99 -87 -182 -136q-57 -33 -107 -49q-32 -10 -60 -13q-32 -3 -61 0q-64 6 -117 38q-50 30 -90 82
q-63 82 -98 210q-28 106 -33 226q-1 65 5 116q2 17 5 29q3 14 5 27q2 14 8 54q20 141 51 222q44 113 129 192q78 75 193 123q49 21 108 38q51 15 110 26q188 36 447 31q200 -4 444 -35q54 -7 109 -14q88 129 180 270q248 378 463 739q-24 1 -52 -1q-7 -1 -14.5 -2
t-17.5 -2.5t-15 -1.5q-3 -1 -20 -4t-27 -5q-90 -20 -182 -57t-172 -84q-90 -53 -150 -112h-1q-8 -9 -20 -8.5t-20.5 9t-8 20.5t8.5 20l1 1q68 61 165 114q85 46 181.5 80.5t190.5 51.5q8 1 16 2.5t18 3t15 2.5q49 4 50 4q49 2 86 -4q6 1 11 -2h2.5h1.5q11 -2 11 -13
q8 -15 0 -28q-328 -554 -633 -1003q136 -21 263 -44l109 -20l109 -23q65 -12 130 -20q294 508 675 1054q-5 3 -8 7q-8 9 -7 21t10 20l97 81q8 7 19 7t19 -7.5zM1338 -369q148 197 307 431q-287 37 -535 39q-255 2 -438 -36q-56 -11 -106 -26q-55 -17 -101 -38
q-107 -47 -178 -116q-75 -73 -114 -176q-28 -76 -46 -211q-6 -40 -8 -55q-2 -14 -5 -29q-2 -10 -4 -25q-5 -46 -3 -107q4 -109 32 -212q32 -118 88 -190q33 -43 74 -67q42 -26 92 -30q24 -3 50 0q23 2 48 10q44 14 95 44q79 47 173 130q136 121 304 317q129 152 275 347z
" />
    <glyph glyph-name="I" unicode="I" horiz-adv-x="1260" 
d="M1695 972q1 -9 0 -22v-21q0 -1 -3 -22q-6 -42 -21 -82q-10 -29 -32 -76q-58 -118 -173 -272q-158 -209 -418 -482q-190 -199 -453 -446q-253 -235 -473 -425q-132 -113 -244 -204q-69 -57 -124 -100q-87 -68 -129 -96q-10 -7 -21.5 -4.5t-18.5 12t-4.5 21.5t12.5 18v1
l1 1h1q1 2 1 3l55 99q5 11 16.5 14t22.5 -2q18 -11 14 -31q1 1 6 4.5t8 5.5q54 44 122 100q111 93 241 206q267 234 470 424q237 222 451 443q259 269 416 474q112 149 169 262q39 82 48 140q0 2 1 8t2 10q1 17 1 18q0 20 -1 37q-3 37 -17 65q-15 30 -44 48l-15 8q-3 2 -9 4
t-7 2l-8 3l-9 2l-18 4q-60 9 -152 -7q-116 -21 -304 -84q-319 -109 -580 -250q-166 -92 -266 -169q-74 -58 -117 -104q-61 -66 -84 -126v-1q-5 -13 -18.5 -8t-8.5 19q26 65 92 135q45 47 121 105q112 84 270 170q278 148 582 255q169 58 307 89q102 22 163 17l21 -3l11 -2
l10 -3l21 -6l21 -9q43 -22 67 -63q20 -36 26 -86q2 -10 2 -21z" />
    <glyph glyph-name="I" unicode="&#xcf;" horiz-adv-x="1260" 
d="M1695 972q1 -9 0 -22v-21q0 -1 -3 -22q-6 -42 -21 -82q-10 -29 -32 -76q-58 -118 -173 -272q-158 -209 -418 -482q-190 -199 -453 -446q-253 -235 -473 -425q-132 -113 -244 -204q-69 -57 -124 -100q-87 -68 -129 -96q-10 -7 -21.5 -4.5t-18.5 12t-4.5 21.5t12.5 18v1
l1 1h1q1 2 1 3l55 99q5 11 16.5 14t22.5 -2q18 -11 14 -31q1 1 6 4.5t8 5.5q54 44 122 100q111 93 241 206q267 234 470 424q237 222 451 443q259 269 416 474q112 149 169 262q39 82 48 140q0 2 1 8t2 10q1 17 1 18q0 20 -1 37q-3 37 -17 65q-15 30 -44 48l-15 8q-3 2 -9 4
t-7 2l-8 3l-9 2l-18 4q-60 9 -152 -7q-116 -21 -304 -84q-319 -109 -580 -250q-166 -92 -266 -169q-74 -58 -117 -104q-61 -66 -84 -126v-1q-5 -13 -18.5 -8t-8.5 19q26 65 92 135q45 47 121 105q112 84 270 170q278 148 582 255q169 58 307 89q102 22 163 17l21 -3l11 -2
l10 -3l21 -6l21 -9q43 -22 67 -63q20 -36 26 -86q2 -10 2 -21z" />
    <glyph glyph-name="I" unicode="&#xce;" horiz-adv-x="1260" 
d="M1695 972q1 -9 0 -22v-21q0 -1 -3 -22q-6 -42 -21 -82q-10 -29 -32 -76q-58 -118 -173 -272q-158 -209 -418 -482q-190 -199 -453 -446q-253 -235 -473 -425q-132 -113 -244 -204q-69 -57 -124 -100q-87 -68 -129 -96q-10 -7 -21.5 -4.5t-18.5 12t-4.5 21.5t12.5 18v1
l1 1h1q1 2 1 3l55 99q5 11 16.5 14t22.5 -2q18 -11 14 -31q1 1 6 4.5t8 5.5q54 44 122 100q111 93 241 206q267 234 470 424q237 222 451 443q259 269 416 474q112 149 169 262q39 82 48 140q0 2 1 8t2 10q1 17 1 18q0 20 -1 37q-3 37 -17 65q-15 30 -44 48l-15 8q-3 2 -9 4
t-7 2l-8 3l-9 2l-18 4q-60 9 -152 -7q-116 -21 -304 -84q-319 -109 -580 -250q-166 -92 -266 -169q-74 -58 -117 -104q-61 -66 -84 -126v-1q-5 -13 -18.5 -8t-8.5 19q26 65 92 135q45 47 121 105q112 84 270 170q278 148 582 255q169 58 307 89q102 22 163 17l21 -3l11 -2
l10 -3l21 -6l21 -9q43 -22 67 -63q20 -36 26 -86q2 -10 2 -21z" />
    <glyph glyph-name="I" unicode="&#xcd;" horiz-adv-x="1260" 
d="M1695 972q1 -9 0 -22v-21q0 -1 -3 -22q-6 -42 -21 -82q-10 -29 -32 -76q-58 -118 -173 -272q-158 -209 -418 -482q-190 -199 -453 -446q-253 -235 -473 -425q-132 -113 -244 -204q-69 -57 -124 -100q-87 -68 -129 -96q-10 -7 -21.5 -4.5t-18.5 12t-4.5 21.5t12.5 18v1
l1 1h1q1 2 1 3l55 99q5 11 16.5 14t22.5 -2q18 -11 14 -31q1 1 6 4.5t8 5.5q54 44 122 100q111 93 241 206q267 234 470 424q237 222 451 443q259 269 416 474q112 149 169 262q39 82 48 140q0 2 1 8t2 10q1 17 1 18q0 20 -1 37q-3 37 -17 65q-15 30 -44 48l-15 8q-3 2 -9 4
t-7 2l-8 3l-9 2l-18 4q-60 9 -152 -7q-116 -21 -304 -84q-319 -109 -580 -250q-166 -92 -266 -169q-74 -58 -117 -104q-61 -66 -84 -126v-1q-5 -13 -18.5 -8t-8.5 19q26 65 92 135q45 47 121 105q112 84 270 170q278 148 582 255q169 58 307 89q102 22 163 17l21 -3l11 -2
l10 -3l21 -6l21 -9q43 -22 67 -63q20 -36 26 -86q2 -10 2 -21z" />
    <glyph glyph-name="I" unicode="&#xcc;" horiz-adv-x="1260" 
d="M1695 972q1 -9 0 -22v-21q0 -1 -3 -22q-6 -42 -21 -82q-10 -29 -32 -76q-58 -118 -173 -272q-158 -209 -418 -482q-190 -199 -453 -446q-253 -235 -473 -425q-132 -113 -244 -204q-69 -57 -124 -100q-87 -68 -129 -96q-10 -7 -21.5 -4.5t-18.5 12t-4.5 21.5t12.5 18v1
l1 1h1q1 2 1 3l55 99q5 11 16.5 14t22.5 -2q18 -11 14 -31q1 1 6 4.5t8 5.5q54 44 122 100q111 93 241 206q267 234 470 424q237 222 451 443q259 269 416 474q112 149 169 262q39 82 48 140q0 2 1 8t2 10q1 17 1 18q0 20 -1 37q-3 37 -17 65q-15 30 -44 48l-15 8q-3 2 -9 4
t-7 2l-8 3l-9 2l-18 4q-60 9 -152 -7q-116 -21 -304 -84q-319 -109 -580 -250q-166 -92 -266 -169q-74 -58 -117 -104q-61 -66 -84 -126v-1q-5 -13 -18.5 -8t-8.5 19q26 65 92 135q45 47 121 105q112 84 270 170q278 148 582 255q169 58 307 89q102 22 163 17l21 -3l11 -2
l10 -3l21 -6l21 -9q43 -22 67 -63q20 -36 26 -86q2 -10 2 -21z" />
    <glyph glyph-name="J" unicode="J" horiz-adv-x="2011" 
d="M2531 1111q4 0 6.5 -3t4 -6.5t0.5 -7.5q-3 -13 -17 -11h-1q-69 12 -190 6q-2 0 -27 -1q-1 -4 -2 -6q-318 -539 -631 -1000q164 -25 347 -62q6 -2 9 -7t2 -10.5t-6 -9t-11 -2.5q-188 41 -358 67q-107 -157 -206 -296q-123 -171 -236 -314q-135 -171 -254 -302
q-158 -174 -285 -276q-93 -73 -170 -110q-54 -25 -101 -33q-57 -8 -108 2q-54 11 -100 43q-41 30 -75 76q-53 73 -85 186q-26 94 -35 198q-9 115 2 201q13 113 42 196q34 100 94 179q59 79 145 139q77 54 177 94q165 64 386 84q184 16 394 4q171 -10 363 -37
q118 173 236 354q213 328 396 636q-46 -5 -95 -12q-100 -14 -190 -34q-108 -25 -182 -54q-11 -5 -22 0t-15.5 16t0 22t16.5 16h1q79 28 192 49q93 18 195 28q67 7 132 10q9 4 19 1q25 1 45 2q126 1 198 -15zM1400 -201q86 119 189 269q-185 25 -348 34q-209 11 -390 -6
q-216 -22 -376 -87q-197 -79 -302 -225q-55 -75 -85 -169q-25 -79 -36 -187q-9 -82 2 -191q10 -104 34 -188q31 -103 79 -168q29 -38 63 -62q36 -25 79 -33q41 -9 87 -2q39 7 85 29q71 34 158 103q123 100 277 270q209 233 484 613z" />
    <glyph glyph-name="K" unicode="K" horiz-adv-x="1883" 
d="M3314 1176q6 -1 9.5 -6t2.5 -11q-1 -4 -3 -7t-6 -4.5t-8 -0.5v0q-58 9 -132 1q-61 -7 -131 -25q-115 -30 -256 -88q-217 -92 -484 -244q-421 -243 -907 -600q-2 -1 -4 -3t-4.5 -3.5t-4.5 -3.5q-61 -79 -105 -136q0 -9 1 -20q4 -68 5 -162q4 -217 10 -322q11 -187 39 -315
q19 -87 45 -149q17 -39 35 -68q20 -33 46 -59q53 -54 128 -64q69 -10 152 16q66 20 144 64q66 38 135 87q115 83 247 206q105 97 226 229q10 10 21 0.5t1 -20.5h-1q-131 -136 -245.5 -241.5t-233.5 -194.5q-155 -114 -284 -161q-92 -32 -166 -27q-47 4 -86 21t-74 48
q-57 51 -97 141q-30 66 -51 159q-31 132 -43 324q-7 104 -10 325q0 6 -0.5 47t-1.5 63q-64 -81 -113 -141q-182 -225 -348 -420q-205 -238 -364 -407q-111 -117 -194 -193q-63 -58 -107 -89q-38 -26 -63 -37q-23 -9 -40 -12h-12q-3 0 -6.5 0.5l-3.5 0.5q-6 1 -20 4
q-23 7 -38 19q-19 16 -23 40q-4 17 1 40q2 17 10 36q12 30 32 63q17 29 37 58q64 91 175 211q158 170 392 379q306 273 679 557l-2 19q-3 22 -7 35q-2 8 -5 13q0 1 -1 2q1 0 3 -1q-12 4 -17 15t-1 22.5t15 16.5t22 1q18 -7 30 -27q6 -11 10 -25q2 -6 5 -17q85 107 128 163
q181 235 326 435q88 121 156 222q84 123 145 227q18 31 30 57q2 4 3 8h-1q-60 -4 -128 -27q-12 -3 -32 -11l-32 -12q-20 -8 -62 -27q-18 -7 -61 -28q-25 -12 -60 -31q-124 -64 -234 -136q-66 -44 -110 -79l-26 -20l-26 -22q-2 -2 -48 -45l-1 -1q-9 -8 -21 -7.5t-20 9
t-7.5 20.5t8.5 20q1 1 2 1q79 68 228 157q116 69 241 131q45 22 61 30q44 21 62 28q42 19 63 27l32 13q1 1 13.5 5.5t18.5 6.5q88 34 135 41l18 3q11 1 20 -3q6 -3 12 -10q3 -6 5 -12q2 -11 -1 -27q-1 -8 -5 -20q-8 -24 -28 -66q-25 -47 -70 -119q-34 -53 -75 -114
q-68 -102 -156 -224q-145 -202 -325 -438q-2 -3 -6.5 -8.5t-6.5 -8.5q459 335 861 567q270 157 486 248q142 60 258 91q72 19 135 27q77 9 140 0zM2073 1248zM1060 -129q41 51 126 159q-108 -84 -217 -172q-222 -180 -414 -352q-233 -211 -389 -379q-109 -120 -171 -209
q-47 -68 -64 -116q-5 -17 -7 -30q-2 -15 2 -27q4 -10 13 -16q8 -6 23 -9q12 -1 14 -1h4h3l4 1q10 2 25 10q21 13 52 37q43 34 100 86q81 76 191 192q157 168 359 407q165 194 346 419z" />
    <glyph glyph-name="L" unicode="L" horiz-adv-x="1337" 
d="M2123 -432q6 0 10 -4.5t3.5 -10.5t-5 -10t-9.5 -4h-1q-270 10 -620 -51q-288 -52 -607 -148q-297 -89 -589 -208q-153 -62 -297 -130q-181 -209 -259 -316h-1q-7 -10 -18.5 -11.5t-21.5 5.5t-11.5 18.5t5.5 21.5q47 67 131 170q5 5 40 47q-70 -34 -134 -69
q-11 -5 -22.5 -1.5t-17 14t-2 22t13.5 16.5h1q118 62 248 121q2 2 5.5 6.5t5.5 6.5q123 141 284 317q130 143 289 313q163 175 293 309q305 317 595 609q194 195 302 300q88 84 155 147q44 41 78 72q3 2 6 4.5t6 5.5t6 5q-15 -8 -28 -15q-25 -16 -45 -33q-23 -19 -33 -37
q-5 -11 -17 -14t-22.5 2.5t-13.5 17t3 22.5q1 2 2 3v1q18 24 51 46q24 16 55 30q29 13 58 22q16 5 30 8q21 4 34 4l47 2l-39 -29q-14 -10 -40 -32q-15 -14 -39 -36q-33 -31 -76 -74q-65 -63 -151 -150q-165 -166 -297 -303q-286 -295 -587 -616q-433 -463 -578 -624
q-99 -109 -206 -231q98 42 193 80q296 116 595 203q323 93 614 141q354 58 628 45z" />
    <glyph glyph-name="M" unicode="M" horiz-adv-x="1912" 
d="M2361 1124q10 -7 11.5 -19t-5.5 -22q-28 -37 -91 -145t-151.5 -272t-181.5 -356.5t-180 -400.5t-147.5 -402.5t-84.5 -362.5t9 -282q3 -11 -2.5 -21.5t-17.5 -14.5q-4 -1 -8 -1q-22 0 -28 21q-15 54 -18.5 122t5 144t25 158.5t42 171t54.5 175.5t64.5 178.5t70 173
t71.5 165.5q40 87 84 180q-66 -99 -120 -178q-191 -277 -331 -456q-97 -124 -181 -217q-108 -119 -204 -197q-26 -20 -40 -30t-39 -24t-48 -22q-47 -15 -85 1q-37 15 -63 58q-30 54 -35 149q-2 64 8 145q14 120 54 280q32 124 79 272q75 234 193 531q41 104 108 261
q5 11 35 78q-45 -65 -69 -101q-88 -134 -174 -270q-153 -242 -339 -546l-335 -549q-4 -7 -167 -275q-108 -176 -168 -274q-1 0 -1 -0.5v-0.5l-2 -2l-4 -4q-1 -1 -3 -2l-4 -2t-4 -1q-2 -1 -5 -1h-1h-1.5h-1h-1.5h-3q0 1 -1.5 1h-1.5q-12 4 -17 14.5t-2 22.5
q32 94 127.5 288.5t242.5 458.5t365.5 608.5t456.5 675.5q7 10 19 12t21.5 -5t11.5 -19t-5 -22q-293 -407 -545 -817.5t-428 -746.5q46 76 75 120l344 543q207 323 349 541q118 181 177 269q46 69 91 133l47 66q7 10 22 34l6 12q0 1 1 3l2 4l2 4l2 4t1 4q3 5 7 9q6 12 18 16
t23.5 -1.5t16 -18t-1.5 -23.5q-4 -9 -13 -14q-111 -250 -214 -510q-112 -282 -191 -528q-48 -145 -80 -268q-40 -155 -55 -272q-10 -76 -8 -135q1 -37 6 -66q7 -34 19 -58q14 -29 35 -40q20 -11 53 -4q27 6 61 23q26 14 58 36q47 34 105 90q47 45 98 101q83 91 181 214
q166 209 333 453q109 159 220 332q111 221 214 402.5t142 234.5q8 9 19.5 11t21.5 -5z" />
    <glyph glyph-name="N" unicode="N" horiz-adv-x="1822" 
d="M2235.5 971q5.5 -2 8.5 -7.5t1 -10.5v-1q-4 -11 -16 -36l-17 -34q-13 -25 -35 -67q-33 -61 -73 -133q-61 -112 -150 -263q-158 -272 -314 -516q-189 -297 -339 -500q-104 -140 -190 -237q-50 -57 -105 -110q-72 -68 -121 -97q-45 -25 -81 -28q-10 -1 -11 -1l-12 2
q-7 0 -25 6q-2 1 -21 13q-7 5 -18 16q-27 31 -39 78q-10 37 -12 80q-3 65 7 156q8 68 24 151q26 130 73 296q40 140 89 290q158 465 370 958q-45 -65 -76 -112q-88 -134 -174 -270q-153 -242 -339 -546l-335 -549q-4 -7 -167 -275q-108 -176 -168 -274q-1 0 -1 -0.5v-0.5
l-2 -2l-4 -4q-1 -1 -3 -2l-4 -2t-4 -1q-2 -1 -5 -1h-1h-1.5h-1h-1.5h-3q0 1 -1.5 1h-1.5q-12 4 -17 14.5t-2 22.5q32 94 127.5 288.5t242.5 458.5t365.5 608.5t456.5 675.5q7 10 19 12t21.5 -5t11.5 -19t-5 -22q-293 -407 -545 -817.5t-428 -746.5q46 76 75 120l344 543
q207 323 349 541q118 181 177 269q46 69 91 133l47 66q7 10 22 34l7 15l2.5 5t2.5 5.5t2 4.5q3 6 7 10q6 12 18 16t23.5 -1.5t16 -18t-1.5 -23.5q-4 -9 -13 -14q-120 -279 -225 -550q-120 -307 -207 -566q-116 -346 -164 -577q-16 -80 -24 -146q-10 -86 -8 -146q2 -37 9 -69
q8 -36 25 -57q18 -23 45 -24q26 -1 63 16q23 11 62 37q37 28 57 47q43 38 105 107q86 95 190 233q162 217 341 497q155 244 313 516q72 124 148 263q40 73 71 133q20 37 34 67q10 20 16 34q11 22 14 33v1q2 5 7.5 8t11 1z" />
    <glyph glyph-name="N" unicode="&#xd1;" horiz-adv-x="1822" 
d="M2235.5 971q5.5 -2 8.5 -7.5t1 -10.5v-1q-4 -11 -16 -36l-17 -34q-13 -25 -35 -67q-33 -61 -73 -133q-61 -112 -150 -263q-158 -272 -314 -516q-189 -297 -339 -500q-104 -140 -190 -237q-50 -57 -105 -110q-72 -68 -121 -97q-45 -25 -81 -28q-10 -1 -11 -1l-12 2
q-7 0 -25 6q-2 1 -21 13q-7 5 -18 16q-27 31 -39 78q-10 37 -12 80q-3 65 7 156q8 68 24 151q26 130 73 296q40 140 89 290q158 465 370 958q-45 -65 -76 -112q-88 -134 -174 -270q-153 -242 -339 -546l-335 -549q-4 -7 -167 -275q-108 -176 -168 -274q-1 0 -1 -0.5v-0.5
l-2 -2l-4 -4q-1 -1 -3 -2l-4 -2t-4 -1q-2 -1 -5 -1h-1h-1.5h-1h-1.5h-3q0 1 -1.5 1h-1.5q-12 4 -17 14.5t-2 22.5q32 94 127.5 288.5t242.5 458.5t365.5 608.5t456.5 675.5q7 10 19 12t21.5 -5t11.5 -19t-5 -22q-293 -407 -545 -817.5t-428 -746.5q46 76 75 120l344 543
q207 323 349 541q118 181 177 269q46 69 91 133l47 66q7 10 22 34l7 15l2.5 5t2.5 5.5t2 4.5q3 6 7 10q6 12 18 16t23.5 -1.5t16 -18t-1.5 -23.5q-4 -9 -13 -14q-120 -279 -225 -550q-120 -307 -207 -566q-116 -346 -164 -577q-16 -80 -24 -146q-10 -86 -8 -146q2 -37 9 -69
q8 -36 25 -57q18 -23 45 -24q26 -1 63 16q23 11 62 37q37 28 57 47q43 38 105 107q86 95 190 233q162 217 341 497q155 244 313 516q72 124 148 263q40 73 71 133q20 37 34 67q10 20 16 34q11 22 14 33v1q2 5 7.5 8t11 1z" />
    <glyph glyph-name="O" unicode="O" horiz-adv-x="2149" 
d="M931 687l-17 -12q-1 -1 -3 -1t-4 -2q-9 -3 -13 -5q-8 -4 -27 -15q-5 -3 -15 -9.5t-12 -8.5l-27 -19q-47 -34 -104 -83q-94 -81 -192 -187q-194 -210 -313 -432q-140 -261 -152 -503q-8 -153 35 -252q26 -60 73 -96q51 -37 116 -41q116 -10 262 38q118 39 243 114
q217 130 418 339q194 205 320 433q145 264 177 505q18 136 -3 267q-2 12 -14 65q0 2 -10 32l-5 15l-7 15q-27 65 -71 108q-45 46 -105 71q-54 23 -123 31q-52 5 -126 -10q-58 -12 -126 -36q-243 -90 -457 -269q-3 -3 -49 -44q-42 -41 -47 -47q-48 -50 -83 -100
q-83 -115 -99 -235q-9 -77 -4 -129q7 -72 36 -124q31 -57 81 -102q47 -42 109 -75q105 -55 253 -84q124 -23 268 -25q260 -3 536 56q134 29 260 74q140 49 246 109q13 7 20 -5.5t-5 -19.5l-1 -1q-213 -113 -515 -179q-278 -60 -541 -57q-146 2 -273 24q-151 28 -261 84
q-65 34 -115 78q-52 46 -88 109q-35 63 -51 131q-17 73 -11 142q6 67 35 140q25 60 69 124q40 58 88 109l49 49q47 42 52 47q97 83 227 159q126 73 250 117q73 25 135 37q82 16 145 8q75 -12 136 -44q66 -33 112 -88q1 -1 9.5 -11.5t12.5 -16.5l20 -30q22 -42 30 -63l7 -16
l5 -17q1 -4 4.5 -15.5t5.5 -17.5q12 -55 14 -68q21 -135 1 -275q-34 -246 -183 -513q-62 -112 -149 -229q-84 -112 -175 -209q-201 -213 -421 -346q-127 -76 -247 -117q-138 -47 -272 -46q-77 -2 -141 36q-64 40 -98 111q-29 61 -39 139q-8 71 -5 140q11 256 156 530
q121 226 322 445q91 99 199 191q60 50 109 85l29 20q1 1 12.5 8t17.5 11q21 12 32 17q7 3 19 7q8 4 26 6q10 1 18 -6t9 -17q1 -14 -10 -23z" />
    <glyph glyph-name="O" unicode="&#xd8;" horiz-adv-x="2149" 
d="M931 687l-17 -12q-1 -1 -3 -1t-4 -2q-9 -3 -13 -5q-8 -4 -27 -15q-5 -3 -15 -9.5t-12 -8.5l-27 -19q-47 -34 -104 -83q-94 -81 -192 -187q-194 -210 -313 -432q-140 -261 -152 -503q-8 -153 35 -252q26 -60 73 -96q51 -37 116 -41q116 -10 262 38q118 39 243 114
q217 130 418 339q194 205 320 433q145 264 177 505q18 136 -3 267q-2 12 -14 65q0 2 -10 32l-5 15l-7 15q-27 65 -71 108q-45 46 -105 71q-54 23 -123 31q-52 5 -126 -10q-58 -12 -126 -36q-243 -90 -457 -269q-3 -3 -49 -44q-42 -41 -47 -47q-48 -50 -83 -100
q-83 -115 -99 -235q-9 -77 -4 -129q7 -72 36 -124q31 -57 81 -102q47 -42 109 -75q105 -55 253 -84q124 -23 268 -25q260 -3 536 56q134 29 260 74q140 49 246 109q13 7 20 -5.5t-5 -19.5l-1 -1q-213 -113 -515 -179q-278 -60 -541 -57q-146 2 -273 24q-151 28 -261 84
q-65 34 -115 78q-52 46 -88 109q-35 63 -51 131q-17 73 -11 142q6 67 35 140q25 60 69 124q40 58 88 109l49 49q47 42 52 47q97 83 227 159q126 73 250 117q73 25 135 37q82 16 145 8q75 -12 136 -44q66 -33 112 -88q1 -1 9.5 -11.5t12.5 -16.5l20 -30q22 -42 30 -63l7 -16
l5 -17q1 -4 4.5 -15.5t5.5 -17.5q12 -55 14 -68q21 -135 1 -275q-34 -246 -183 -513q-62 -112 -149 -229q-84 -112 -175 -209q-201 -213 -421 -346q-127 -76 -247 -117q-138 -47 -272 -46q-77 -2 -141 36q-64 40 -98 111q-29 61 -39 139q-8 71 -5 140q11 256 156 530
q121 226 322 445q91 99 199 191q60 50 109 85l29 20q1 1 12.5 8t17.5 11q21 12 32 17q7 3 19 7q8 4 26 6q10 1 18 -6t9 -17q1 -14 -10 -23z" />
    <glyph glyph-name="O" unicode="&#xd6;" horiz-adv-x="2149" 
d="M931 687l-17 -12q-1 -1 -3 -1t-4 -2q-9 -3 -13 -5q-8 -4 -27 -15q-5 -3 -15 -9.5t-12 -8.5l-27 -19q-47 -34 -104 -83q-94 -81 -192 -187q-194 -210 -313 -432q-140 -261 -152 -503q-8 -153 35 -252q26 -60 73 -96q51 -37 116 -41q116 -10 262 38q118 39 243 114
q217 130 418 339q194 205 320 433q145 264 177 505q18 136 -3 267q-2 12 -14 65q0 2 -10 32l-5 15l-7 15q-27 65 -71 108q-45 46 -105 71q-54 23 -123 31q-52 5 -126 -10q-58 -12 -126 -36q-243 -90 -457 -269q-3 -3 -49 -44q-42 -41 -47 -47q-48 -50 -83 -100
q-83 -115 -99 -235q-9 -77 -4 -129q7 -72 36 -124q31 -57 81 -102q47 -42 109 -75q105 -55 253 -84q124 -23 268 -25q260 -3 536 56q134 29 260 74q140 49 246 109q13 7 20 -5.5t-5 -19.5l-1 -1q-213 -113 -515 -179q-278 -60 -541 -57q-146 2 -273 24q-151 28 -261 84
q-65 34 -115 78q-52 46 -88 109q-35 63 -51 131q-17 73 -11 142q6 67 35 140q25 60 69 124q40 58 88 109l49 49q47 42 52 47q97 83 227 159q126 73 250 117q73 25 135 37q82 16 145 8q75 -12 136 -44q66 -33 112 -88q1 -1 9.5 -11.5t12.5 -16.5l20 -30q22 -42 30 -63l7 -16
l5 -17q1 -4 4.5 -15.5t5.5 -17.5q12 -55 14 -68q21 -135 1 -275q-34 -246 -183 -513q-62 -112 -149 -229q-84 -112 -175 -209q-201 -213 -421 -346q-127 -76 -247 -117q-138 -47 -272 -46q-77 -2 -141 36q-64 40 -98 111q-29 61 -39 139q-8 71 -5 140q11 256 156 530
q121 226 322 445q91 99 199 191q60 50 109 85l29 20q1 1 12.5 8t17.5 11q21 12 32 17q7 3 19 7q8 4 26 6q10 1 18 -6t9 -17q1 -14 -10 -23z" />
    <glyph glyph-name="O" unicode="&#xd5;" horiz-adv-x="2149" 
d="M931 687l-17 -12q-1 -1 -3 -1t-4 -2q-9 -3 -13 -5q-8 -4 -27 -15q-5 -3 -15 -9.5t-12 -8.5l-27 -19q-47 -34 -104 -83q-94 -81 -192 -187q-194 -210 -313 -432q-140 -261 -152 -503q-8 -153 35 -252q26 -60 73 -96q51 -37 116 -41q116 -10 262 38q118 39 243 114
q217 130 418 339q194 205 320 433q145 264 177 505q18 136 -3 267q-2 12 -14 65q0 2 -10 32l-5 15l-7 15q-27 65 -71 108q-45 46 -105 71q-54 23 -123 31q-52 5 -126 -10q-58 -12 -126 -36q-243 -90 -457 -269q-3 -3 -49 -44q-42 -41 -47 -47q-48 -50 -83 -100
q-83 -115 -99 -235q-9 -77 -4 -129q7 -72 36 -124q31 -57 81 -102q47 -42 109 -75q105 -55 253 -84q124 -23 268 -25q260 -3 536 56q134 29 260 74q140 49 246 109q13 7 20 -5.5t-5 -19.5l-1 -1q-213 -113 -515 -179q-278 -60 -541 -57q-146 2 -273 24q-151 28 -261 84
q-65 34 -115 78q-52 46 -88 109q-35 63 -51 131q-17 73 -11 142q6 67 35 140q25 60 69 124q40 58 88 109l49 49q47 42 52 47q97 83 227 159q126 73 250 117q73 25 135 37q82 16 145 8q75 -12 136 -44q66 -33 112 -88q1 -1 9.5 -11.5t12.5 -16.5l20 -30q22 -42 30 -63l7 -16
l5 -17q1 -4 4.5 -15.5t5.5 -17.5q12 -55 14 -68q21 -135 1 -275q-34 -246 -183 -513q-62 -112 -149 -229q-84 -112 -175 -209q-201 -213 -421 -346q-127 -76 -247 -117q-138 -47 -272 -46q-77 -2 -141 36q-64 40 -98 111q-29 61 -39 139q-8 71 -5 140q11 256 156 530
q121 226 322 445q91 99 199 191q60 50 109 85l29 20q1 1 12.5 8t17.5 11q21 12 32 17q7 3 19 7q8 4 26 6q10 1 18 -6t9 -17q1 -14 -10 -23z" />
    <glyph glyph-name="O" unicode="&#xd4;" horiz-adv-x="2149" 
d="M931 687l-17 -12q-1 -1 -3 -1t-4 -2q-9 -3 -13 -5q-8 -4 -27 -15q-5 -3 -15 -9.5t-12 -8.5l-27 -19q-47 -34 -104 -83q-94 -81 -192 -187q-194 -210 -313 -432q-140 -261 -152 -503q-8 -153 35 -252q26 -60 73 -96q51 -37 116 -41q116 -10 262 38q118 39 243 114
q217 130 418 339q194 205 320 433q145 264 177 505q18 136 -3 267q-2 12 -14 65q0 2 -10 32l-5 15l-7 15q-27 65 -71 108q-45 46 -105 71q-54 23 -123 31q-52 5 -126 -10q-58 -12 -126 -36q-243 -90 -457 -269q-3 -3 -49 -44q-42 -41 -47 -47q-48 -50 -83 -100
q-83 -115 -99 -235q-9 -77 -4 -129q7 -72 36 -124q31 -57 81 -102q47 -42 109 -75q105 -55 253 -84q124 -23 268 -25q260 -3 536 56q134 29 260 74q140 49 246 109q13 7 20 -5.5t-5 -19.5l-1 -1q-213 -113 -515 -179q-278 -60 -541 -57q-146 2 -273 24q-151 28 -261 84
q-65 34 -115 78q-52 46 -88 109q-35 63 -51 131q-17 73 -11 142q6 67 35 140q25 60 69 124q40 58 88 109l49 49q47 42 52 47q97 83 227 159q126 73 250 117q73 25 135 37q82 16 145 8q75 -12 136 -44q66 -33 112 -88q1 -1 9.5 -11.5t12.5 -16.5l20 -30q22 -42 30 -63l7 -16
l5 -17q1 -4 4.5 -15.5t5.5 -17.5q12 -55 14 -68q21 -135 1 -275q-34 -246 -183 -513q-62 -112 -149 -229q-84 -112 -175 -209q-201 -213 -421 -346q-127 -76 -247 -117q-138 -47 -272 -46q-77 -2 -141 36q-64 40 -98 111q-29 61 -39 139q-8 71 -5 140q11 256 156 530
q121 226 322 445q91 99 199 191q60 50 109 85l29 20q1 1 12.5 8t17.5 11q21 12 32 17q7 3 19 7q8 4 26 6q10 1 18 -6t9 -17q1 -14 -10 -23z" />
    <glyph glyph-name="O" unicode="&#xd3;" horiz-adv-x="2149" 
d="M931 687l-17 -12q-1 -1 -3 -1t-4 -2q-9 -3 -13 -5q-8 -4 -27 -15q-5 -3 -15 -9.5t-12 -8.5l-27 -19q-47 -34 -104 -83q-94 -81 -192 -187q-194 -210 -313 -432q-140 -261 -152 -503q-8 -153 35 -252q26 -60 73 -96q51 -37 116 -41q116 -10 262 38q118 39 243 114
q217 130 418 339q194 205 320 433q145 264 177 505q18 136 -3 267q-2 12 -14 65q0 2 -10 32l-5 15l-7 15q-27 65 -71 108q-45 46 -105 71q-54 23 -123 31q-52 5 -126 -10q-58 -12 -126 -36q-243 -90 -457 -269q-3 -3 -49 -44q-42 -41 -47 -47q-48 -50 -83 -100
q-83 -115 -99 -235q-9 -77 -4 -129q7 -72 36 -124q31 -57 81 -102q47 -42 109 -75q105 -55 253 -84q124 -23 268 -25q260 -3 536 56q134 29 260 74q140 49 246 109q13 7 20 -5.5t-5 -19.5l-1 -1q-213 -113 -515 -179q-278 -60 -541 -57q-146 2 -273 24q-151 28 -261 84
q-65 34 -115 78q-52 46 -88 109q-35 63 -51 131q-17 73 -11 142q6 67 35 140q25 60 69 124q40 58 88 109l49 49q47 42 52 47q97 83 227 159q126 73 250 117q73 25 135 37q82 16 145 8q75 -12 136 -44q66 -33 112 -88q1 -1 9.5 -11.5t12.5 -16.5l20 -30q22 -42 30 -63l7 -16
l5 -17q1 -4 4.5 -15.5t5.5 -17.5q12 -55 14 -68q21 -135 1 -275q-34 -246 -183 -513q-62 -112 -149 -229q-84 -112 -175 -209q-201 -213 -421 -346q-127 -76 -247 -117q-138 -47 -272 -46q-77 -2 -141 36q-64 40 -98 111q-29 61 -39 139q-8 71 -5 140q11 256 156 530
q121 226 322 445q91 99 199 191q60 50 109 85l29 20q1 1 12.5 8t17.5 11q21 12 32 17q7 3 19 7q8 4 26 6q10 1 18 -6t9 -17q1 -14 -10 -23z" />
    <glyph glyph-name="O" unicode="&#xd2;" horiz-adv-x="2149" 
d="M931 687l-17 -12q-1 -1 -3 -1t-4 -2q-9 -3 -13 -5q-8 -4 -27 -15q-5 -3 -15 -9.5t-12 -8.5l-27 -19q-47 -34 -104 -83q-94 -81 -192 -187q-194 -210 -313 -432q-140 -261 -152 -503q-8 -153 35 -252q26 -60 73 -96q51 -37 116 -41q116 -10 262 38q118 39 243 114
q217 130 418 339q194 205 320 433q145 264 177 505q18 136 -3 267q-2 12 -14 65q0 2 -10 32l-5 15l-7 15q-27 65 -71 108q-45 46 -105 71q-54 23 -123 31q-52 5 -126 -10q-58 -12 -126 -36q-243 -90 -457 -269q-3 -3 -49 -44q-42 -41 -47 -47q-48 -50 -83 -100
q-83 -115 -99 -235q-9 -77 -4 -129q7 -72 36 -124q31 -57 81 -102q47 -42 109 -75q105 -55 253 -84q124 -23 268 -25q260 -3 536 56q134 29 260 74q140 49 246 109q13 7 20 -5.5t-5 -19.5l-1 -1q-213 -113 -515 -179q-278 -60 -541 -57q-146 2 -273 24q-151 28 -261 84
q-65 34 -115 78q-52 46 -88 109q-35 63 -51 131q-17 73 -11 142q6 67 35 140q25 60 69 124q40 58 88 109l49 49q47 42 52 47q97 83 227 159q126 73 250 117q73 25 135 37q82 16 145 8q75 -12 136 -44q66 -33 112 -88q1 -1 9.5 -11.5t12.5 -16.5l20 -30q22 -42 30 -63l7 -16
l5 -17q1 -4 4.5 -15.5t5.5 -17.5q12 -55 14 -68q21 -135 1 -275q-34 -246 -183 -513q-62 -112 -149 -229q-84 -112 -175 -209q-201 -213 -421 -346q-127 -76 -247 -117q-138 -47 -272 -46q-77 -2 -141 36q-64 40 -98 111q-29 61 -39 139q-8 71 -5 140q11 256 156 530
q121 226 322 445q91 99 199 191q60 50 109 85l29 20q1 1 12.5 8t17.5 11q21 12 32 17q7 3 19 7q8 4 26 6q10 1 18 -6t9 -17q1 -14 -10 -23z" />
    <glyph glyph-name="P" unicode="P" horiz-adv-x="1817" 
d="M2068 959q16 -59 13 -107q-2 -90 -39 -207q-57 -172 -179 -373q-67 -106 -117 -171q0 -1 -64 -81l-33 -40q-23 -26 -35 -38l-35 -38q-7 -8 -21 -22t-16 -15q-12 -13 -75 -71q-92 -79 -166 -126q-188 -126 -385 -162q-99 -18 -212 -10q-1 0 -52 8q-3 0 -8.5 1t-10 1.5
t-8.5 1.5l-26 6q-62 18 -102 46q-47 33 -74 83q-94 -152 -161 -261q-99 -161 -168 -277q-48 -80 -81 -139q-24 -42 -39 -71q-10 -19 -18 -35q-11 -24 -14 -33v-2q-3 -11 -13.5 -16.5t-21.5 -1.5q-5 1 -9 5q-16 11 -25 29q-8 16 -10 33q-4 25 2 60q7 43 32 103q33 79 95 184
q86 146 229 341q76 102 165 213q-3 38 3 80q7 57 24 102q17 47 44 95q28 47 56 87q62 84 134 157q10 10 20.5 0t0.5 -21h-1q-72 -66 -134 -151q-32 -44 -54 -85q-25 -46 -40 -91q-16 -46 -19 -96q-2 -15 -1 -35q104 130 223 266l268 424q103 164 171 275q49 80 83 139
q2 3 4.5 7t5 8.5t3.5 6.5l-77 -70q-50 -47 -79 -75q-48 -48 -69 -79l-1 -1q-7 -9 -18.5 -11t-21.5 4.5t-12 18.5t5 22l1 1q23 30 79 83q30 29 82 75l81 74q23 21 40 37q24 24 31 40q5 11 16 15.5t23 -0.5q3 -1 6 -4q11 -5 11 -17q2 -9 -2 -18q-1 -4 -5 -7q0 -1 -0.5 -1.5
t-0.5 -1.5q-3 -7 -9 -19q-7 -15 -18 -37q-16 -29 -40 -71q-35 -60 -83 -140q-68 -114 -169 -277l-123 -197q261 284 491 489q185 165 323 253q49 32 89 52q54 26 99 37q9 2 26 5q15 2 27 2q30 2 55 -4q53 -12 91 -65q26 -37 43 -99zM489 -156q-32 -41 -63 -80q0 -1 0.5 -3
t0.5 -4q0 -1 1 -3.5t1 -3.5q33 51 60 94zM217 -588q78 126 182 289q-4 12 -6 21q-73 -95 -137 -184q-134 -188 -221 -340q-59 -103 -89 -179q-21 -54 -27 -92q-1 -7 -1 -14q1 1 3 5l3 6q16 30 40 72q34 60 82 140q70 115 171 276zM2035 854l1 24q1 5 0.5 8t-1 8t-0.5 8
q0 4 -6 47q-13 57 -33 89q-28 44 -70 55q-32 10 -94 -2q-39 -8 -92 -34q-38 -20 -87 -51q-135 -87 -318 -251q-138 -124 -292 -283q-150 -154 -277 -299q-13 -15 -47 -54l-115 -184q-81 -129 -152 -243q6 -11 13 -20q26 -36 64 -63q36 -23 85 -36l23 -6q5 0 14 -1.5t10 -1.5
l48 -7q105 -6 195 11q187 38 362 155q153 101 302 261q11 12 33 37l33 38q7 9 20 25t23.5 29t19.5 25q48 62 115 166q56 90 98 175q48 97 79 184l15 47l14 48q1 6 5 22.5t5 25.5l4 24q3 17 3 24z" />
    <glyph glyph-name="Q" unicode="Q" horiz-adv-x="1742" 
d="M1786 -839q49 -63 53 -134q1 -8 -4.5 -14t-13.5 -6.5t-14 5t-6 13.5q-5 59 -47 111q-33 42 -94 87q-81 59 -229 132q-74 35 -232 106q-202 -207 -421 -334q-128 -73 -248 -109q-53 -17 -133 -32q-37 -5 -68 -8l-35 -1h-18l-18 1q-77 4 -137 52q-54 45 -83 121
q-13 32 -20 66.5t-11 72.5q-2 19 -4 69q0 10 0.5 22t1 26t0.5 21q8 131 53 270q41 128 109 252t161 248q-3 32 -3 59q-1 38 4 71q0 1 2.5 14.5t3.5 20.5l9 35q38 122 138 241q81 96 200 188q111 85 229 147q61 32 124 58q68 29 129 47q76 21 137 26l18 2h18q10 0 37 -3
q38 -5 69 -15q71 -20 127 -63q58 -43 94 -106q3 -4 5.5 -9t6 -11.5t4.5 -9.5l8 -16l7 -16q1 -3 3 -8t3.5 -8.5t3 -7.5t2.5 -8l10 -33q20 -75 23 -135q12 -133 -14 -270q-23 -126 -77 -259q-50 -124 -121 -242q-126 -210 -293 -389q138 -63 216 -102q151 -77 234 -139
q65 -49 101 -96zM399 382q-16 -53 -17 -116q52 64 106 122q91 98 196 187q59 50 108 85q33 23 58 37q20 12 32 17q6 3 19 8q8 3 26 5q10 1 18.5 -6t9.5 -17q1 -16 -12 -25l-16 -10q-1 0 -3 -0.5t-4.5 -1.5t-6 -2.5t-6.5 -3.5q-9 -4 -27 -14q-5 -4 -15 -10t-12 -8l-26 -18
q-47 -34 -103 -82q-97 -85 -190 -185q-76 -82 -144 -171q5 -22 10 -40q33 -112 131 -215q79 -83 204 -163q94 -61 232 -130q79 -40 246 -116q83 87 146 169q80 104 149 221t118 239q52 131 74 254q24 134 12 264q-4 60 -23 129q-19 64 -54 117q-36 53 -90 87q-49 32 -116 48
q-17 5 -62 11q-23 1 -30 1h-15l-16 -1q-56 -5 -126 -25q-58 -17 -123 -44q-60 -25 -119 -56q-113 -60 -222 -142q-114 -87 -190 -179q-93 -109 -127 -220zM764 -849q214 121 412 320q-148 66 -232 108q-141 69 -238 131q-131 83 -215 170q-107 110 -145 234
q-70 -99 -123 -195q-141 -259 -158 -495v-12.5t-0.5 -13.5t-0.5 -12.5t-0.5 -13t-0.5 -12.5q1 -48 3 -65q7 -71 26 -123q23 -59 66 -98q31 -25 49 -32q4 -2 8.5 -4t10 -4t9.5 -4q1 0 12 -3t17 -4l16 -2l16 -1l32 -3h16.5h15.5q31 2 33 2q67 7 129 26q117 35 242 106z" />
    <glyph glyph-name="R" unicode="R" horiz-adv-x="1822" 
d="M2323 -515q6 -2 8.5 -7t0.5 -11q-11 -33 -39 -89q-20 -41 -46 -84q-51 -84 -112 -156q-132 -158 -296 -242q-86 -44 -181 -66q-87 -19 -192 -20q-97 -1 -193 17q-91 14 -186 66l-21 13l-11 6l-10 7l-41 29l-37 32q-5 4 -10 8.5t-8.5 8.5t-8.5 9l-9 9q-67 69 -118 157
q-93 164 -133 365q-19 93 -27 192q-3 36 -5 79l-2 1t-3 2q-20 11 -38 27q-2 -3 -9.5 -15.5t-11.5 -18.5l-290 -483q-91 -152 -143 -242q-40 -69 -69 -121q-23 -43 -32 -62q-18 -34 -28 -60l-1 -2q-4 -11 -14.5 -16t-20.5 -1q-5 2 -8 4v1q-29 20 -35 57q-4 25 0 56
q6 41 28 97q29 74 86 172q80 139 209 317q133 183 291 374q-23 40 -28 84q-6 54 12 104q15 41 49 88q25 35 62 74q4 4 29.5 30t36.5 42q6 9 16.5 11t19.5 -4q12 -8 11 -23l-1 -17q-19 -50 -31 -118l92 150l147 240q32 53 72 120q11 19 27 47l-32 -28l-98 -80
q-60 -48 -97 -80q-12 -11 -23 -21q-14 -12 -22 -21q-22 -20 -38 -43l-2 -2q-7 -10 -19 -12t-21.5 5.5t-11.5 19t5 21.5q1 1 1 2q19 21 24 26l12 12l13 11q10 9 25 21q12 10 25 20q39 30 102 76l103 74q28 21 49 38q2 1 11 8t13 11q1 2 3.5 4t4 3.5l3.5 3.5l9 10l2 2v0
q7 8 16 4q8 -4 9 -12q0 -4 -1 -7q-3 -13 -5 -18l-6 -17q-3 -7 -8.5 -19t-6.5 -14q-18 -39 -31 -64q-15 -30 -66 -125q-26 -47 -140 -245q-13 -22 -49 -83q231 257 438 455q153 146 283 251q82 66 153 114q96 64 168 91q26 10 48 14q29 6 48 7q32 2 51 -1q5 -1 26 -6
q23 -9 25 -11q46 -25 71 -79q21 -45 28 -98q0 -1 0.5 -3.5t0.5 -4.5t1 -4v-13v-27l-2 -25q0 -4 -1 -8t-2 -9t-1 -8q-7 -38 -25 -95q-29 -83 -80 -177q-89 -165 -218 -314q-69 -79 -134 -138q-66 -63 -147 -123q-65 -49 -162 -103l-43 -22q-3 -1 -6 -2.5t-5.5 -3l-5 -3
t-5.5 -2.5l-22 -10q-2 0 -19 -7.5t-26 -10.5l-45 -17q-103 -34 -188 -45q-20 -3 -97 -8q-2 -1 -24 -0.5t-24 0.5q-37 1 -49 3l-48 4q-2 1 -24 4q-2 1 -11 2.5t-14 2.5q-12 3 -24 7q2 -23 4 -47q8 -95 26 -184q40 -198 123 -347q47 -82 108 -147l14 -14t19 -18l34 -30l37 -26
l9 -7l10 -6l19 -11q86 -49 168 -71q105 -28 182 -31q190 -8 362 77q159 77 289 234q61 73 108 154q25 43 44 83q23 48 35 86h1q1 6 6.5 8.5t11.5 0.5zM768 87q-19 -21 -46 -54q-3 -4 -7 -12q-4 -51 -5 -100q0 -43 1 -88q19 -7 37 -12q3 0 7 -1t8.5 -1.5t6.5 -1.5
q21 -3 22 -3l46 -5q10 -1 46 -1q2 0 22.5 -0.5t23.5 0.5q74 5 91 8q80 11 178 45l43 16q8 3 23.5 10t18.5 8l21 10q3 1 6.5 3t7.5 4t7 3l41 21q94 55 155 101q78 59 141 119q62 58 128 135q129 149 212 304q49 89 76 167q17 53 23 87q0 1 1.5 9.5t1.5 12.5l2 21v21v10
q0 2 -0.5 6.5l-0.5 4.5l-3 22q-1 4 -2 11t-2 11l-2 11l-3 10q0 2 -2 9.5t-4 10.5q-15 45 -44 66q-30 23 -80 21q-22 -1 -45 -5q-19 -4 -43 -13q-68 -26 -162 -89q-69 -47 -150 -112q-129 -105 -280 -251q-263 -254 -516 -549zM576 -15q3 -25 14 -50l6 6l58 96q4 43 9 78
q7 50 17 92q-31 -34 -52 -64q-30 -41 -43 -76q-14 -39 -9 -82zM240 -646q86 145 190 316q-69 -91 -128 -174q-124 -178 -201 -316q-54 -97 -80 -167q-8 -24 -14 -45t-8 -40q0 -1 -0.5 -2l-0.5 -1q10 20 32 61q28 54 68 124q60 106 142 244zM630 -120q8 -8 17 -14v42z" />
    <glyph glyph-name="S" unicode="S" horiz-adv-x="1318" 
d="M1528 951q1 -5 0 -27q-3 -30 -11 -55q-16 -47 -52 -95q-61 -78 -160 -132q-12 -6 -19 6t4 19q93 62 141 132q30 43 41 83q6 21 7 44v23l-1 11l-2 11q-10 45 -36 80q-25 33 -68 57q-73 38 -181 40q-41 1 -97 -4q-52 -6 -97 -15q-91 -16 -191 -48q-203 -65 -357 -166
q-90 -61 -148 -124q-31 -34 -57 -75q-29 -49 -39 -84q-1 -2 -6 -22q-5 -21 -5 -23l-3 -21q0 -4 0.5 -12t0.5 -10q2 -46 20 -87q27 -70 102 -161q48 -59 134 -146l64.5 -64.5t77.5 -78.5q85 -88 136 -153q11 -15 24 -32q98 48 193 86q101 42 190 69q112 33 200 42
q4 0 7.5 -1.5t5.5 -4.5t3 -7q0 -6 -3.5 -10.5t-9.5 -5.5h-1q-87 -7 -194 -38q-89 -25 -189 -65q-93 -37 -189 -84q46 -67 70 -129q14 -44 16 -53l2.5 -10.5t2.5 -15.5l3 -28q1 -5 1 -28v-11t-1 -16q-6 -43 -10 -54q-23 -100 -83 -194q-110 -170 -310 -273q-94 -48 -196 -71
q-54 -13 -104 -15q-26 -2 -54 0q-27 3 -28 3q-20 4 -27 6q-60 15 -101 43q-23 15 -43 38q-17 20 -29 51l-4 13l-3 15q-2 6 -3 15v15q2 26 16 56q16 36 57 88q58 70 144 144q68 59 159 125q147 105 342 215q55 31 112 61l-16 22q-50 62 -132 147q-24 24 -88 87.5
t-108.5 110.5t-83.5 95q-81 100 -112 178q-21 52 -24 108v28l4 29q0 2 6 27q6 22 7 26q13 43 46 98q29 46 64 84q63 69 161 133q79 53 180 99q92 41 192 73q104 32 198 49q48 9 102 15q60 6 104 4q121 -4 207 -50q52 -30 84 -74q34 -46 42 -103l2 -14zM774 -349
q-22 58 -68 123q-59 -30 -115 -62q-173 -96 -338 -216q-89 -65 -156 -124q-90 -81 -138 -143q-79 -106 -42 -164q34 -67 142 -95q41 -10 92 -7q45 3 94 14q94 22 181 67q186 96 287 253q53 85 74 175q2 6 8 45q1 5 1 11.5v11.5q0 19 -1 22l-2 23l-3 12t-2 10q-1 5 -14 44z
" />
    <glyph glyph-name="T" unicode="T" horiz-adv-x="1134" 
d="M2796 693q5 -11 1.5 -22t-14.5 -16.5t-22 -1.5t-16 14h-1q-43 84 -97 149q-54 68 -126 123q-133 102 -322 144q-158 37 -358 33q-71 -2 -182 -11q-172 -15 -183 -16q-110 -11 -182 -24q-44 -7 -181 -34q-21 -5 -155.5 -32.5t-205.5 -41.5q-128 -24 -205 -35
q63 -59 98 -152q30 -79 38 -177q6 -82 -2 -179q-7 -82 -26 -177q-16 -83 -40 -173q-84 -310 -251 -665q-76 -163 -162 -317q-41 -73 -81 -138q198 233 571 795.5t724 1133.5q6 10 17.5 13t22 -3.5t13 -18t-3.5 -21.5q-48 -78 -109.5 -177.5t-192.5 -306.5t-253 -394.5
t-270 -407t-265.5 -381t-218.5 -278t-148 -134.5q-5 -2 -10 -2q-20 0 -27 18q-4 11 0.5 22t16.5 16q11 4 27 17q29 37 75 107q41 65 90 152q87 153 164 314q166 353 251 661q52 194 64 347q7 95 0 175q-7 95 -37 170q-34 88 -93 143q-7 6 -15 13q-69 -9 -129 -13
q-118 -6 -187 6q-51 7 -93 25q-44 17 -78 46q-23 -12 -42 6q-12 10 -12.5 25.5t10.5 27.5q9 10 22.5 11.5t24.5 -5.5q20 -12 47 -9q12 2 44 4q31 2 90 1q97 -2 179 -28q71 -23 129 -68q90 12 228 37q53 11 114 23.5t132.5 27.5t113.5 24l182 37l181 37q108 22 183 30
q87 10 186 13q208 7 374 -30q201 -45 346 -156q148 -113 237 -296zM383 934q46 2 97 8q-45 30 -98 46q-79 25 -171 26q-59 1 -88 -2q-32 -2 -43 -4q-12 -1 -21 -5q56 -45 144 -60q39 -8 90 -10q38 -2 90 1z" />
    <glyph glyph-name="U" unicode="U" horiz-adv-x="2286" 
d="M2559 1134q12 -25 -8 -43l-2 -2q-1 -63 -74 -211t-251 -471q-291 -526 -413 -788q-257 -550 -192 -736q3 -8 1.5 -15.5t-6.5 -13t-12 -8.5q-5 -2 -10 -2q-20 0 -27 20q-15 42 -17.5 96.5t12 124t31.5 135.5t54 158t66.5 163t82.5 178t88 176.5t97.5 185.5t96 177
t97.5 177q63 114 93 169q-37 -58 -66 -103q-183 -279 -387 -553q-226 -308 -419 -530q-124 -142 -231 -247q-151 -146 -263 -215q-94 -56 -163 -65q-53 -5 -94 22q-2 1 -20 16q-1 0 -17 18q-2 2 -14 22q-8 19 -9 24q-10 39 -5 94q3 31 16 86q19 75 53 164q53 135 140 310
q69 139 157 300q127 230 341 583q9 16 176 288l50 81q-26 -19 -54 -39q-108 -72 -264 -157q-115 -62 -272 -139l-274 -134q-192 -93 -274 -135q-183 -93 -262 -150q-36 -27 -53 -48l-4 -7l-4 -8l-8 -16l-4 -8l-4 -8l-6 -17q-23 -66 -5 -142q17 -69 59 -131q39 -58 94 -115
q8 -9 8 -21t-9 -20.5t-21 -8t-20 9.5l-2 2q-59 76 -89 129q-45 79 -58 148q-7 34 -5 80q5 32 6 40l5 20q4 13 6 19l8 19l3 9l5 9l9 18l5 8l6 10q19 23 60 53q46 33 132 81q54 31 135 72q81 42 273 136q345 170 540 280q155 88 256 161q73 53 116 95q63 60 82 111v1
q4 11 15 16t22 1q7 -3 12 -8v-1q3 -3 5 -7v-1q1 -3 2 -7v-1q0 -6 -2 -12l-3 -12q-3 -6 -5 -11q-2 -3 -10 -20q-10 -18 -21 -38q-17 -30 -42 -74l-86 -145l-175 -289q-197 -326 -339 -581q-89 -159 -158 -297q-87 -171 -139 -304q-34 -85 -53 -156q-11 -46 -15 -79
q-6 -45 0 -74q0 -3 2 -8.5t2 -7.5l4 -6q1 -4 4 -7q1 -2 4.5 -7t5.5 -7l6 -6l6 -6q27 -22 66 -21q34 0 77 15q27 11 37 17q15 7 36 19q110 67 259 210q107 103 231 244q201 228 422 525q201 275 382 555q97 150 177 286q49 83 82 147q18 33 34 66q21 55 19 79q0 4 1 9
q-7 14 -1.5 28.5t19 21t28.5 1.5t21 -19z" />
    </font>
</defs>
</svg>
